<svg xmlns="http://www.w3.org/2000/svg" xmlns:xlink="http://www.w3.org/1999/xlink" viewBox="0 0 437.14 182.4"><defs><style>.cls-1,.cls-18{fill:none;}.cls-2,.cls-3,.cls-4,.cls-5{opacity:0.25;}.cls-2{fill:url(#linear-gradient);}.cls-3{fill:#3bdb80;}.cls-4{fill:url(#linear-gradient-2);}.cls-11,.cls-5,.cls-6{fill:#fff;}.cls-6{font-size:38.73px;font-family:DINPro-Regular, DINPro;}.cls-7{letter-spacing:-0.08em;}.cls-8{fill:#6dd650;}.cls-9{clip-path:url(#clip-path);}.cls-10{fill:#a6b7be;}.cls-12{fill:#f2bb82;}.cls-13{fill:#f9cc8a;}.cls-14{fill:#6e6267;}.cls-15{fill:#c28331;}.cls-16{fill:url(#未命名漸層_20);}.cls-17{fill:url(#未命名漸層_20-2);}.cls-18{stroke:#6e6267;stroke-linecap:round;stroke-miterlimit:10;stroke-width:3px;}</style><linearGradient id="linear-gradient" y1="91.2" x2="437.14" y2="91.2" gradientUnits="userSpaceOnUse"><stop offset="0" stop-color="#5fc1d7"/><stop offset="1" stop-color="#80f08c"/></linearGradient><linearGradient id="linear-gradient-2" x1="170.15" y1="98.79" x2="421.6" y2="98.79" xlink:href="#linear-gradient"/><clipPath id="clip-path"><circle class="cls-1" cx="89.32" cy="90.47" r="62.62"/></clipPath><linearGradient id="未命名漸層_20" x1="3006.28" y1="4669.89" x2="3015.51" y2="4669.89" gradientTransform="translate(-4586.11 3090.97) rotate(-90)" gradientUnits="userSpaceOnUse"><stop offset="0" stop-color="#ff8148" stop-opacity="0"/><stop offset="1" stop-color="#ff8148"/></linearGradient><linearGradient id="未命名漸層_20-2" x1="3006.49" y1="4689.44" x2="3015.73" y2="4689.44" xlink:href="#未命名漸層_20"/></defs><title>game</title><g id="圖層_3" data-name="圖層 3"><rect class="cls-2" width="437.14" height="182.4"/><rect class="cls-3" x="170.15" y="124.23" width="251.45" height="21.98"/><rect class="cls-4" x="170.15" y="87.8" width="251.45" height="21.98"/><polygon class="cls-5" points="286.68 87.8 297.97 109.78 420.56 109.78 420.56 87.8 286.68 87.8"/><polygon class="cls-5" points="303.5 124.23 314.8 146.21 420.56 146.21 420.56 124.23 303.5 124.23"/><text class="cls-6" transform="translate(184.22 66.11)"><tspan class="cls-7">T</tspan><tspan x="18.28" y="0">om</tspan></text><circle class="cls-8" cx="89.32" cy="90.47" r="62.62"/><g class="cls-9"><path class="cls-10" d="M125.33,115.19s-23.25-11.46-35.78-11-39.09,10-40.31,14.48c-.64,2.38,10.08,2.35,12.22,19.65C63,150.77,66,189.73,66,189.73s19.44-1.77,19.58-3.1c.08-.72.94-6.13.94-6.13,4.58.49,8.65-1.15,12.53.21.36.13,1.09,7,1.09,7,3,.53,15.6,2.33,15.81,2,3.84-5.92,15.85.33,16-8C132.31,166.28,126,120.44,125.33,115.19Z"/><path class="cls-10" d="M48.58,118.67,37.32,176.25l6.8,5.35,15.31-.28,16.43-63S55.67,112,48.58,118.67Z"/><path class="cls-11" d="M67.35,109.1s15.53,19.77,17.42,38.21a329,329,0,0,1,1.58,35.36l13.19-.24s-2.26-26.29-1.22-35.94,11.45-40.32,11.45-40.32l-22.23-2.93Z"/><path class="cls-11" d="M97.42,91.09c-.27-.08-.57-.15-.9-.23a4.49,4.49,0,0,0,.08-.53Z"/><path class="cls-12" d="M91.51,107.65a18.23,18.23,0,0,0,5.27-2.14l0-15.79-17.41.34.43,15.8C82.64,108.06,89,108.24,91.51,107.65Z"/><path class="cls-13" d="M109,78.46c-.61,13.68-7.76,23.46-19.66,22.65-15.4-1-17.3-13.87-17.87-27.55s3.64-24.44,16.7-24.49C108.17,49,110.12,53.49,109,78.46Z"/><path class="cls-13" d="M75.59,76.27c1.48,3.27,1.58,5.8-.6,6.78s-7-.19-8.53-3.46-.91-6.71,1.27-7.7S74.11,73,75.59,76.27Z"/><path class="cls-14" d="M84.79,146.48l-5-42.38s-17.37,2.56-17.41,5.05S84.79,146.48,84.79,146.48Z"/><path class="cls-13" d="M100.6,92c-.09,1.81-3.49,3.13-7.21,3S86.88,93.28,87,91.46s5.12-2.93,6.88-2.85C96.25,88.72,100.68,90.14,100.6,92Z"/><path class="cls-15" d="M92.8,67.68a18.85,18.85,0,0,0-5.1-.33,21.13,21.13,0,0,0-4,1.11l1,2.18s1.75-.19,3.49-.47a13.67,13.67,0,0,1,4.3.34Z"/><path class="cls-15" d="M96.39,67.26a18.92,18.92,0,0,1,5.07-.57,20.81,20.81,0,0,1,4,.92l-.86,2.22s-1.76-.11-3.51-.3a13.72,13.72,0,0,0-4.29.54Z"/><path class="cls-15" d="M67,51l-.4.54a.64.64,0,0,0-.08.14q.27-.39.57-.78Z"/><path class="cls-15" d="M5.8,73.17a.49.49,0,0,1,0-.11c0,.29-.08.58-.11.88Z"/><path class="cls-15" d="M109.83,51.33a4.44,4.44,0,0,0-.1-.62,3,3,0,0,0-2.68-2.34.66.66,0,0,0-.2,0c-6.59-2.59-13.77-3-20.78-2.53a65,65,0,0,0-9.75,1.06,11,11,0,0,0-4.81,2.15c-.58.32-1.16.67-1.72,1a21.43,21.43,0,0,0-2,2.29c-.55,2.88-1.21,5.74-1.56,8.65,0,.19-.05.38-.07.57a37,37,0,0,0,0,4.21c0,.1,0,.21.08.32.21.77.45,1.53.72,2.29,1,1.2,2,2.37,3,3.48.94.14,1.87.3,2.8.47s2,.09,3.06.18c.08-.61.15-1.21.23-1.81s.34-2.65.77-5A15.24,15.24,0,0,1,77,59.14a5.74,5.74,0,0,1,2.47-3.68,5.85,5.85,0,0,1,4.91,0,.46.46,0,0,1,.29.29,18.76,18.76,0,0,1,3.3.75l2.44.52c.31,0,.61,0,.92,0l3.19-.53a19.83,19.83,0,0,0,5.22.06c1.75-.23,3.57-1,5.35-.75.92.12,1.75,1,2.63,1.32a2.83,2.83,0,0,1,.32.45.43.43,0,0,1,.33.32,2.94,2.94,0,0,1,.1.63,5.47,5.47,0,0,1,.15.58.51.51,0,0,1-.16.42.68.68,0,0,0,.56-.6l0-.23h0a4.19,4.19,0,0,0,0-.5,5.59,5.59,0,0,0,1.14-2.93A11.62,11.62,0,0,0,109.83,51.33Z"/><path class="cls-14" d="M98.52,147.12,96.79,104s15.42-.93,15.38,1.57S98.52,147.12,98.52,147.12Z"/><circle class="cls-14" cx="88.93" cy="73.85" r="1.18"/><circle class="cls-14" cx="100.96" cy="73.42" r="1.18"/><circle class="cls-16" cx="83.78" cy="80.08" r="4.62"/><circle class="cls-17" cx="103.32" cy="79.86" r="4.62"/><path class="cls-18" d="M86.79,86.73s2.57,3.87,12.13,3.33"/><path class="cls-18" d="M95.1,74.83s.05,5.19,2.71,6.32-2.06,4-2.06,4"/></g></g></svg>