<svg xmlns="http://www.w3.org/2000/svg" xmlns:xlink="http://www.w3.org/1999/xlink" viewBox="0 0 930 150"><defs><style>.cls-1{isolation:isolate;}.cls-2{font-size:29.69px;font-family:DINPro-Regular, DINPro;}.cls-2,.cls-5{fill:#fff;}.cls-10,.cls-3,.cls-5,.cls-7,.cls-9{fill-rule:evenodd;}.cls-3{fill:url(#linear-gradient);}.cls-4{opacity:0.35;}.cls-6{fill:#454868;}.cls-7{fill:url(#linear-gradient-2);}.cls-8{mix-blend-mode:multiply;}.cls-9{fill:#bdc5d2;}.cls-10{fill:#35558c;}</style><linearGradient id="linear-gradient" x1="468.01" y1="85.12" x2="468.01" y2="126.48" gradientUnits="userSpaceOnUse"><stop offset="0" stop-color="#3c687e"/><stop offset="1" stop-color="#fff"/></linearGradient><linearGradient id="linear-gradient-2" x1="17.91" y1="105.66" x2="365.59" y2="105.66" gradientUnits="userSpaceOnUse"><stop offset="0" stop-color="#5fc1d7"/><stop offset="1" stop-color="#80f08c"/></linearGradient></defs><title>game</title><g class="cls-1"><g id="圖層_3" data-name="圖層 3"><text class="cls-2" transform="translate(41.24 61.82)">A</text><text class="cls-2" transform="translate(897.24 61.82)">B</text><path class="cls-3" d="M35.63,126.26a20.61,20.61,0,1,1,0-41.21H900.39a20.61,20.61,0,1,1,0,41.21Z"/><g class="cls-4"><path class="cls-5" d="M35.63,88H900.39a17.71,17.71,0,1,1,0,35.42H35.63a17.71,17.71,0,1,1,0-35.42Z"/></g><rect class="cls-6" x="367.64" y="96.01" width="226.59" height="19.29"/><path class="cls-7" d="M365.59,88h-330a17.71,17.71,0,1,0,0,35.42h330Z"/><g class="cls-8"><path class="cls-9" d="M395.28,108.55a30.64,30.64,0,1,1-30.63-30.64A30.63,30.63,0,0,1,395.28,108.55Z"/></g><path class="cls-9" d="M395.28,105.66A30.64,30.64,0,1,1,364.65,75,30.63,30.63,0,0,1,395.28,105.66Z"/><path class="cls-5" d="M364.65,77.91a30.6,30.6,0,0,1,30.54,29.19c0-.48.09-.95.09-1.44a30.64,30.64,0,1,0-61.27,0c0,.49.06,1,.08,1.44A30.6,30.6,0,0,1,364.65,77.91Z"/><path class="cls-10" d="M381.5,105.66A16.86,16.86,0,1,1,364.65,88.8,16.86,16.86,0,0,1,381.5,105.66Z"/><path class="cls-5" d="M319.91,2H411V49.71H380.05L367.53,63.78,353.09,49.71H319.91Z"/><path class="cls-6" d="M352.4,9.27c5.68,0,9.55,3.35,9.55,8.28a6.39,6.39,0,0,1-4.32,6.31,7.12,7.12,0,0,1,5.6,7.28c0,5.9-4.5,10-10.93,10S341.6,37,341.6,31v-.66h4.84c.14,4.32,2.12,6.48,6,6.48,3.4,0,5.56-2.12,5.56-5.5,0-3.8-2.87-5.16-6.19-5.16-.57,0-.83,0-1.58,0V22.37h.44c3.1,0,6.35-.49,6.35-4.46,0-2.69-1.85-4.5-4.72-4.5-3.21,0-5,2.12-5.15,6.09h-4.8C342.51,13.15,346.32,9.27,352.4,9.27Z"/><path class="cls-6" d="M367.56,17.38c0-4.84,4-8.2,9.73-8.2,5.55,0,9.44,3.36,9.44,8.07a6.72,6.72,0,0,1-4.38,6.56c3.58,1.24,5.66,3.36,5.66,7.46,0,5.82-4.37,9.69-10.89,9.69s-10.8-3.79-10.8-9.43A7.63,7.63,0,0,1,372,23.81,6.47,6.47,0,0,1,367.56,17.38Zm3.83,13.89c0,3.52,2.3,5.72,5.9,5.72s5.65-2.07,5.65-5.59-2.3-5.6-5.82-5.6S371.39,28,371.39,31.27Zm.87-13.59c0,2.7,2,4.5,4.95,4.5s4.84-1.72,4.84-4.5-1.89-4.44-4.8-4.44S372.26,15,372.26,17.68Z"/></g></g></svg>