<svg xmlns="http://www.w3.org/2000/svg" xmlns:xlink="http://www.w3.org/1999/xlink" viewBox="0 0 437.14 182.4"><defs><style>.cls-1,.cls-14{fill:none;}.cls-2,.cls-3,.cls-4,.cls-5{opacity:0.25;}.cls-2{fill:url(#linear-gradient);}.cls-3{fill:#3bdb80;}.cls-4{fill:url(#linear-gradient-2);}.cls-10,.cls-5,.cls-6{fill:#fff;}.cls-6{font-size:38.73px;font-family:DINPro-Regular, DINPro;}.cls-7{fill:#d656d6;}.cls-8{clip-path:url(#clip-path);}.cls-9{fill:#ead039;}.cls-11{fill:#efcba8;}.cls-12{fill:#ffe6c5;}.cls-13{fill:#c28331;}.cls-14{stroke:#6e6267;stroke-linecap:round;stroke-miterlimit:10;stroke-width:3px;}.cls-15{fill:url(#未命名漸層_23);}.cls-16{fill:url(#未命名漸層_23-2);}.cls-17{fill:#4fc1bb;}.cls-18{clip-path:url(#clip-path-2);}.cls-19{fill:#636262;}</style><linearGradient id="linear-gradient" y1="91.2" x2="437.14" y2="91.2" gradientUnits="userSpaceOnUse"><stop offset="0" stop-color="#5fc1d7"/><stop offset="1" stop-color="#80f08c"/></linearGradient><linearGradient id="linear-gradient-2" x1="170.15" y1="98.79" x2="421.6" y2="98.79" xlink:href="#linear-gradient"/><clipPath id="clip-path"><circle class="cls-1" cx="97.4" cy="92.86" r="62.62"/></clipPath><linearGradient id="未命名漸層_23" x1="2241.3" y1="5292.94" x2="2250.26" y2="5292.94" gradientTransform="translate(-4944.63 2861.44) rotate(-95.84)" gradientUnits="userSpaceOnUse"><stop offset="0" stop-color="#ff8148" stop-opacity="0"/><stop offset="1" stop-color="#ffbc95"/></linearGradient><linearGradient id="未命名漸層_23-2" x1="2331.86" y1="4951.3" x2="2340.82" y2="4951.3" gradientTransform="translate(-4841.11 2424.68) rotate(-90)" xlink:href="#未命名漸層_23"/><clipPath id="clip-path-2"><circle class="cls-1" cx="87.12" cy="-112.65" r="62.62"/></clipPath></defs><title>game</title><g id="圖層_3" data-name="圖層 3"><rect class="cls-2" width="437.14" height="182.4"/><rect class="cls-3" x="170.15" y="124.23" width="251.45" height="21.98"/><rect class="cls-4" x="170.15" y="87.8" width="251.45" height="21.98"/><polygon class="cls-5" points="286.68 87.8 297.97 109.78 420.56 109.78 420.56 87.8 286.68 87.8"/><polygon class="cls-5" points="303.5 124.23 314.8 146.21 420.56 146.21 420.56 124.23 303.5 124.23"/><text class="cls-6" transform="translate(184.22 66.11)">David</text><circle class="cls-7" cx="97.4" cy="92.86" r="62.62"/><g class="cls-8"><path class="cls-9" d="M85.56,80l-.89.89a.8.8,0,0,0-1.21-.35,36.19,36.19,0,0,0-4.93,4.06c-4.8,3.55-8.32,8.93-10.78,14.23-.5,1.07-1.08,2.24-1.53,3.43,2.92-1.33,5.87-2.59,8.88-3.69.13-.22.27-.44.41-.65,1-1.6,2-3.22,2.92-4.88l.61-.92,1-1.26a114.13,114.13,0,0,0,6.91-10C87.48,80.08,86.18,79.43,85.56,80Z"/><path class="cls-10" d="M140.13,168.53c0-.13,0-.26.05-.39.11-1,.22-2.1.34-3.15q.36-3.45.76-6.89c.26-2.25.58-4.48.92-6.71a10.28,10.28,0,0,0-.21-1.49c.19.79,0,0-.05-.34s-.13-.78-.19-1.16c-1.11-6.39-2.93-12.64-4-19-.37-2.19-.72-4.38-1.08-6.57-.54-.76-1.09-1.52-1.66-2.26s-1-1.27-1.45-1.9a2.09,2.09,0,0,1-.14-.17l-.61-.75c-1-1.19-2-2.35-3.09-3.47a42.48,42.48,0,0,0-3.38-3.19c-.3-.24-.59-.49-.9-.72l-.1-.08c-.56-.32-1.08-.74-1.64-1.07s-1.14-.61-1.73-.88a19.05,19.05,0,0,0-2.77-.43H119l-.54,0a3.52,3.52,0,0,1-1.17,0,13.68,13.68,0,0,0-2.46.38l.14-.43L93.42,105l-14.14,4.11-.77-.1a8.64,8.64,0,0,0-2.5.36l-1.05.47q-1.3.6-2.58,1.23a61.81,61.81,0,0,0-10,6.06l0,.05-.36.28c-.31.26-.62.52-.92.79-.59.52-1.16,1.06-1.72,1.62s-1.18,1.26-1.72,1.92c-.23.29-1,1.46-.17.18-.18.3-.41.58-.6.87a20.18,20.18,0,0,0-1.21,2.13c-.14.28-.24.62-.39.91l-.09.26a21.91,21.91,0,0,0-.64,2.66l-.09.62v0c0,.42-.07.83-.08,1.25a27.29,27.29,0,0,0,0,2.86c0,.54.08,1.08.13,1.62,0,.37.35,1.58,0,.42.26,1,.33,2,.54,3s.46,2,.73,2.94c.54,1.95,1.18,3.88,1.88,5.78.34.93.7,1.85,1.07,2.77l.55,1.35c.07.15.13.31.2.46h0a7.26,7.26,0,0,1,.59,1.4c.17.37.33.74.5,1.1.37.82.75,1.65,1.14,2.46,1.06,2.14,2.09,4.3,3.11,6.47s2.13,4.61,3.21,6.9c2.61,3,5.25,5.86,7.63,9,.19.25.38.54.57.82.85.7,1.68,1.42,2.5,2.17a25.3,25.3,0,0,0,4.18,2c4,1.51,8.52,1.57,12.76,1.77a101.54,101.54,0,0,0,12,0,53,53,0,0,0,12.56-2.22,45.1,45.1,0,0,0,6.62-2.76c.52-.27,1-.55,1.52-.86,1.94-2,4-3.88,6.1-5.69,1.25-1.07,2.52-2.13,3.79-3.18C139,170.37,139.56,169.46,140.13,168.53Z"/><path class="cls-10" d="M104.05,92.57c-.26-.08-.56-.15-.88-.23a2.68,2.68,0,0,0,.08-.5Z"/><path class="cls-11" d="M98.31,108.63a18,18,0,0,0,5.12-2.08l0-15.31-16.89.33L87,106.89C89.72,109,95.91,109.2,98.31,108.63Z"/><path class="cls-12" d="M117.16,82.41c-.41,6.87-6.25,18.35-17.7,16.66C81.37,96.4,78.58,88.92,78.26,75.78S81.8,52.07,94.46,52C113.85,52,118.63,58.21,117.16,82.41Z"/><path class="cls-12" d="M82.88,78.2c1.43,3.17,1.53,5.62-.58,6.57s-6.84-.18-8.28-3.35-.88-6.51,1.23-7.47S81.44,75,82.88,78.2Z"/><path class="cls-9" d="M101.23,68a18.31,18.31,0,0,0-4.94-.32,20.91,20.91,0,0,0-3.87,1.08l.94,2.11s1.69-.18,3.39-.45a13.33,13.33,0,0,1,4.17.33Z"/><path class="cls-9" d="M105.34,67.59a18,18,0,0,1,4.92-.56,20.79,20.79,0,0,1,3.92.89l-.84,2.15s-1.7-.1-3.41-.29a13.64,13.64,0,0,0-4.15.53Z"/><path class="cls-13" d="M74.54,53.67c-.13.17-.26.35-.4.52s0,.1-.07.14c.18-.26.36-.51.55-.76A.39.39,0,0,1,74.54,53.67Z"/><path class="cls-9" d="M116.91,54a3.11,3.11,0,0,0-.09-.6,2.92,2.92,0,0,0-2.6-2.27.66.66,0,0,0-.2,0c-6.39-2.51-13.35-2.87-20.15-2.46a63.83,63.83,0,0,0-9.45,1,10.64,10.64,0,0,0-4.67,2.08c-.56.31-1.12.65-1.67,1A23.68,23.68,0,0,0,76.17,55c-.52,2.79-1.17,5.57-1.51,8.39L74.6,64a34.74,34.74,0,0,0,0,4.08c0,.1,0,.21.07.31.21.75.44,1.49.71,2.23.92,1.16,1.88,2.29,2.9,3.37.91.14,1.82.29,2.72.46s2,.08,3,.17c.07-.59.14-1.18.22-1.75s.32-2.57.74-4.82A15,15,0,0,1,85,61.59,4.86,4.86,0,0,1,92.18,58a.42.42,0,0,1,.28.29,17.44,17.44,0,0,1,3.2.72L98,59.5c.3,0,.6,0,.9,0L102,59a19,19,0,0,0,5.06.07c1.7-.23,3.46-1,5.19-.73.89.11,1.69,1,2.55,1.28a3.36,3.36,0,0,1,.31.43.45.45,0,0,1,.32.32,2.59,2.59,0,0,1,.1.61,4.58,4.58,0,0,1,.14.56.45.45,0,0,1-.16.41.68.68,0,0,0,.55-.59l0-.22h0a4,4,0,0,0,0-.49,5.33,5.33,0,0,0,1.1-2.84A10.9,10.9,0,0,0,116.91,54Z"/><polyline class="cls-14" points="100.81 78.24 105.92 86.99 98.63 86.72"/><circle class="cls-15" cx="92.35" cy="88.8" r="4.48"/><circle class="cls-16" cx="110.19" cy="88.34" r="4.48"/><path class="cls-14" d="M96.34,90.11c.73-.1,7.81.11,9.79-.62"/><circle class="cls-14" cx="93.51" cy="77.66" r="5.1"/><circle class="cls-14" cx="108.92" cy="76.62" r="5.1"/><line class="cls-14" x1="98" y1="76.4" x2="104.67" y2="76.24"/><line class="cls-14" x1="114.24" y1="75.98" x2="117.85" y2="75.82"/><line class="cls-14" x1="81.07" y1="74.16" x2="87.33" y2="76.76"/><circle class="cls-17" cx="93.32" cy="77.31" r="1.15"/><circle class="cls-17" cx="107.79" cy="76.68" r="1.15"/><path class="cls-10" d="M117,121.77c-.67-2.06-2-4.45-4.12-5.35L98.17,110c-3.21-1.4-6.31-3-9.81-3.46a15.77,15.77,0,0,0-6.3.33l-.5.22c-1.55.57-3.1,1.17-4.62,1.81a2.4,2.4,0,0,0-.26.18c-1.94,1.44-3.45,2.92-4.11,5.35,0,.12-.07.25-.1.38a9,9,0,0,0-3.15,12.22,9.14,9.14,0,0,0,12.25,3.21,40,40,0,0,0,7.24-4.92c5,2.16,10,4.35,15,6.52a6.69,6.69,0,0,0,3.33,1.07,6.88,6.88,0,0,0,3.57-.16,9,9,0,0,0,6.26-11Z"/><path class="cls-17" d="M129.68,114.25c-.71-.74-1.44-1.45-2.2-2.14q-21.76-.31-43.53-1.26c-3.4-.14-6.8-.31-10.2-.48l-1.37.67c-1.26.63-2.51,1.29-3.74,2q28.33,1.5,56.71,2l5.09.07Z"/><path class="cls-17" d="M136.64,122.81c-.55-.77-1.1-1.52-1.67-2.27l-.09-.13q-10.77-.07-21.53-.21-21.06-.27-42.11-.76l-11.18-.28-.7.68c-.6.62-1.18,1.26-1.72,1.92l-.18.25q16.12.43,32.24.73,21,.41,42.11.57l4.91,0C136.69,123.16,136.66,123,136.64,122.81Z"/><path class="cls-17" d="M137.83,130q-9.77.21-19.54.26-23.64.12-47.29-.7c-5.49-.19-11-.43-16.47-.69,0,.17-.06.35-.08.52v0c0,.42-.07.83-.08,1.25s0,.74,0,1.11q18.67.9,37.39,1.24,23.33.4,46.65-.11C138.19,131.94,138,131,137.83,130Z"/><path class="cls-17" d="M139.47,137.77q-11,.63-22,1-22.33.78-44.68.54Q64,139.22,55.22,139c.19.84.4,1.67.62,2.49,0,.15.09.3.13.45q18.15.51,36.32.35,22.33-.19,44.66-1.42l3.19-.19C139.92,139.69,139.69,138.73,139.47,137.77Z"/><path class="cls-17" d="M142,152.45c.05-.35.1-.71.16-1.06a10.28,10.28,0,0,0-.21-1.49c.19.79,0,0-.05-.34v0q-10.92.14-21.84.18-22.78.06-45.57-.69-8.19-.25-16.38-.64c.21.54.42,1.09.64,1.62l.55,1.35h0q17.53.78,35.08,1.09c15.15.26,30.31.21,45.47,0Z"/><path class="cls-17" d="M141.12,159.46c-6.21.09-12.43.17-18.65.2q-22.8.12-45.57-.83c-4.77-.2-9.55-.39-14.32-.43L64,161.33c3.68,0,7.37.18,11.05.34,8,.33,16,.64,24,.78,13.92.25,27.85.13,41.77-.07C140.9,161.4,141,160.43,141.12,159.46Z"/><path class="cls-17" d="M139.6,169.92l.49-1,.09-.79.12-1.13c-6.77,0-13.54.08-20.31.18-14.47.21-28.94.52-43.42.44q-4.84,0-9.7-.11l1.24,2.64.27.3c9.07.15,18.14.11,27.21,0,14.48-.17,29-.51,43.43-.55Z"/><path class="cls-17" d="M131.68,176.93q-24.77.63-49.55.51l-7.79-.06c.47.59.94,1.18,1.4,1.78.19.25.38.54.57.82l.4.33q25.94.21,51.88-.38C129.59,178.9,130.62,177.91,131.68,176.93Z"/><path class="cls-17" d="M103.59,48.63C103,45.55,99,45.1,96.16,45c-1.23-.25-2.47-.44-3.71-.57-.89-.1-1.79-.17-2.68-.2a11.08,11.08,0,0,0-2.23,0,41.43,41.43,0,0,0-5.21.43,1.3,1.3,0,0,0-1.28-1.35,3.4,3.4,0,0,0-4.54.47,2.2,2.2,0,0,0,.16,3,7.53,7.53,0,0,0-3,2.41,3.89,3.89,0,0,0-.49.92c-1.19,2.28-1.11,5.18,1.4,6.66a3.72,3.72,0,0,0,1.44.48l.13,0a3,3,0,0,0,.61.08,1.29,1.29,0,0,0,1.59.63l15.54-4.3c1.53-.06,3-.16,4.57-.32,1.81-.18,3.88-.7,4.65-2.46A2.53,2.53,0,0,0,103.59,48.63Z"/></g><g class="cls-18"><path class="cls-19" d="M110.61,3.23c.61-.82,8-32.91,7.59-33.87-.07-.18-2.14-9.45-5.54-16.39,0,0-4.41.61-14.83,1.15a165.15,165.15,0,0,1-18-.7c-.29-.07-5.54,10.82-6.23,23.52A151.59,151.59,0,0,0,75.06,4.2S107.69,7.13,110.61,3.23Z"/></g></g></svg>