<svg xmlns="http://www.w3.org/2000/svg" viewBox="0 0 132.06 108.09"><defs><style>.cls-1{fill:#fff;}</style></defs><title>game</title><g id="圖層_3" data-name="圖層 3"><path class="cls-1" d="M89.69,67.7l-2.17-6a13.43,13.43,0,1,0-17.29-17l-6-2.07a19.75,19.75,0,1,1,25.42,25Z"/><path class="cls-1" d="M78.91,25.09a3.17,3.17,0,0,1-3.12-2.7L73,3.62A3.19,3.19,0,0,1,75.68,0a3.15,3.15,0,0,1,3.58,2.68L82,21.46a3.14,3.14,0,0,1-2.68,3.59A2.09,2.09,0,0,1,78.91,25.09Z"/><path class="cls-1" d="M99.34,30.22a3.15,3.15,0,0,1-1.89-.62,3.18,3.18,0,0,1-.66-4.43L108.1,9.94a3.16,3.16,0,1,1,5.06,3.77L101.88,29A3.21,3.21,0,0,1,99.34,30.22Z"/><path class="cls-1" d="M110.14,48.28a3.17,3.17,0,0,1-3.12-2.7A3.14,3.14,0,0,1,109.67,42l18.78-2.77a3.16,3.16,0,0,1,.92,6.25l-18.78,2.77A2.28,2.28,0,0,1,110.14,48.28Z"/><path class="cls-1" d="M120.24,80a3.12,3.12,0,0,1-1.89-.62L103.12,68.07A3.17,3.17,0,0,1,106.91,63l15.21,11.32A3.15,3.15,0,0,1,120.24,80Z"/><path class="cls-1" d="M60.85,35.9A3.12,3.12,0,0,1,59,35.28L43.74,24a3.17,3.17,0,0,1,3.79-5.08L62.73,30.2a3.16,3.16,0,0,1-1.88,5.7Z"/><path class="cls-1" d="M87,108.09H21.15c-7.87,0-14.55-4.21-18.28-11.57A28.23,28.23,0,0,1,5.31,67.67C11.64,59,19,57.14,24.06,57.14a21.46,21.46,0,0,1,4.79.54c2.92-6,11.39-19,29.85-19,1.14,0,2.31.05,3.48.15C88.87,41.12,93.3,59.83,94,66.76c11.74,3.76,16.08,13.69,15.1,22.3C108.05,98.23,100.71,108.09,87,108.09Zm-63-44.63c-5.22,0-9.8,2.66-13.64,7.93A21.93,21.93,0,0,0,8.48,93.66c1.57,3,5.25,8.1,12.67,8.1H87c9.78,0,15-7,15.79-13.42.67-5.9-2.2-13.65-12.55-16l-2.55-.59.11-2.61c0-.88.34-21.68-26.2-23.92-1-.08-2-.12-2.94-.12-19.12,0-24.84,16.77-25.08,17.48l-1.11,3.41-3.23-1.51A14.05,14.05,0,0,0,24.06,63.46Z"/></g></svg>