<svg xmlns="http://www.w3.org/2000/svg" xmlns:xlink="http://www.w3.org/1999/xlink" viewBox="0 0 437.14 182.4"><defs><style>.cls-1,.cls-20,.cls-22{fill:none;}.cls-2,.cls-3,.cls-4,.cls-5{opacity:0.25;}.cls-2{fill:url(#linear-gradient);}.cls-3{fill:#3bdb80;}.cls-4{fill:url(#linear-gradient-2);}.cls-10,.cls-5,.cls-6{fill:#fff;}.cls-6{font-size:38.73px;font-family:DINPro-Regular, DINPro;}.cls-7{fill:#6dd6bc;}.cls-8{clip-path:url(#clip-path);}.cls-9{fill:#91260c;}.cls-11{fill:#b51429;}.cls-12{fill:#f7c178;}.cls-13{fill:#dc1a31;}.cls-14{fill:#636262;}.cls-15{fill:#c2c3c3;}.cls-16{fill:#f9cc8a;}.cls-17{fill:#c98933;}.cls-18{fill:url(#未命名漸層_20);}.cls-19{fill:url(#未命名漸層_20-2);}.cls-20{stroke:#6e6267;}.cls-20,.cls-22{stroke-linecap:round;stroke-miterlimit:10;stroke-width:3px;}.cls-21{fill:#7c4b12;}.cls-22{stroke:#c98933;}</style><linearGradient id="linear-gradient" y1="91.2" x2="437.14" y2="91.2" gradientUnits="userSpaceOnUse"><stop offset="0" stop-color="#5fc1d7"/><stop offset="1" stop-color="#80f08c"/></linearGradient><linearGradient id="linear-gradient-2" x1="170.15" y1="98.79" x2="421.6" y2="98.79" xlink:href="#linear-gradient"/><clipPath id="clip-path"><circle class="cls-1" cx="87.12" cy="93" r="62.62"/></clipPath><linearGradient id="未命名漸層_20" x1="2540.26" y1="5134.91" x2="2549.67" y2="5134.91" gradientTransform="translate(-5046.76 2630.33) rotate(-90)" gradientUnits="userSpaceOnUse"><stop offset="0" stop-color="#ff8148" stop-opacity="0"/><stop offset="1" stop-color="#ff8148"/></linearGradient><linearGradient id="未命名漸層_20-2" x1="-5346.34" y1="8363.64" x2="-5336.93" y2="8363.64" gradientTransform="translate(-2461.81 9665.64) rotate(162.42)" xlink:href="#未命名漸層_20"/></defs><title>game</title><g id="圖層_3" data-name="圖層 3"><rect class="cls-2" width="437.14" height="182.4"/><rect class="cls-3" x="170.15" y="124.23" width="251.45" height="21.98"/><rect class="cls-4" x="170.15" y="87.8" width="251.45" height="21.98"/><polygon class="cls-5" points="286.68 87.8 297.97 109.78 420.56 109.78 420.56 87.8 286.68 87.8"/><polygon class="cls-5" points="303.5 124.23 314.8 146.21 420.56 146.21 420.56 124.23 303.5 124.23"/><text class="cls-6" transform="translate(184.22 66.11)">Cindy</text><circle class="cls-7" cx="87.12" cy="93" r="62.62"/><g class="cls-8"><path class="cls-9" d="M86.26,53.06h1A7.85,7.85,0,0,0,86.26,53.06Z"/><path class="cls-10" d="M129.76,83.29l-.92-.05a3,3,0,0,0,0-.52Z"/><path class="cls-11" d="M96.2,111.17,83.65,151.1l4.27,2.07,7,1.08,16.24-36.77S100.18,106.54,96.2,111.17Z"/><path class="cls-12" d="M104.91,111.05c.12,0,5.49,1.66,6.68,4.79.7,1.85,1,14.09,1,14.09l-1.06,26.33s-6.75-28.31-9.63-31.36C99.82,122.74,100,109.09,104.91,111.05Z"/><path class="cls-13" d="M108,122.77c.48-7.06,3-8.45.89-10.07,0,0-12.48-5.07-16.57-6.17C87.42,105.21,72,111.9,71,113.71c-.72,1.25,9.42,22.36,12.85,37.93.24,1-7.25,18.4-7.25,18.4s38-2.67,38.13-4.21c.32-3.53-7.48-14.87-7.93-17.35C105.44,141,107.44,131.42,108,122.77Z"/><path class="cls-12" d="M95.35,108.11,92.65,84.3l-8.44.88L83,107.81C86.62,110.11,93.28,111.26,95.35,108.11Z"/><path class="cls-13" d="M78.55,129.44c-.68-4.56,13.07-4.23,17.69-1.41l2.26-.09c1.77-16.25,11.76-3.86,13.8,0s1.13,9.09-4.94,9.09c-3.7,0-7.88-1.71-9.32-2.32A42.62,42.62,0,0,1,85.9,138.1c-4.49.23-4.56-.07-4.56-.07A30.73,30.73,0,0,1,78.55,129.44Z"/><path class="cls-14" d="M110.61,208.88c.61-.83,8-32.92,7.59-33.88-.07-.18-2.14-9.45-5.54-16.38,0,0-4.41.6-14.83,1.14a163.06,163.06,0,0,1-18-.69c-.29-.08-5.54,10.81-6.23,23.51a151.74,151.74,0,0,0,1.46,27.27S107.69,212.77,110.61,208.88Z"/><path class="cls-13" d="M112.66,158.62l-4.7-9.33.15-20s-9.84-1.77-15.37-1.67-15.68,1.2-15.12,2.26,5.85,20.87,5.57,21.5S78.87,160,78.87,160,113.13,161.61,112.66,158.62Z"/><path class="cls-15" d="M75.49,171c1.22.17,5.4.69,8.33-.14,1.93-.6,2.71-2.51,3.12-4.18a14.6,14.6,0,0,0,.37-2.87c2.47.05,5.13.05,7.89,0l.93,13.37.54-.27A7.42,7.42,0,0,0,100,172a31.52,31.52,0,0,0,.71-6.3c0-.82,0-1.52,0-2.05,3.11-.13,6.06-.34,8.57-.54a12.67,12.67,0,0,0,.09,1.4c.23,1.71.64,3.63,2.07,4.53a12.81,12.81,0,0,0,5.51,1.35c-.08-.3-.18-.62-.27-.94-.26,0-.54,0-.84-.08a9.75,9.75,0,0,1-3.75-1.1c-.9-.49-1.46-2.26-1.63-3.89a12.26,12.26,0,0,1-.1-1.36c1.6-.14,3-.27,4-.38-.14-.37-.29-.74-.44-1.1-1,.09-2.16.21-3.51.32v0h-.11l-1,.11v0c-3.47.28-7.82.57-12.23.67H95.93v0l-.79,0c-4.31,0-8.59-.26-12-.21-1.91,0-3.53-.4-4.75-.42-.13.37-.26.75-.39,1.16h.19a71.05,71.05,0,0,0,8,.6,13.82,13.82,0,0,1-.35,2.65c-.36,1.6-1.17,3.18-2.46,3.53a17,17,0,0,1-5.23.36c-1-.06-1.92-.16-2.43-.23C75.68,170.35,75.58,170.65,75.49,171ZM96,163.75l.94,0c1,0,2-.06,3-.09,0,.51,0,1.2,0,2a30.63,30.63,0,0,1-.68,6.14,7.31,7.31,0,0,1-2.4,4Z"/><path class="cls-16" d="M108.05,75.48c2.63,12.89-5.06,26.2-14,26.44-13.4.36-21.25-4.41-27.62-16-5.91-10.71-6.89-22.5,4-28.89C87,47.27,103.25,51.85,108.05,75.48Z"/><path class="cls-9" d="M92.06,53.09h-.67a2.71,2.71,0,0,1,.49.52A.4.4,0,0,0,92.06,53.09Z"/><path class="cls-17" d="M89.2,51.25l0,0c-5.58-2.66-11.52-2.94-16.55,2.83-2.09,2.39-3.82,4.9-4,8.89-.28,5.41-2.73,11.53-1.15,16.49,1.12,3.53,3.79,11.92,5.3,15.15C73.37,96,73.9,97.51,75,98.08c-1.14-7.46,4-19.92,7.83-24.39,2.22-2.56,5-4.54,6.81-7.72,1.54-2.65,1.55-5.54,1-8.85C90.43,55.45,90,52.68,89.2,51.25Z"/><path class="cls-17" d="M70.19,54.52s8-5.11,16.32-4.38c13.94,1.23,16.13,12.48,19.23,15.58.49.49-5.6-8.52-17-11.69C77,50.8,72.87,54.28,70.19,54.52Z"/><path class="cls-12" d="M70.06,114.18c-1.41.94-3.06,4-.7,8.72l21.87,34.41L95,155.43,97.13,151,83.91,121C78.55,115.12,73.56,111.29,70.06,114.18Z"/><path class="cls-12" d="M91,157c-.78-1-1.72-4-.48-5.81.93-1.37,4.24-.54,6-1.22l31.23,4.94-1.49,4.88-28.79,0S92.66,159.05,91,157Z"/><path class="cls-12" d="M147,152l-7.66.79-7.76.07,7.66-2-.83-1.92-10.64,1.78s-3.13,3.08-4.48,4.11c-.3,1.78-1.1,3.53,1.16,4.78a10.39,10.39,0,0,0,1.35.63l13.87,1.16.91-1.52-.93-.83,1.47.05,1.44-2.19-5.46-1.38,9.53-1.57Z"/><path class="cls-17" d="M74.73,96.42S66,91.8,62.82,83.92c-2.62-6.39-5.82-15.4-.3-23s18.6-11.33,24.42-9.59,1.16,8.14,1.16,8.14S71,87.12,74.73,96.42Z"/><path class="cls-17" d="M77,52.16s-7-2.85-17.6,9.9c-5.44,6.56-6.8,12.23-6.8,12.23s.3,15.47,10.45,22.53c8.5,5.92,13,7.07,13,7.07s-3-19.17,2.58-30S84.21,48.57,77,52.16Z"/><circle class="cls-18" cx="88.15" cy="85.36" r="4.71"/><circle class="cls-19" cx="103.4" cy="79.02" r="4.71"/><path class="cls-20" d="M95.6,77.88s.87,4.37,3.06,5.68"/><circle class="cls-21" cx="87.19" cy="77.34" r="1.75"/><circle class="cls-21" cx="100.3" cy="72.53" r="1.75"/><path class="cls-17" d="M95.16,69.14c.66,0,2.62-4.37,6.78-2.62"/><path class="cls-22" d="M92.1,90.56c1.1-.22,5.47-.22,7.65-2.41"/><path class="cls-13" d="M114.18,124.49a1.9,1.9,0,0,0-.31-.62,11.08,11.08,0,0,0-.33-1.29,10.88,10.88,0,0,0-.34-4.65,2.1,2.1,0,0,0-.17-1.24,5.94,5.94,0,0,0-6.82-3.1,1.88,1.88,0,0,0-1.11,2.73c.27.55.55,1.09.83,1.62a5.29,5.29,0,0,0-1,2.24,23.82,23.82,0,0,0-.31,3.07,59.32,59.32,0,0,1-10.74.55,44.46,44.46,0,0,1-4.45-.47,1.89,1.89,0,0,0-1.65-.82c.79-1.28-.36-3.46-2.06-2.82l-.89.35A1.87,1.87,0,0,0,83.47,119l.82-.52c2-1.3.17-4.48-1.87-3.21l-.7.44A1.82,1.82,0,0,0,79,114.4l-1.18.68h0a1.68,1.68,0,0,0,.56-.88,1.87,1.87,0,0,0-1.29-2.29,11.12,11.12,0,0,0-6,.57c-1.63.65-3.4,1.69-4,3.4-1.41,1.42-1.73,3.71-1.67,5.68a24.44,24.44,0,0,0,.75,5.11c0,.2.07.4.11.6a1.88,1.88,0,0,0-.32.65,13,13,0,0,0-.4,2,10.11,10.11,0,0,0-.45,6.36,16.1,16.1,0,0,0,2.8,5.76,1.72,1.72,0,0,0-1.14.84c-1.67,2.82,1.26,5,3.21,6.59l2,1.61a1.78,1.78,0,0,0-.06,1.1c.66,2.56,3.2,3.62,5.6,3.34a1.93,1.93,0,0,0,2,.19,3.76,3.76,0,0,0,1.71.27,4.18,4.18,0,0,0,1.6-.43l.84,0a51.9,51.9,0,0,0,6.47.5,2,2,0,0,0,.44.09,44.75,44.75,0,0,0,11.73-.55,17.54,17.54,0,0,0,4.88-1.38,7.67,7.67,0,0,0,4.43-2.93,1.47,1.47,0,0,0,.24-.63,1.88,1.88,0,0,0,.54-1.53,2.3,2.3,0,0,0-.59-1.31,42.7,42.7,0,0,0,2-5.37c.7-2.35,1.68-5.29.08-7.42A20,20,0,0,0,114.18,124.49Zm-9.54,7.24c0,1.32.08,2.64.16,4a2,2,0,0,0,1.59,1.8l.08.09a18.74,18.74,0,0,0,.12,3.51,2.23,2.23,0,0,0,.37.94c-.49,1-1,2.08-1.41,3.14a3.32,3.32,0,0,0-1.12-.3,3.86,3.86,0,0,0-2.3-1.72,5.35,5.35,0,0,0-1-.18,4.13,4.13,0,0,0-1-1.14C101.89,138.6,103.17,135.11,104.64,131.73Zm-15.11-3.79a1.88,1.88,0,0,0-.44-.92l1.76.23Zm13.23-.74c-1.93,3.91-3.4,8.06-5.39,12-.29.57-.6,1.15-.93,1.72a7.06,7.06,0,0,0-1.41.4,2.28,2.28,0,0,0-.21-.51,2,2,0,0,0-.69-1.64,2.07,2.07,0,0,0-.34-2.17,2,2,0,0,0-.2-1.34,1.9,1.9,0,0,0-2.54-.66l-.11.05a1.43,1.43,0,0,0-1-.34,1.8,1.8,0,0,0-.2-1.62,1.51,1.51,0,0,0,.37-.95c.91-.57,1.82-1.15,2.72-1.74a1.83,1.83,0,0,0,.3-2.91l.74,0A56.86,56.86,0,0,0,102.76,127.2Z"/></g></g></svg>