<svg xmlns="http://www.w3.org/2000/svg" xmlns:xlink="http://www.w3.org/1999/xlink" viewBox="0 0 437.14 182.4"><defs><style>.cls-1,.cls-17{fill:none;}.cls-2,.cls-3,.cls-4,.cls-5{opacity:0.25;}.cls-2{fill:url(#linear-gradient);}.cls-3{fill:#3bdb80;}.cls-4{fill:url(#linear-gradient-2);}.cls-11,.cls-5,.cls-6{fill:#fff;}.cls-6{font-size:38.73px;font-family:DINPro-Regular, DINPro;}.cls-7{letter-spacing:-0.01em;}.cls-8{fill:#dcd650;}.cls-9{clip-path:url(#clip-path);}.cls-10{fill:#383428;}.cls-12{fill:#864f22;}.cls-13{fill:#f9cc8a;}.cls-14{fill:#e09b42;}.cls-15{fill:#f6de9e;}.cls-16{fill:#533313;}.cls-17{stroke:#6e6267;stroke-linecap:round;stroke-miterlimit:10;stroke-width:3px;}.cls-18{fill:url(#未命名漸層_20);}.cls-19{fill:url(#未命名漸層_20-2);}.cls-20{fill:url(#未命名漸層_20-3);}</style><linearGradient id="linear-gradient" y1="91.2" x2="437.14" y2="91.2" gradientUnits="userSpaceOnUse"><stop offset="0" stop-color="#5fc1d7"/><stop offset="1" stop-color="#80f08c"/></linearGradient><linearGradient id="linear-gradient-2" x1="170.15" y1="98.79" x2="421.6" y2="98.79" xlink:href="#linear-gradient"/><clipPath id="clip-path"><circle class="cls-1" cx="87.08" cy="91.19" r="62.62"/></clipPath><linearGradient id="未命名漸層_20" x1="2798.16" y1="4448.7" x2="2807.57" y2="4448.7" gradientTransform="translate(-4380.47 2885.33) rotate(-90)" gradientUnits="userSpaceOnUse"><stop offset="0" stop-color="#ff8148" stop-opacity="0"/><stop offset="1" stop-color="#ff8148"/></linearGradient><linearGradient id="未命名漸層_20-2" x1="2798.16" y1="4469.19" x2="2807.57" y2="4469.19" xlink:href="#未命名漸層_20"/><linearGradient id="未命名漸層_20-3" x1="77.64" y1="89.2" x2="83.54" y2="89.2" gradientTransform="matrix(1, 0, 0, 1, 0, 0)" xlink:href="#未命名漸層_20"/></defs><title>game</title><g id="圖層_3" data-name="圖層 3"><rect class="cls-2" width="437.14" height="182.4"/><rect class="cls-3" x="170.15" y="124.23" width="251.45" height="21.98"/><rect class="cls-4" x="170.15" y="87.8" width="251.45" height="21.98"/><polygon class="cls-5" points="286.68 87.8 297.97 109.78 420.56 109.78 420.56 87.8 286.68 87.8"/><polygon class="cls-5" points="303.5 124.23 314.8 146.21 420.56 146.21 420.56 124.23 303.5 124.23"/><text class="cls-6" transform="translate(184.22 66.11)">E<tspan class="cls-7" x="23.24" y="0">v</tspan><tspan x="40.16" y="0">a</tspan></text><circle class="cls-8" cx="86.18" cy="90.75" r="62.62"/><g class="cls-9"><path class="cls-10" d="M61.54,67.72s-2.29,31,17.51,38.2C123.87,122.34,93.15,49.05,61.54,67.72Z"/><path class="cls-11" d="M63.43,141.16a17.42,17.42,0,0,0,.39,2.91c12-.42,23.91.92,35.87,1.46.27-15.95,7.4-41.48,6.47-42.18-1.32-1-15.44-1.28-22.64-1s-19.07,3.27-19.07,3.27C65.29,110.87,63.07,129,63.43,141.16Z"/><path class="cls-12" d="M78.91,77.76a3,3,0,0,1-1.29,1.63,27.68,27.68,0,0,0-5.09,4.41c-.24.6-.47,1.21-.7,1.82A72.13,72.13,0,0,1,79.44,82C79.3,80.53,79.12,79.12,78.91,77.76Z"/><polygon class="cls-13" points="79.59 102.79 80.28 80.47 89.53 79.58 89.78 102.32 85.11 104.61 79.59 102.79"/><path class="cls-13" d="M61.54,67.72c-1.79,12.71,5.51,27.51,16.72,29.11C93.09,99,102.52,84.07,104.31,71.36s-7.58-23.17-20.2-25S63.33,55,61.54,67.72Z"/><path class="cls-13" d="M97.61,73.9c-.65,3-.31,5.09,1.6,5.51S104.85,78,105.5,75s-.38-5.74-2.29-6.16S98.26,70.92,97.61,73.9Z"/><path class="cls-14" d="M67.19,175.31s-5.53-26,2.94-31.68,25.64.11,28.46,3.43,6.7,25.88,5.76,30.14S72.36,181.94,67.19,175.31Z"/><polygon class="cls-11" points="67.78 146 82.36 135.1 96.47 143.15 98.11 149.38 67.78 150.73 67.78 146"/><path class="cls-15" d="M69.45,157.13Zm0-1.42s6.58-.24,13.46-.54h0c6.84-.29,14.12-.66,15.12-.87h0l.28,1.39c-1.35.26-8.43.6-15.34.9h0c-6.83.3-13.36.53-13.47.54h0l0-1.42Z"/><path class="cls-15" d="M82.65,175.18c0-.1-.05-.15-.07-.21h0a2.47,2.47,0,0,1-.06-.29h0c0-.2-.07-.46-.11-.79h0c-.07-.66-.17-1.58-.28-2.69h0c-.21-2.22-.46-5.18-.71-8.16h0c-.49-6-.94-12-.94-12.55h1.41c0,.46,1,13.12,1.59,19.88h0c0,.38.06.74.1,1.09h0c1-3.41,2.53-8.85,2.52-12.69h0a9.63,9.63,0,0,0-.19-2.06h0l1.37-.44a12.36,12.36,0,0,1,.23,2.5h0c0,6.15-3.24,15.12-3.54,16.26h0l0,.05,0,0a.68.68,0,0,1-.08.17h0a.7.7,0,0,1-.56.33h0a.73.73,0,0,1-.64-.45Z"/><path class="cls-15" d="M67.27,168.73c3.35-.19,5.08-2.08,6.15-4.49h0a18.26,18.26,0,0,0,1.22-6.89h0c0-.84,0-1.34,0-1.34h0l1.4-.13s0,.58.06,1.47h0a19.87,19.87,0,0,1-1.35,7.46h0a8.15,8.15,0,0,1-7.37,5.34h0l-.07-1.42Z"/><path class="cls-15" d="M92.46,163.26a16.67,16.67,0,0,1-1.24-6.72h0c0-1.11.08-1.84.08-1.86h0l1.4.16s-.07.66-.07,1.7h0a15.69,15.69,0,0,0,1.11,6.13h0a5.44,5.44,0,0,0,5.3,3.49h0l.68,0h0l.1,1.42-.78,0H99a6.86,6.86,0,0,1-6.52-4.32Z"/><path class="cls-16" d="M73.89,103.36s-1.12,23.7-.47,29.84c1.41,13.27-5.74,60.92-4.82,64.49s-10.59-4.08-12-6.93,4.59-51.87,4.59-54.24-1.3-26.06-.36-27.48S74.83,102.88,73.89,103.36Z"/><path class="cls-16" d="M94,104.78s.15,27.24-.32,33.4,9.22,57.53,8.3,61.1,9.9-6.39,11.31-9.23-6.59-49.74-6.59-52.11,0-28.9-.94-30.32S93,104.31,94,104.78Z"/><path class="cls-16" d="M110.06,156.87a19.44,19.44,0,0,0,5.35,1,5.3,5.3,0,0,1,2.74-1,6.59,6.59,0,0,0,3.23-1.49,9.77,9.77,0,0,0,2.37-3.46c-2.42-14.54-9.24-46-11.4-49.26s-15.52.71-16.23,1.42c-4.2,4.23,7.8,38.26,11.18,51A18.08,18.08,0,0,0,110.06,156.87Z"/><path class="cls-12" d="M93.37,105.25s5.64-.47,7.52.48,4.71,6.15,4.24,6.63-8,4.74-8,4.74,10.35,3.31,11.29,5.68S95.24,154.7,95.24,154.7,90.07,122.31,93.37,105.25Z"/><path class="cls-10" d="M60.73,72.67c.26,1.88,8.93-15.41,12.66-17.05s4.7-10.32,4.7-10.32S69,45.76,67,47.5,58.35,54.9,60.73,72.67Z"/><path class="cls-10" d="M85.68,66.62a24,24,0,0,1,4.72-.54,25.75,25.75,0,0,1,3.79.51l-.51,1a14.42,14.42,0,0,1-2.89.14,20.52,20.52,0,0,0-4.63.73Z"/><path class="cls-10" d="M73,67.13a24.22,24.22,0,0,0-4.73.53A27,27,0,0,0,64.72,69l.73.9a14,14,0,0,0,2.85-.51A20.9,20.9,0,0,1,73,69.06Z"/><path class="cls-13" d="M54.06,157.13c3.18.28,4.27,7.05,5.26,9.51L62.15,197l-5.09.17-5.4-29.33S51.49,156.9,54.06,157.13Z"/><path class="cls-16" d="M61.88,156.48c1.08-3.51,2.25-7.73,3.33-11.37-.12-5.93-.22-11.86-.26-17.81,0-7.42-1.75-11.91-3.52-19.07-6.57-.1-9,28.59-11.31,44.92-.8,5.74,1.77,28.27,1.77,28.27S62,181,65,179.47C65.72,179.12,60.55,160.75,61.88,156.48Z"/><path class="cls-12" d="M75.3,102.65s-6.94,1.18-8.82,2.13-4.82,5.21-4.35,5.68,8,4.74,8,4.74-10.35,3.32-11.29,5.69,13.64,32.45,13.64,32.45S78,118.81,75.3,102.65Z"/><path class="cls-10" d="M95.58,43.13c-7.13-3.45-11.14-.29-18.35,2.62-2.75,1.11-4.63,1.6-5.71,3.6v.44c.54,1.38-1.12,3.49-1.35,5.24,4.24,2.62,15.52,3.43,20.7,7C97.41,66.51,97,69.43,97,76.87c0,3.85.89,5.37-.47,8.3-1.69,3.62-3,4.51-2.61,8.73.17,1.78,1.67,3.47,1.83,5.27.18,2-.62,3-1.2,5.22-1,3.78-1,7.67,1.23,10.92,1.57,2.36,7.44,7,10,7.75-1.41-2.62-1.06-8.19-1.06-11.8,8.63-10.55,6.75-11,5.65-19-.53-3.81,5.83-13,6-16.7.19-4.27-7.31-14.42-7.41-15.4C107.93,50.34,98.06,44.33,95.58,43.13Z"/><circle class="cls-10" cx="85.59" cy="76.55" r="1.67"/><circle class="cls-10" cx="72.67" cy="76.55" r="1.67"/><path class="cls-17" d="M79,77.78s-1.35,4-2.34,5.22,2.67,1.34,2.67,1.34"/><circle class="cls-18" cx="68.23" cy="82.46" r="4.71"/><circle class="cls-19" cx="88.72" cy="82.46" r="4.71"/><path class="cls-20" d="M77.64,88.31s.88,3.5,5.9.66"/></g></g></svg>