<svg xmlns="http://www.w3.org/2000/svg" viewBox="0 0 117.32 98.47"><defs><style>.cls-1{fill:#fff;}</style></defs><title>game</title><g id="圖層_3" data-name="圖層 3"><path class="cls-1" d="M92.8,20.48H89.23a43.06,43.06,0,0,1,.67,5.91l0,.75H81l0-.69a28.77,28.77,0,0,0-.94-6H37.33a29.44,29.44,0,0,0-.95,6l0,.69h-9l0-.75a43.05,43.05,0,0,1,.68-5.91H24.53A24.52,24.52,0,0,0,0,45V73.94A24.53,24.53,0,0,0,24.53,98.47H92.8a24.52,24.52,0,0,0,24.52-24.53V45A24.52,24.52,0,0,0,92.8,20.48Z"/><path class="cls-1" d="M35.83,18.69c2-7.78,6.82-13.43,12.87-13.49H68.62c6,.06,10.91,5.71,12.86,13.49a29.67,29.67,0,0,1,.85,5.21h6.09a42.86,42.86,0,0,0-.65-5.21C85.66,7.74,79.15-.07,71.86,0H45.46c-7.3-.07-13.8,7.74-15.91,18.69a39.25,39.25,0,0,0-.64,5.21H35A30.64,30.64,0,0,1,35.83,18.69Z"/></g></svg>