<svg xmlns="http://www.w3.org/2000/svg" xmlns:xlink="http://www.w3.org/1999/xlink" viewBox="0 0 426.03 431.5"><defs><style>.cls-1{fill:url(#radial-gradient);}.cls-2{fill:url(#radial-gradient-2);}.cls-3{fill:none;}.cls-4{isolation:isolate;}.cls-5{clip-path:url(#clip-path);}.cls-6{clip-path:url(#clip-path-2);}.cls-11,.cls-7{mix-blend-mode:overlay;}.cls-8{clip-path:url(#clip-path-3);}.cls-9{mask:url(#mask);}.cls-10{mask:url(#mask-2);}.cls-11{fill:#a7a9ac;}.cls-12{fill:#fff;}.cls-13{fill:#454868;}</style><radialGradient id="radial-gradient" cx="-241.01" cy="36370.96" r="1110.84" gradientTransform="matrix(0.72, 2.99, 2.5, -0.18, -92041.6, 10465.49)" gradientUnits="userSpaceOnUse"><stop offset="0" stop-color="#fff"/><stop offset="1" stop-color="#020000"/></radialGradient><radialGradient id="radial-gradient-2" cx="-302.04" cy="36520.57" r="1110.82" xlink:href="#radial-gradient"/><clipPath id="clip-path"><rect class="cls-3" x="-1735.48" y="872" width="1080" height="1923"/></clipPath><clipPath id="clip-path-2"><path class="cls-3" d="M-150.49,3255.33c-1.48,24.68-3.27,49.47-2.78,76.22C-150,3510.89-191.5,3634-285,3788.48c-177.26,292.69-495.33,482-836.41,502.49q-32.24,1.94-64.55,1.93c-579.07,0-1048.49-462.56-1048.49-1033.16S-1765.08,2226.58-1186,2226.58a1063.86,1063.86,0,0,1,357.37,61.57c55.33,19.76,106,46.72,158.82,72,59.2,28.39,100.92,39.34,155.61,77.76,31.86,22.39,49.82,22,68.28,58.28,15.41,30.29,5.09,63.39,31.59,90.73,30.15,31.1,57.48,45.75,84.74,78.87,25.07,30.47,58.46,60,84.76,90.79,59.47,69.61,88.79,135,78.61,222.68-6.68,57.51,11.48,136.57,16.24,195.21C-147.7,3202.81-148.92,3229-150.49,3255.33Z"/></clipPath><clipPath id="clip-path-3"><polygon class="cls-3" points="-3081.35 1662.43 -2452.49 4586.81 304.05 4476.83 -324.7 1552.47 -3081.35 1662.43"/></clipPath><mask id="mask" x="-4164.86" y="-205.43" width="5784.88" height="6659.85" maskUnits="userSpaceOnUse"><path class="cls-1" d="M-480.24,6448.62c1536.18-104.63,2426.31-1678,1988.92-3515C1069.64,1096-527.16-307.22-2062.14-199.64-3599-95.13-4490.89,1480.36-4053.78,3316.21-3615.6,5153.56-2015.33,6556.2-480.24,6448.62Z"/></mask><mask id="mask-2" x="-3834.52" y="-415.3" width="5784.78" height="6659.74" maskUnits="userSpaceOnUse"><path class="cls-2" d="M-149.94,6238.64c1536.12-104.53,2426.31-1677.89,1988.82-3515C1399.89,886.07-196.81-517.18-1731.89-409.49-3268.61-305-4160.59,1270.46-3723.43,3106.3-3285.24,4943.65-1685,6346.27-149.94,6238.64Z"/></mask></defs><title>logo</title><g class="cls-4"><g id="圖層_2" data-name="圖層 2"><g class="cls-5"><g class="cls-6"><g class="cls-7"><g class="cls-8"><g class="cls-9"><path class="cls-7" d="M-480.24,6448.62c1536.18-104.63,2426.31-1678,1988.92-3515C1069.64,1096-527.16-307.22-2062.14-199.64-3599-95.13-4490.89,1480.36-4053.78,3316.21-3615.6,5153.56-2015.33,6556.2-480.24,6448.62Z"/></g><g class="cls-10"><path class="cls-11" d="M-149.94,6238.64c1536.12-104.53,2426.31-1677.89,1988.82-3515C1399.89,886.07-196.81-517.18-1731.89-409.49-3268.61-305-4160.59,1270.46-3723.43,3106.3-3285.24,4943.65-1685,6346.27-149.94,6238.64Z"/></g></g></g></g></g><path class="cls-12" d="M20.43,396.73V384.15c2.88,0,4.32-1.11,4.32-3.31q0-3-3.3-3T18.11,382v31.36H3.83V383.44a26,26,0,0,1,.93-7.61A15.42,15.42,0,0,1,8,370.29a18,18,0,0,1,6.32-4.5,19.49,19.49,0,0,1,7.84-1.65,16.79,16.79,0,0,1,12.29,4.92,16.49,16.49,0,0,1,5,12.2,15.36,15.36,0,0,1-4.47,11.46q-4.08,4-12.3,4Z"/><path class="cls-12" d="M68,364.14a23.7,23.7,0,0,1,17.49,7.42,25.19,25.19,0,0,1-17.91,43A25.2,25.2,0,0,1,42.4,389.31a24.09,24.09,0,0,1,7.43-17.85A25,25,0,0,1,68,364.14Zm-.42,14.14a10,10,0,0,0-7.49,3.23,11.36,11.36,0,0,0,0,15.61,10.32,10.32,0,0,0,15,0,11.48,11.48,0,0,0,0-15.65A10,10,0,0,0,67.61,378.28Z"/><path class="cls-12" d="M98.54,365.34h14.28v28.51c0,2.23.35,3.71,1.07,4.45s2.13,1.1,4.23,1.1h.74v13.93h-3.79q-7.81,0-12.17-4.56t-4.36-12.64Z"/><path class="cls-12" d="M141.08,389.24V401.9H137v11.43H122.7V382.81q0-8.87,4.83-13.76t13.59-4.91q8.43,0,12.48,4.45t4,13.73v31H143.37V383.27a8.07,8.07,0,0,0-.67-3.9,2.57,2.57,0,0,0-2.39-1.09q-3.34,0-3.34,5v6Z"/><path class="cls-12" d="M180.56,378.24v35.09H166.29v-48h18.32q8.35,0,13,4.15a15.18,15.18,0,0,1,5.13,11.77q0,7.29-6.36,12.27l8.22,19.8h-15l-6.93-15.47V385.52h1.13q4.5,0,4.5-3.87,0-3.4-5.21-3.41Z"/><path class="cls-12" d="M242.82,417.76v-4.19a24.39,24.39,0,0,1-13.37-9,24.89,24.89,0,0,1-5-15.4,23.69,23.69,0,0,1,8.72-18.95,24.81,24.81,0,0,1,16.48-6.12q11.92,0,19.24,8.62a24.12,24.12,0,0,1,5.9,16.06,26.13,26.13,0,0,1-5.24,16,23.64,23.64,0,0,1-13.15,8.75v4.19Zm.5-24.68h12.62v5.38a11.6,11.6,0,0,0,4.22-9.18,10.85,10.85,0,0,0-3.13-7.74,10,10,0,0,0-14.8,0,10.8,10.8,0,0,0-3.13,7.74,11.31,11.31,0,0,0,4.22,9.18Z"/><path class="cls-12" d="M315.25,365.34v31.11q0,8.24-4.91,13.15t-13.06,4.92q-8.11,0-12.43-4.78T280.55,396V365.34h14.27V396q0,4.4,3.13,4.39t3-4.39V365.34Z"/><path class="cls-12" d="M349.52,384v10.68h-9.31a4.73,4.73,0,0,0-2.69.57,2.75,2.75,0,0,0,0,3.88,7.38,7.38,0,0,0,3.3.48h9.6v13.71H339.22q-7.91,0-12.09-3.78T323,398.63V379.82q0-6.88,3.95-10.69T338,365.34h12.41v13.78h-9.11q-3.69,0-3.69,2.39a2.09,2.09,0,0,0,.88,1.95,6.42,6.42,0,0,0,3.13.55Z"/><path class="cls-12" d="M381.16,365.13V378.8a8,8,0,0,0-2.39-.52,3.71,3.71,0,0,0-2.77,1.19,4,4,0,0,0-1.16,2.88A7.94,7.94,0,0,0,376.1,386l1.09,1.9a19.86,19.86,0,0,1,2.95,9.91,15.89,15.89,0,0,1-5,11.85A16.77,16.77,0,0,1,363,414.52a16,16,0,0,1-6.82-1.58V399.05a7,7,0,0,0,3.62,1.3,4.6,4.6,0,0,0,3.12-1.07,3.39,3.39,0,0,0,1.24-2.69c0-.7-.66-2.24-2-4.6a22.61,22.61,0,0,1-3.2-11.25,16.07,16.07,0,0,1,4.83-11.69,15.68,15.68,0,0,1,11.55-4.91A17.5,17.5,0,0,1,381.16,365.13Z"/><path class="cls-12" d="M409.29,379.12v34.21H395V379.12H384.08V365.34h36.11v13.78Z"/><polygon class="cls-12" points="212.86 269.25 267.18 248.16 321.49 118.24 213.02 0 104.54 118.24 158.7 248.16 212.86 269.25"/><polygon class="cls-12" points="212.8 306.06 133.6 275.22 56.43 169.98 62.23 168 138.52 272.06 212.8 300.98 287.3 272.05 363.81 168 369.6 169.98 292.21 275.23 212.8 306.06"/><polygon class="cls-13" points="212.94 168.84 241.76 208.73 270.58 139.79 213.02 77.05 155.45 139.79 184.19 208.73 212.94 168.84"/><rect class="cls-12" x="289.75" y="271.43" width="36.66" height="4.41"/><rect class="cls-12" x="99.19" y="271.43" width="36.66" height="4.41"/></g></g></svg>