<svg id="圖層_1" data-name="圖層 1" xmlns="http://www.w3.org/2000/svg" xmlns:xlink="http://www.w3.org/1999/xlink" viewBox="0 0 208.21 208.21"><defs><style>.cls-1,.cls-9{fill:none;}.cls-2{fill:#d656d6;}.cls-3{clip-path:url(#clip-path);}.cls-4{fill:#ead039;}.cls-5{fill:#fff;}.cls-6{fill:#efcba8;}.cls-7{fill:#ffe6c5;}.cls-8{fill:#c28331;}.cls-9{stroke:#6e6267;stroke-linecap:round;stroke-miterlimit:10;stroke-width:3px;}.cls-10{fill:url(#未命名漸層_23);}.cls-11{fill:url(#未命名漸層_23-2);}.cls-12{fill:#4fc1bb;}</style><clipPath id="clip-path"><circle class="cls-1" cx="104.11" cy="104.11" r="104.11"/></clipPath><linearGradient id="未命名漸層_23" x1="4575.79" y1="-1285.71" x2="4590.68" y2="-1285.71" gradientTransform="translate(1841.06 4525.99) rotate(-95.84)" gradientUnits="userSpaceOnUse"><stop offset="0" stop-color="#ff8148" stop-opacity="0"/><stop offset="1" stop-color="#ffbc95"/></linearGradient><linearGradient id="未命名漸層_23-2" x1="4233.71" y1="-1409.14" x2="4248.6" y2="-1409.14" gradientTransform="translate(1534.5 4337.75) rotate(-90)" xlink:href="#未命名漸層_23"/></defs><title>members</title><circle class="cls-2" cx="104.11" cy="104.11" r="104.11"/><g class="cls-3"><path class="cls-4" d="M84.42,82.79,83,84.26a1.35,1.35,0,0,0-2-.58,58.5,58.5,0,0,0-8.21,6.77c-8,5.89-13.83,14.84-17.92,23.64-.83,1.79-1.79,3.73-2.54,5.7,4.85-2.2,9.75-4.29,14.75-6.13l.69-1.08q2.55-4,4.85-8.1l1-1.53,1.66-2.1A190.28,190.28,0,0,0,86.73,84.28C87.61,82.86,85.45,81.78,84.42,82.79Z"/><path class="cls-5" d="M175.15,229.91c0-.22,0-.43.07-.65l.57-5.24c.41-3.82.82-7.64,1.26-11.45s1-7.45,1.53-11.16a16.82,16.82,0,0,0-.34-2.48c.31,1.33,0,0-.09-.56s-.21-1.29-.32-1.93c-1.84-10.63-4.87-21-6.7-31.64-.63-3.63-1.2-7.28-1.8-10.92-.91-1.26-1.82-2.52-2.76-3.76-.79-1.06-1.6-2.11-2.42-3.15l-.23-.29-1-1.24c-1.65-2-3.35-3.92-5.13-5.77a72.05,72.05,0,0,0-5.62-5.3c-.49-.41-1-.82-1.49-1.21l-.18-.13c-.93-.54-1.79-1.23-2.72-1.77s-1.9-1-2.88-1.47a32.15,32.15,0,0,0-4.61-.71H140c-.3,0-.6,0-.9.08a5.63,5.63,0,0,1-1.93-.09,23.73,23.73,0,0,0-4.11.63c.16-.46.24-.71.24-.71l-35.84-4.73L74,131.08l-1.29-.18a15.08,15.08,0,0,0-4.15.6l-1.75.78q-2.16,1-4.28,2.05a102.91,102.91,0,0,0-16.57,10.08l-.09.07a5,5,0,0,1-.6.47c-.51.43-1,.86-1.53,1.31-1,.87-1.93,1.77-2.85,2.71s-2,2.08-2.87,3.19c-.38.47-1.59,2.42-.29.3-.3.49-.67.95-1,1.44a31.7,31.7,0,0,0-2,3.54c-.23.47-.4,1-.65,1.51l-.15.43a33.59,33.59,0,0,0-1.06,4.43c-.06.34-.1.69-.16,1v0c0,.69-.1,1.38-.13,2.07-.06,1.59,0,3.18,0,4.76.06.9.13,1.8.23,2.69.06.63.58,2.62.06.71.43,1.58.55,3.29.9,4.9s.77,3.27,1.21,4.89c.9,3.24,2,6.44,3.12,9.6.57,1.55,1.17,3.09,1.78,4.62.3.75.61,1.49.92,2.24.11.25.22.5.32.76a.05.05,0,0,1,0,0,12.18,12.18,0,0,1,1,2.33c.27.61.55,1.22.82,1.82.63,1.37,1.25,2.74,1.91,4.09,1.76,3.57,3.47,7.15,5.16,10.76,1.78,3.82,3.54,7.66,5.34,11.47,4.34,4.91,8.73,9.74,12.68,15,.32.41.63.88,1,1.36,1.41,1.17,2.8,2.36,4.15,3.6a42.63,42.63,0,0,0,7,3.33c6.66,2.51,14.18,2.6,21.22,2.94a164.82,164.82,0,0,0,19.88,0,87.12,87.12,0,0,0,20.89-3.68,77.28,77.28,0,0,0,11-4.59c.86-.45,1.7-.92,2.51-1.42,3.23-3.32,6.63-6.45,10.15-9.47,2.08-1.78,4.19-3.53,6.3-5.28C173.19,233,174.2,231.46,175.15,229.91Z"/><path class="cls-5" d="M115.16,103.62c-.43-.12-.93-.24-1.46-.37a4.49,4.49,0,0,0,.13-.85Z"/><path class="cls-6" d="M105.62,130.33a29.84,29.84,0,0,0,8.51-3.46l.06-25.46L86.12,102l.7,25.47C91.33,131,101.63,131.27,105.62,130.33Z"/><path class="cls-7" d="M137,86.73c-.69,11.43-10.4,30.51-29.43,27.7C77.46,110,72.82,97.55,72.29,75.71c-.55-22.06,5.87-39.41,26.93-39.5C131.46,36.09,139.4,46.5,137,86.73Z"/><path class="cls-7" d="M80,79.73c2.39,5.27,2.54,9.34-1,10.93s-11.37-.31-13.75-5.58-1.47-10.82,2.05-12.42S77.58,74.46,80,79.73Z"/><path class="cls-4" d="M110.47,62.76a30.63,30.63,0,0,0-8.22-.53A34.44,34.44,0,0,0,95.82,64l1.56,3.51s2.82-.3,5.64-.75a22.06,22.06,0,0,1,6.93.55Z"/><path class="cls-4" d="M117.3,62.09a30.23,30.23,0,0,1,8.18-.93A33.84,33.84,0,0,1,132,62.64l-1.39,3.58s-2.83-.16-5.66-.48a22.28,22.28,0,0,0-6.9.88Z"/><path class="cls-8" d="M66.1,39l-.66.87-.13.23q.45-.64.93-1.26Z"/><path class="cls-4" d="M136.55,39.51a6.8,6.8,0,0,0-.16-1,4.83,4.83,0,0,0-4.33-3.77,1.13,1.13,0,0,0-.32,0c-10.62-4.18-22.2-4.78-33.5-4.09A106.33,106.33,0,0,0,82.52,32.4a17.63,17.63,0,0,0-7.76,3.45c-.93.53-1.86,1.08-2.77,1.66a37.17,37.17,0,0,0-3.18,3.7c-.87,4.64-1.94,9.25-2.51,13.94,0,.31-.07.61-.11.92a57,57,0,0,0-.08,6.79c0,.17.08.34.13.51.33,1.24.72,2.48,1.16,3.71C69,69,70.54,70.89,72.23,72.69c1.51.22,3,.48,4.53.75,1.64,0,3.29.15,4.93.29.12-1,.23-2,.36-2.91s.55-4.28,1.24-8a24.59,24.59,0,0,1,.24-10.68,9.29,9.29,0,0,1,4-5.94c2.47-1.42,5.36-1,7.92-.06a.72.72,0,0,1,.47.48,29.45,29.45,0,0,1,5.32,1.2c1.31.29,2.63.58,3.94.84.49,0,1,0,1.48,0l5.14-.86a32,32,0,0,0,8.41.1c2.83-.37,5.76-1.57,8.63-1.21,1.48.19,2.82,1.6,4.25,2.12a7.44,7.44,0,0,1,.52.73.75.75,0,0,1,.53.52,5.39,5.39,0,0,1,.16,1,9,9,0,0,1,.23.93.74.74,0,0,1-.26.68,1.11,1.11,0,0,0,.91-1c0-.12,0-.24.05-.37h0c0-.27,0-.54,0-.81a8.91,8.91,0,0,0,1.83-4.73A18.32,18.32,0,0,0,136.55,39.51Z"/><polyline class="cls-9" points="109.78 79.8 118.27 94.35 106.15 93.89"/><circle class="cls-10" cx="95.71" cy="97.35" r="7.44"/><circle class="cls-11" cx="125.36" cy="96.6" r="7.44"/><path class="cls-9" d="M102.34,99.54c1.21-.17,13,.17,16.27-1"/><circle class="cls-9" cx="97.64" cy="78.84" r="8.48"/><circle class="cls-9" cx="123.26" cy="77.11" r="8.48"/><line class="cls-9" x1="105.11" y1="76.74" x2="116.19" y2="76.47"/><line class="cls-9" x1="132.1" y1="76.04" x2="138.11" y2="75.77"/><line class="cls-9" x1="76.96" y1="73.02" x2="87.36" y2="77.34"/><circle class="cls-12" cx="97.32" cy="78.25" r="1.9"/><circle class="cls-12" cx="121.38" cy="77.21" r="1.9"/><path class="cls-5" d="M136.67,152.17c-1.11-3.43-3.38-7.39-6.84-8.9l-24.45-10.61c-5.34-2.31-10.49-5-16.31-5.75a26.37,26.37,0,0,0-10.46.55,7.58,7.58,0,0,1-.84.36c-2.58,1-5.15,2-7.69,3-.14.09-.29.19-.42.29-3.22,2.4-5.74,4.87-6.84,8.9-.06.21-.11.42-.16.63-6.82,3.69-9.46,13.79-5.25,20.32a15.23,15.23,0,0,0,20.37,5.34,66.49,66.49,0,0,0,12-8.19c8.33,3.59,16.64,7.24,25,10.86a11.11,11.11,0,0,0,5.53,1.76,11.22,11.22,0,0,0,5.94-.26,15.24,15.24,0,0,0,8.9-6.85C137,160.19,137.91,156,136.67,152.17Z"/><path class="cls-12" d="M157.77,139.67c-1.18-1.23-2.39-2.42-3.65-3.57q-36.21-.53-72.39-2.08c-5.64-.24-11.29-.52-16.94-.8-.76.36-1.53.73-2.28,1.11q-3.15,1.57-6.23,3.31,47.11,2.51,94.3,3.26L159,141Z"/><path class="cls-12" d="M169.33,153.89c-.91-1.26-1.82-2.52-2.76-3.77l-.16-.21q-17.9-.12-35.8-.35-35-.45-70-1.26L42,147.83c-.39.37-.78.75-1.16,1.14q-1.5,1.53-2.87,3.19c-.07.09-.18.24-.29.41q26.79.72,53.59,1.22,35,.65,70,.94l8.17.05Z"/><path class="cls-12" d="M171.32,165.85q-16.24.36-32.48.44-39.32.19-78.63-1.17-13.69-.48-27.38-1.15c0,.29-.09.58-.14.87v0c0,.69-.1,1.38-.13,2.07s0,1.23,0,1.84q31.07,1.51,62.16,2.07,38.78.66,77.57-.18C171.92,169.08,171.61,167.47,171.32,165.85Z"/><path class="cls-12" d="M174.05,178.77q-18.24,1-36.49,1.7-37.12,1.31-74.29.89-14.66-.17-29.29-.59c.31,1.39.66,2.77,1,4.14.07.25.15.49.22.74q30.18.85,60.37.59,37.16-.33,74.26-2.37l5.3-.31Z"/><path class="cls-12" d="M178.32,203.18c.09-.59.17-1.18.26-1.77a16.82,16.82,0,0,0-.34-2.48c.31,1.33,0,0-.09-.56v0q-18.15.22-36.31.3-37.87.09-75.75-1.14-13.62-.45-27.23-1.07.51,1.35,1,2.7c.3.75.61,1.49.92,2.24h0q29.14,1.29,58.31,1.8c25.2.44,50.41.36,75.61.05Z"/><path class="cls-12" d="M114.4,30.58c-1.06-5.14-7.66-5.88-12.35-6.1q-3.08-.6-6.18-.95c-1.48-.16-3-.27-4.45-.33a19.18,19.18,0,0,0-3.71,0,67.88,67.88,0,0,0-8.66.72,2.16,2.16,0,0,0-2.12-2.25A4.94,4.94,0,0,0,73,20.58a5,5,0,0,0-3.64,1.85A3.94,3.94,0,0,0,69,26.6a3.23,3.23,0,0,0,.64.82,12.82,12.82,0,0,0-5,4,6.64,6.64,0,0,0-.8,1.54c-2,3.78-1.85,8.61,2.32,11.06a6.16,6.16,0,0,0,2.4.81l.21.07a3.78,3.78,0,0,0,1,.13,2.14,2.14,0,0,0,2.65,1.06L98.26,39c2.55-.1,5.09-.27,7.61-.53,3-.31,6.46-1.16,7.72-4.08A4.21,4.21,0,0,0,114.4,30.58Z"/></g></svg>