<svg id="圖層_1" data-name="圖層 1" xmlns="http://www.w3.org/2000/svg" xmlns:xlink="http://www.w3.org/1999/xlink" viewBox="0 0 208.21 208.21"><defs><style>.cls-1,.cls-15,.cls-17{fill:none;}.cls-2{clip-path:url(#clip-path);}.cls-3{fill:#fff;}.cls-4{fill:#4fc1bb;}.cls-5{fill:#6dd6bc;}.cls-6{clip-path:url(#clip-path-2);}.cls-7{fill:#91260c;}.cls-8{fill:#b51429;}.cls-9{fill:#f7c178;}.cls-10{fill:#dc1a31;}.cls-11{fill:#f9cc8a;}.cls-12{fill:#c98933;}.cls-13{fill:url(#未命名漸層_20);}.cls-14{fill:url(#未命名漸層_20-2);}.cls-15{stroke:#6e6267;}.cls-15,.cls-17{stroke-linecap:round;stroke-miterlimit:10;stroke-width:3px;}.cls-16{fill:#7c4b12;}.cls-17{stroke:#c98933;}</style><clipPath id="clip-path"><circle class="cls-1" cx="102.96" cy="-140.01" r="104.11"/></clipPath><clipPath id="clip-path-2"><circle class="cls-1" cx="104.11" cy="104.11" r="104.11"/></clipPath><linearGradient id="未命名漸層_20" x1="3993.27" y1="-1671.65" x2="4008.92" y2="-1671.65" gradientTransform="translate(1777.47 4092.5) rotate(-90)" gradientUnits="userSpaceOnUse"><stop offset="0" stop-color="#ff8148" stop-opacity="0"/><stop offset="1" stop-color="#ff8148"/></linearGradient><linearGradient id="未命名漸層_20-2" x1="3527.41" y1="4368.45" x2="3543.06" y2="4368.45" gradientTransform="translate(4821 3177.13) rotate(162.42)" xlink:href="#未命名漸層_20"/></defs><title>members</title><g class="cls-2"><path class="cls-3" d="M174-14.2c0-.22.05-.43.07-.65l.57-5.24q.6-5.73,1.26-11.46c.44-3.73,1-7.44,1.53-11.15a18.28,18.28,0,0,0-.34-2.48c.31,1.32,0,0-.09-.56s-.21-1.29-.32-1.93c-1.84-10.63-4.87-21-6.7-31.64-.63-3.64-1.2-7.28-1.8-10.92-.91-1.26-1.82-2.52-2.76-3.76-.8-1.06-1.6-2.11-2.42-3.15-.08-.1-.15-.2-.23-.29l-1-1.24c-1.65-2-3.35-3.92-5.13-5.78a76.05,76.05,0,0,0-5.62-5.3c-.49-.4-1-.81-1.49-1.2l-.18-.14c-.93-.53-1.79-1.22-2.72-1.76s-1.9-1-2.88-1.47a30.81,30.81,0,0,0-4.61-.71l-.24,0-.9.08a5.7,5.7,0,0,1-1.94-.08,24.76,24.76,0,0,0-4.1.62c.15-.45.24-.7.24-.7l-35.84-4.74L72.84-113l-1.29-.18a15,15,0,0,0-4.15.6l-1.75.78q-2.16,1-4.28,2A102.2,102.2,0,0,0,44.8-99.7l-.09.07s-.07.07-.6.47-1,.86-1.53,1.31c-1,.87-1.93,1.77-2.85,2.71s-2,2.08-2.87,3.19c-.38.47-1.59,2.42-.29.29-.3.5-.67,1-1,1.44a34.43,34.43,0,0,0-2,3.55c-.23.47-.41,1-.65,1.51l-.15.43a33.59,33.59,0,0,0-1.06,4.43c-.06.34-.11.69-.16,1v0c0,.7-.1,1.39-.13,2.08-.06,1.59,0,3.18,0,4.76.06.9.13,1.79.23,2.69.06.62.58,2.62.06.71.43,1.58.55,3.29.9,4.89s.77,3.28,1.21,4.9c.9,3.24,2,6.44,3.12,9.6.57,1.55,1.16,3.08,1.78,4.61.3.75.61,1.5.92,2.25.11.25.22.5.32.76l0,0a12.36,12.36,0,0,1,1,2.32l.82,1.83c.62,1.37,1.25,2.74,1.91,4.08Q46.4-28.37,48.93-23c1.78,3.82,3.54,7.65,5.34,11.47C58.61-6.58,63-1.75,67,3.48c.32.41.63.88,1,1.35C69.31,6,70.7,7.2,72.05,8.43a41.82,41.82,0,0,0,7,3.33c6.66,2.52,14.18,2.61,21.21,3a165,165,0,0,0,19.89,0A87.61,87.61,0,0,0,141,11.07a77.28,77.28,0,0,0,11-4.59c.86-.45,1.69-.92,2.51-1.42,3.23-3.32,6.63-6.46,10.15-9.47,2.08-1.78,4.19-3.53,6.3-5.28C172.05-11.15,173.06-12.66,174-14.2Z"/><path class="cls-4" d="M160-.23q-41.17,1-82.37.84-6.48,0-13-.1c.78,1,1.56,2,2.32,3,.32.41.63.88,1,1.35l.66.56q43.13.35,86.25-.64C156.48,3,158.2,1.39,160-.23Z"/></g><circle class="cls-5" cx="104.11" cy="104.11" r="104.11"/><g class="cls-6"><path class="cls-7" d="M102.68,37.71h1.61A12.36,12.36,0,0,0,102.68,37.71Z"/><path class="cls-3" d="M175,88l-1.52-.07a5.09,5.09,0,0,0,0-.87Z"/><path class="cls-8" d="M119.2,134.32,98.33,200.7l7.11,3.45,11.6,1.79,27-61.13S125.82,126.63,119.2,134.32Z"/><path class="cls-9" d="M133.69,134.12c.18,0,9.13,2.77,11.1,8,1.17,3.09,1.61,23.43,1.61,23.43l-1.77,43.78s-11.21-47.07-16-52.14C125.23,153.56,125.55,130.86,133.69,134.12Z"/><path class="cls-10" d="M138.86,153.61c.79-11.74,5-14.05,1.47-16.75,0,0-20.75-8.42-27.54-10.25-8.19-2.2-33.75,8.93-35.47,11.93-1.2,2.08,15.67,37.18,21.37,63.06.39,1.74-12.06,30.59-12.06,30.59s63.17-4.43,63.4-7c.53-5.87-12.44-24.72-13.19-28.84C134.56,183.85,137.89,168,138.86,153.61Z"/><path class="cls-9" d="M117.78,129.22,113.3,89.65l-14,1.46-2,37.63C103.27,132.55,114.34,134.46,117.78,129.22Z"/><path class="cls-10" d="M89.86,164.7c-1.13-7.59,21.73-7,29.4-2.36l3.77-.14c2.94-27,19.55-6.42,22.93,0,3.47,6.64,1.88,15.1-8.2,15.1-6.15,0-13.11-2.83-15.5-3.85-2.76,1.55-14.24,5.3-20.18,5.6-7.47.38-7.59-.12-7.59-.12A51,51,0,0,1,89.86,164.7Z"/><path class="cls-10" d="M146.57,213.2l-7.81-15.5.24-33.22s-16.36-2.95-25.55-2.77-26.07,2-25.14,3.75,9.73,34.7,9.26,35.74-7.17,14.22-7.17,14.22S147.35,218.17,146.57,213.2Z"/><path class="cls-11" d="M138.91,75c4.36,21.44-8.42,43.56-23.25,44-22.28.6-35.32-7.33-45.92-26.54-9.82-17.8-11.45-37.4,6.59-48C104,28.09,130.92,35.7,138.91,75Z"/><path class="cls-7" d="M112.32,37.76h-1.11a4.47,4.47,0,0,1,.81.86C112.32,38.47,112.43,38.19,112.32,37.76Z"/><path class="cls-12" d="M107.57,34.7l0,0C98.25,30.3,88.38,29.85,80,39.43c-3.47,4-6.36,8.16-6.7,14.79-.47,9-4.54,19.17-1.92,27.42,1.87,5.86,6.3,19.8,8.82,25.18,1,2.2,1.91,4.79,3.74,5.74C82.08,100.15,90.56,79.43,97,72c3.69-4.26,8.25-7.55,11.32-12.83,2.56-4.42,2.57-9.23,1.73-14.73C109.62,41.68,108.92,37.08,107.57,34.7Z"/><path class="cls-12" d="M76,40.14s13.35-8.5,27.12-7.29c23.18,2,26.81,20.75,32,25.91.81.81-9.31-14.17-28.33-19.43C87.29,34,80.42,39.73,76,40.14Z"/><path class="cls-9" d="M75.75,139.32c-2.35,1.57-5.1,6.66-1.18,14.5L110.94,211l6.27-3.14,3.53-7.45-22-49.82C89.86,140.89,81.57,134.52,75.75,139.32Z"/><path class="cls-9" d="M110.48,210.44c-1.31-1.62-2.87-6.58-.8-9.66,1.54-2.27,7-.88,10-2L171.65,207l-2.49,8.12-47.87,0S113.31,213.93,110.48,210.44Z"/><path class="cls-9" d="M203.61,202.18l-12.73,1.32-12.9.11,12.73-3.33-1.38-3.21-17.69,3s-5.2,5.12-7.45,6.84c-.51,3-1.83,5.86,1.92,7.94a17.69,17.69,0,0,0,2.25,1l23.07,1.94,1.51-2.53-1.55-1.39,2.45.09,2.38-3.63L187.16,208,203,205.42Z"/><path class="cls-12" d="M83.51,109.79S69.05,102.11,63.7,89C59.35,78.39,54,63.41,63.22,50.85S94.14,32,103.8,34.9s1.93,13.53,1.93,13.53S77.23,94.33,83.51,109.79Z"/><path class="cls-12" d="M87.3,36.22S75.63,31.48,58,52.67C49,63.58,46.74,73,46.74,73s.49,25.72,17.36,37.47c14.13,9.84,21.68,11.74,21.68,11.74s-5-31.86,4.3-49.81S99.26,30.24,87.3,36.22Z"/><circle class="cls-13" cx="105.82" cy="91.41" r="7.83"/><circle class="cls-14" cx="131.17" cy="80.87" r="7.83"/><path class="cls-15" d="M118.2,79s1.46,7.26,5.09,9.44"/><circle class="cls-16" cx="104.22" cy="78.07" r="2.91"/><circle class="cls-16" cx="126.01" cy="70.08" r="2.91"/><path class="cls-12" d="M117.48,64.44c1.09,0,4.36-7.26,11.26-4.36"/><path class="cls-17" d="M112.39,100.05c1.82-.36,9.08-.36,12.72-4"/><path class="cls-10" d="M149.09,156.47a2.69,2.69,0,0,0-.51-1,16.92,16.92,0,0,0-.55-2.15,18.13,18.13,0,0,0-.57-7.73,3.41,3.41,0,0,0-.28-2.06,9.86,9.86,0,0,0-11.34-5.15,3.13,3.13,0,0,0-1.85,4.53c.45.91.92,1.81,1.4,2.7a8.68,8.68,0,0,0-1.62,3.72,37.17,37.17,0,0,0-.51,5.1,99.79,99.79,0,0,1-17.87.92,73.18,73.18,0,0,1-7.39-.79,3.17,3.17,0,0,0-2.75-1.36c1.32-2.12-.59-5.74-3.41-4.69l-1.48.58a3.1,3.1,0,0,0-2.32-1.8l1.36-.88c3.32-2.15.28-7.44-3.11-5.33l-1.17.74a3,3,0,0,0-4.5-2.1c-.65.39-1.3.77-2,1.14v0a2.93,2.93,0,0,0,.93-1.48c.4-1.47-.5-3.53-2.16-3.8a18.49,18.49,0,0,0-10,.94c-2.7,1.09-5.65,2.81-6.7,5.66-2.35,2.37-2.88,6.18-2.78,9.44a39.92,39.92,0,0,0,1.25,8.5c0,.33.11.67.18,1a3.18,3.18,0,0,0-.54,1.09,23.07,23.07,0,0,0-.66,3.33,16.7,16.7,0,0,0-.74,10.57,26.62,26.62,0,0,0,4.65,9.58,2.87,2.87,0,0,0-1.9,1.39c-2.78,4.7,2.1,8.36,5.34,11l3.32,2.67a3,3,0,0,0-.09,1.84c1.09,4.25,5.32,6,9.3,5.56a3.22,3.22,0,0,0,3.35.31,6.69,6.69,0,0,0,2.84.46,7.62,7.62,0,0,0,2.66-.72l1.39,0a86.17,86.17,0,0,0,10.76.83,4,4,0,0,0,.74.15,74.88,74.88,0,0,0,19.49-.91,29.38,29.38,0,0,0,8.11-2.3c2.89-.44,6-2.93,7.37-4.87a2.42,2.42,0,0,0,.4-1,3.1,3.1,0,0,0,.89-2.55,3.78,3.78,0,0,0-1-2.17,72,72,0,0,0,3.31-8.93c1.17-3.92,2.78-8.8.13-12.35A33,33,0,0,0,149.09,156.47Zm-15.86,12c.06,2.2.14,4.4.26,6.59a3.3,3.3,0,0,0,2.65,3,1.85,1.85,0,0,1,.14.14,31.59,31.59,0,0,0,.2,5.83,3.57,3.57,0,0,0,.61,1.56q-1.22,2.58-2.34,5.22a6,6,0,0,0-1.87-.5,6.41,6.41,0,0,0-3.81-2.85,10,10,0,0,0-1.62-.3,7.23,7.23,0,0,0-1.64-1.89C128.66,179.92,130.79,174.12,133.23,168.49Zm-25.12-6.29a3.36,3.36,0,0,0-.72-1.54c1,.15,1.94.28,2.91.4Zm22-1.23c-3.2,6.5-5.65,13.4-8.95,19.92-.48,1-1,1.91-1.55,2.85a11.47,11.47,0,0,0-2.35.68,3.35,3.35,0,0,0-.34-.86,3.4,3.4,0,0,0-1.14-2.73,3.45,3.45,0,0,0-.57-3.59,3.24,3.24,0,0,0-.33-2.23,3.17,3.17,0,0,0-4.23-1.11l-.18.08a2.4,2.4,0,0,0-1.6-.56,3,3,0,0,0-.32-2.68,2.72,2.72,0,0,0,.61-1.59q2.26-1.43,4.52-2.89a3.05,3.05,0,0,0,.5-4.84l1.22.08A95.1,95.1,0,0,0,130.1,161Z"/></g></svg>