<svg id="圖層_1" data-name="圖層 1" xmlns="http://www.w3.org/2000/svg" xmlns:xlink="http://www.w3.org/1999/xlink" viewBox="0 0 208.21 208.21"><defs><style>.cls-1,.cls-12{fill:none;}.cls-2{fill:#6dd650;}.cls-3{clip-path:url(#clip-path);}.cls-4{fill:#a6b7be;}.cls-5{fill:#fff;}.cls-6{fill:#f2bb82;}.cls-7{fill:#f9cc8a;}.cls-8{fill:#6e6267;}.cls-9{fill:#c28331;}.cls-10{fill:url(#未命名漸層_20);}.cls-11{fill:url(#未命名漸層_20-2);}.cls-12{stroke:#6e6267;stroke-linecap:round;stroke-miterlimit:10;stroke-width:3px;}</style><clipPath id="clip-path"><circle class="cls-1" cx="104.11" cy="104.11" r="104.11"/></clipPath><linearGradient id="未命名漸層_20" x1="4468.07" y1="-1661.05" x2="4483.43" y2="-1661.05" gradientTransform="translate(1755.94 4562.57) rotate(-90)" gradientUnits="userSpaceOnUse"><stop offset="0" stop-color="#ff8148" stop-opacity="0"/><stop offset="1" stop-color="#ff8148"/></linearGradient><linearGradient id="未命名漸層_20-2" x1="4468.43" y1="-1628.56" x2="4483.78" y2="-1628.56" xlink:href="#未命名漸層_20"/></defs><title>members</title><circle class="cls-2" cx="104.11" cy="104.11" r="104.11"/><g class="cls-3"><path class="cls-4" d="M164,145.19s-38.65-19-59.49-18.26-65,16.67-67,24.07c-1.08,3.95,16.76,3.9,20.31,32.67,2.54,20.68,7.57,85.46,7.57,85.46S97.66,266.18,97.9,264c.13-1.21,1.57-10.19,1.57-10.19,7.6.8,14.38-1.93,20.83.34.6.21,1.81,11.65,1.81,11.65,5,.88,25.93,3.88,26.27,3.35,6.39-9.85,26.37.55,26.66-13.25C175.58,230.14,165.08,153.93,164,145.19Z"/><path class="cls-4" d="M36.38,151,17.65,246.72l11.3,8.9,25.45-.48L81.73,150.4S48.16,139.83,36.38,151Z"/><path class="cls-5" d="M67.57,135.08s25.83,32.86,29,63.52a548.61,548.61,0,0,1,2.62,58.79l21.92-.41s-3.74-43.7-2-59.74,19-67,19-67l-36.95-4.88Z"/><path class="cls-5" d="M117.57,105.13c-.44-.13-1-.25-1.5-.38a4.78,4.78,0,0,0,.13-.88Z"/><path class="cls-6" d="M107.74,132.67a30.78,30.78,0,0,0,8.76-3.57l.07-26.25-28.95.57.73,26.27C93,133.35,103.62,133.64,107.74,132.67Z"/><path class="cls-7" d="M136.84,84.14c-1,22.73-12.9,39-32.69,37.65C78.55,120,75.39,98.72,74.43,76s6.06-40.64,27.78-40.72C135.45,35.14,138.69,42.63,136.84,84.14Z"/><path class="cls-7" d="M81.28,80.49c2.46,5.43,2.62,9.64-1,11.28S68.56,91.45,66.1,86s-1.52-11.16,2.11-12.8S78.82,75.06,81.28,80.49Z"/><path class="cls-8" d="M96.57,197.21l-8.34-70.45s-28.88,4.25-28.95,8.4S96.57,197.21,96.57,197.21Z"/><path class="cls-7" d="M122.85,106.58c-.14,3-5.8,5.21-12,4.92s-10.83-2.73-10.69-5.75,8.51-4.88,11.44-4.74C115.62,101.19,123,103.56,122.85,106.58Z"/><path class="cls-9" d="M109.88,66.21a31.63,31.63,0,0,0-8.47-.55,35.38,35.38,0,0,0-6.64,1.85l1.61,3.62s2.91-.31,5.81-.78a22.87,22.87,0,0,1,7.15.57Z"/><path class="cls-9" d="M115.85,65.52a31,31,0,0,1,8.43-1A35.3,35.3,0,0,1,131,66.09l-1.44,3.69s-2.91-.17-5.83-.5a23,23,0,0,0-7.12.91Z"/><path class="cls-9" d="M67,38.44l-.68.9-.13.24c.31-.44.63-.87,1-1.3A1.07,1.07,0,0,1,67,38.44Z"/><path class="cls-9" d="M138.19,39a5.25,5.25,0,0,0-.16-1,5,5,0,0,0-4.46-3.89,1.17,1.17,0,0,0-.33,0c-11-4.32-22.9-4.93-34.54-4.22a110.25,110.25,0,0,0-16.22,1.78,18.17,18.17,0,0,0-8,3.56c-1,.54-1.92,1.12-2.87,1.71a38.32,38.32,0,0,0-3.27,3.82c-.9,4.78-2,9.54-2.59,14.37,0,.32-.08.63-.11,1a58.44,58.44,0,0,0-.08,7c0,.18.08.35.13.53.34,1.28.74,2.56,1.2,3.82,1.59,2,3.24,3.93,5,5.78,1.56.24,3.11.5,4.66.78,1.7,0,3.39.15,5.09.29.13-1,.24-2,.38-3s.55-4.4,1.27-8.26a25.52,25.52,0,0,1,.25-11,9.6,9.6,0,0,1,4.1-6.12c2.55-1.47,5.53-1,8.17-.06a.71.71,0,0,1,.48.49,31.37,31.37,0,0,1,5.49,1.24c1.35.3,2.71.59,4.06.87.51,0,1,0,1.53,0l5.3-.89a32.69,32.69,0,0,0,8.67.11c2.92-.38,5.94-1.63,8.9-1.25,1.53.19,2.91,1.65,4.38,2.19a6.73,6.73,0,0,1,.53.75.72.72,0,0,1,.55.53,5.73,5.73,0,0,1,.17,1c.09.31.17.63.24,1a.77.77,0,0,1-.27.69,1.12,1.12,0,0,0,.93-1c0-.13,0-.26.05-.38h0a7.91,7.91,0,0,0,.06-.83,9.31,9.31,0,0,0,1.89-4.88A18.74,18.74,0,0,0,138.19,39Z"/><path class="cls-8" d="M119.4,198.28l-2.88-71.64s25.64-1.54,25.57,2.62S119.4,198.28,119.4,198.28Z"/><circle class="cls-8" cx="103.46" cy="76.47" r="1.96"/><circle class="cls-8" cx="123.45" cy="75.75" r="1.96"/><circle class="cls-10" cx="94.89" cy="86.82" r="7.68"/><circle class="cls-11" cx="127.38" cy="86.46" r="7.68"/><path class="cls-12" d="M99.89,97.89s4.28,6.42,20.17,5.53"/><path class="cls-12" d="M113.72,78.1s.07,8.63,4.49,10.51-3.41,6.71-3.41,6.71"/></g></svg>