<svg id="圖層_1" data-name="圖層 1" xmlns="http://www.w3.org/2000/svg" xmlns:xlink="http://www.w3.org/1999/xlink" viewBox="0 0 208.21 208.21"><defs><style>.cls-1,.cls-14{fill:none;}.cls-2{clip-path:url(#clip-path);}.cls-3{fill:#dd6e0a;}.cls-4{fill:#6d77bc;}.cls-5{clip-path:url(#clip-path-2);}.cls-13,.cls-6{fill:#23221d;}.cls-7{fill:#c35e33;}.cls-8{fill:#f2bb82;}.cls-9{fill:#f4ae9d;}.cls-10{fill:#724f25;}.cls-11{fill:url(#未命名漸層_23);}.cls-12{fill:url(#未命名漸層_23-2);}.cls-13,.cls-14{stroke:#23221d;stroke-miterlimit:10;}.cls-14{stroke-linecap:round;stroke-width:3px;}</style><clipPath id="clip-path"><circle class="cls-1" cx="93.61" cy="-145.22" r="104.11"/></clipPath><clipPath id="clip-path-2"><circle class="cls-1" cx="104.11" cy="104.11" r="104.11"/></clipPath><linearGradient id="未命名漸層_23" x1="4060.67" y1="-1334.38" x2="4076.08" y2="-1334.38" gradientTransform="translate(1823.36 4020.7) rotate(-95.84)" gradientUnits="userSpaceOnUse"><stop offset="0" stop-color="#ff8148" stop-opacity="0"/><stop offset="1" stop-color="#ffbc95"/></linearGradient><linearGradient id="未命名漸層_23-2" x1="3738.93" y1="-1418.07" x2="3754.34" y2="-1418.07" gradientTransform="translate(1542.18 3856.12) rotate(-90)" xlink:href="#未命名漸層_23"/></defs><title>members</title><g class="cls-2"><path class="cls-3" d="M113.62,31.67l3,0a32.3,32.3,0,0,0,4,1.75q2.6-1.61,5.16-3.24,10.5-6.72,20.59-14,5.06-3.67,10-7.53l1.79-1.41C160,1,161.62-5.23,163-11.52q1.13-5.21,2-10.45c.3-1.83.57-3.65.82-5.48.11-.82.21-1.63.31-2.45v-.05c0-.44.09-.87.14-1.3a164.13,164.13,0,0,0,.86-21.49c-.1-3.52-.33-7-.72-10.54-.09-.82-.16-1.67-.28-2.49,0,.29.05.4-.09-.45-.07-.41-.13-.82-.2-1.24-.21-1.26-.44-2.52-.72-3.76a59.46,59.46,0,0,0-1.87-6.54c-.45-1.29-.94-2.57-1.45-3.84-.09-.22-.21-.45-.29-.67l-.57-1.24a79.65,79.65,0,0,0-8.31-13.89l-.59-.78c-.32-.38-.64-.77-1-1.15-.79-.91-1.6-1.8-2.44-2.66-.39-.4-.79-.78-1.19-1.17a26.88,26.88,0,0,0-12-2.54h0A145.3,145.3,0,0,0,98-110.38a152.71,152.71,0,0,0-19.7,1.61,27.53,27.53,0,0,0-11.16-4.17,27.52,27.52,0,0,0-8.49-2.13c-6.33-.75-12.74,1.54-17.7,5.36A39.34,39.34,0,0,0,30-95.88a118.66,118.66,0,0,0-6.82,16.74A76.88,76.88,0,0,0,20-44a159.26,159.26,0,0,0,1.15,24.89C22.32-10.25,24.11-1.31,29,6.42a38.83,38.83,0,0,0,13.37,13A10.76,10.76,0,0,0,45,23.48a14.12,14.12,0,0,0,8.87,3.67c12.36,1.12,24.6,3.24,37,4.3A138.16,138.16,0,0,0,113.62,31.67Z"/></g><circle class="cls-4" cx="104.11" cy="104.11" r="104.11"/><g class="cls-5"><path class="cls-6" d="M139.11,35.7c-5.2,10.17-21,20.52-30.07,17.87s-9.94-21.24-7.08-31,12.78-10.74,21.85-8.09S143.75,26.63,139.11,35.7Z"/><path class="cls-7" d="M94.59,51.27a16.89,16.89,0,0,0,.9-2.14,8.77,8.77,0,0,0-1.19-.29Z"/><path class="cls-7" d="M102,36.47c-2.51,1-5,8.68-6.48,12.66C102,51,130.41,61.34,132,57.5c1.76-4.19,2.91-14.84,2.91-14.84S118.17,30,102,36.47Z"/><path class="cls-8" d="M134.35,186.88l8.29,74.49,9.2-1.34-2.17-75.13S136.17,174.91,134.35,186.88Z"/><path class="cls-9" d="M87.1,155.76s-22.33,2.76-32-7.18c-4-4.08-11,12.69-14.28,29.46-16.12,82.13,9.3,112.87,9.3,112.87s10.71-3,11.14-5.88c1.2-8,3.48-74.61,3.54-77.47.1-4.47-.5-10.27,1.5-9.34,2.32,1.08,6.15,23.93,6.15,23.93S95,165.43,87.1,155.76Z"/><path class="cls-9" d="M155.71,217.26a145.45,145.45,0,0,0,.25-18.32,92.86,92.86,0,0,0-3.85-22.57c-2.23-7.15-5.21-13.78-11.6-18.1a47.5,47.5,0,0,0-23.58-7.54l-.06-.18L104,148.79l-14,.88v0a232.76,232.76,0,0,0-27.31,3.56c.82,6.58-7.39,39.74-9.35,54.95-1.69,13.13,1.49,45,3.56,41.06.86-1.66,71.68,3.67,71.68,3.67l.29-.92c.76,19.52,1.75,41.69,2.41,46.07.44,2.87,11.14,5.89,11.14,5.89S162.36,279.86,155.71,217.26Z"/><path class="cls-6" d="M121.66,126.78c7.41-4.37,2.87.58,9.48-4.74,10.84-9.48,22.1-39.21,21.18-43.18-4.55-19.84-26.46-29-34.59-29.49-15.63-.92-20.49,45.56-9.24,82.8C116.2,129.24,114.51,131,121.66,126.78Z"/><path class="cls-10" d="M107.37,154.24a36.93,36.93,0,0,0,4.32-4.78l2.84-37.68-14.23,0-5,39.41C98.46,155.15,103.05,158.15,107.37,154.24Z"/><path class="cls-10" d="M66.13,89.44c-3.33,21.32,9,46.32,28.33,49.22,25.56,3.84,42.12-21,45.44-42.3S127.24,57.28,105.48,54,69.46,68.12,66.13,89.44Z"/><path class="cls-10" d="M128.68,109.78c-.64,5.14.44,8.68,4.2,9.15s10.52-3.16,11.15-8.3-1.9-9.67-5.65-10.14S129.31,104.65,128.68,109.78Z"/><path class="cls-6" d="M64.3,87.38c-.08,2.33,32.09-15.74,34.59-22.3s4.46-16,3.34-17.13-18.56-.19-28.91,10.64C65.94,66.31,64.45,81.87,64.3,87.38Z"/><path class="cls-6" d="M141.86,90.64c-.39,2.2-37.13-21.47-39.64-27.76s-1.12-13.85,0-14.94,20.66-.77,31,9.6C140.63,64.92,143.67,80.45,141.86,90.64Z"/><path class="cls-6" d="M62.41,94.6c.72-2.61-2.74-24.22,14.37-39.15,7-6.15,32.3,1.83,32.3,1.83L77.61,87.5,67.7,134.75S61.61,97.53,62.41,94.6Z"/><circle class="cls-11" cx="81.98" cy="109.2" r="7.7"/><circle class="cls-12" cx="124.11" cy="109.49" r="7.7"/><circle class="cls-13" cx="90.23" cy="97.51" r="2.54"/><circle class="cls-13" cx="115.12" cy="97.69" r="2.54"/><path class="cls-14" d="M103.13,96.23S94,110,93.5,113.13s10.17,3.63,10.17,3.63"/><path class="cls-14" d="M98.58,127.66s13.27,6.36,19.44-6"/><path class="cls-14" d="M110,89.69s3.27-5.45,8.72-1.45"/></g></svg>