<svg id="圖層_1" data-name="圖層 1" xmlns="http://www.w3.org/2000/svg" xmlns:xlink="http://www.w3.org/1999/xlink" viewBox="0 0 208.21 208.21"><defs><style>.cls-1{fill:none;}.cls-2{fill:#704f05;}.cls-3{clip-path:url(#clip-path);}.cls-4{fill:#1b7775;}.cls-5{fill:#fff;}.cls-6{fill:#77d8cf;}.cls-7{fill:#c28331;}.cls-8{fill:#23221d;}.cls-9{fill:#e8d99e;}.cls-10{fill:#b7a970;}.cls-11{fill:#8e8355;}</style><clipPath id="clip-path"><circle class="cls-1" cx="104.11" cy="104.11" r="104.11"/></clipPath></defs><title>members</title><circle class="cls-2" cx="104.11" cy="104.11" r="104.11"/><g class="cls-3"><path class="cls-4" d="M173.78,165.1c0,.06,0,.12,0,.18S173.8,165.23,173.78,165.1Z"/><path class="cls-4" d="M174.65,176.37c-.09-3-.29-6.08-.62-9.11-.08-.65-.13-1.32-.23-2,0,0,0-.2-.09-.56l-.18-1.07c-.18-1.09-.38-2.18-.62-3.26a52.11,52.11,0,0,0-1.62-5.65c-.39-1.12-.81-2.23-1.25-3.33-.08-.19-.18-.38-.26-.58-.16-.36-.32-.72-.49-1.07a69.12,69.12,0,0,0-7.18-12l-.51-.67-.84-1c-.68-.79-1.38-1.55-2.11-2.3-.34-.34-.68-.68-1-1a23.09,23.09,0,0,0-10.36-2.19h0a124.9,124.9,0,0,0-32.31-4,129.35,129.35,0,0,0-17,1.39,23.83,23.83,0,0,0-9.66-3.61,23.85,23.85,0,0,0-7.34-1.84,21.38,21.38,0,0,0-15.3,4.64c-.21.16-.42.34-.63.51-5,.06-9.3,4.24-12.16,8.52-4.72,2.37-6.11,8.11-7.14,13.38a58.65,58.65,0,0,0-3.74,11c-3.21,13.41-4.21,27.64-4.15,41.4a202.9,202.9,0,0,0,1.68,25A3.18,3.18,0,0,0,42.53,230a3.08,3.08,0,0,0,1.65-.5,3,3,0,0,0,.62,4.68c.78.5,1.56,1,2.36,1.44A10,10,0,0,1,49,237.5c.2.31.4.61.61.91a3.23,3.23,0,0,0,4.64.71,58.28,58.28,0,0,0,6,2.1c2.54.74,4.55-2.22,3.77-4.25a31.87,31.87,0,0,0,2.69,1.76,9.31,9.31,0,0,0,2.35,3.56,12.24,12.24,0,0,0,7.67,3.17c10.69,1,21.28,2.8,32,3.73a120.64,120.64,0,0,0,19.66.18l2.64,0a29.45,29.45,0,0,0,3.46,1.51c1.5-.92,3-1.86,4.46-2.81,6.05-3.86,12-7.9,17.8-12.12q4.4-3.18,8.66-6.52l1.55-1.22c1.55-5.34,2.95-10.72,4.11-16.16q1-4.5,1.7-9c.26-1.58.49-3.16.7-4.74.1-.7.19-1.41.27-2.11v0l.12-1.13A140.55,140.55,0,0,0,174.65,176.37ZM57.77,233.19a2.9,2.9,0,0,0,.55-1.44,31.45,31.45,0,0,0,3.43,3.4C60.4,234.54,59.08,233.88,57.77,233.19Z"/><path class="cls-5" d="M122.24,104.85c-.38-.11-.83-.22-1.3-.34a5.09,5.09,0,0,0,.12-.75Z"/><path class="cls-6" d="M113.71,128.75a26.75,26.75,0,0,0,7.61-3.1l.05-22.78-25.12.5.63,22.79C100.92,129.34,110.14,129.59,113.71,128.75Z"/><path class="cls-6" d="M141.75,89.73c-.62,10.23-9.12,24.52-26.33,24.79-19.83.31-31.06-15.11-31.54-34.65C83.39,60.13,89.14,44.6,108,44.53,136.83,44.41,143.94,53.73,141.75,89.73Z"/><path class="cls-6" d="M90.75,83.47c2.13,4.71,2.27,8.36-.87,9.78s-10.17-.28-12.31-5-1.31-9.69,1.83-11.11S88.61,78.75,90.75,83.47Z"/><path class="cls-7" d="M78.34,47l-.59.77a2.12,2.12,0,0,0-.11.21c.26-.38.54-.75.83-1.12A.86.86,0,0,0,78.34,47Z"/><circle class="cls-8" cx="107.16" cy="69.97" r="1.7"/><circle class="cls-8" cx="130.17" cy="72.31" r="1.7"/><path class="cls-9" d="M135.37,34.11c-19.5-.19-39.4,2.29-58.86.46-.11.87-.23,1.75-.35,2.63-.3,2.11-.62,4.21-1,6.32A234.64,234.64,0,0,0,132,48.19c5.29-.21,10.56-.62,15.82-1.2C143.41,43,139.41,38.46,135.37,34.11Z"/><path class="cls-10" d="M130,44.78c-7-.52-14-.8-21-1.5A70.66,70.66,0,0,1,90.37,39l-1.6-.63h0a2.59,2.59,0,0,0-2.57,2.56l.48,4.47a519.41,519.41,0,0,0-1.18,66.25h0c0,.43.07.85.11,1.28.37,1.77.73,3.55,1,5.33a2.66,2.66,0,0,0,1.67.66l1,0c1.08-1.78,2.28-3.49,3.53-5.17a.91.91,0,0,1,1.43.16,42,42,0,0,0,3.17,5.34l4.9.19a47.8,47.8,0,0,1,5.44-6.14.91.91,0,0,1,1.28,0,78.75,78.75,0,0,1,4.71,6.63l1.83.07a25.41,25.41,0,0,1,6-6.37c.53-.39,1.13,0,1.34.53.89,2.09,1.74,4.25,2.84,6.25l2.23.09a24.45,24.45,0,0,1,4.72-5.81.92.92,0,0,1,1.43.15c1.31,2.08,2.7,4.09,4.14,6.07l2.15.09a2.43,2.43,0,0,0,1-.21l1.5-1.8a469.57,469.57,0,0,0,4.86-52.81c.16-4.45.24-8.9.27-13.34a15.64,15.64,0,0,0-.76-5.92A143.11,143.11,0,0,0,130,44.78ZM114.73,72.5a6.14,6.14,0,0,1-3.62,3.73,5,5,0,0,1-2.58.61h-.45a6.81,6.81,0,0,1-3.34-.83l-1.43-1a7,7,0,0,1-1.86-3.09c-.08-.59-.16-1.17-.25-1.75a5.21,5.21,0,0,1,.52-2.53,5.17,5.17,0,0,1,1.36-2.23,5.06,5.06,0,0,1,2.26-1.5,5,5,0,0,1,2.58-.61h.45a6.84,6.84,0,0,1,3.34.83l1.42,1A6.79,6.79,0,0,1,115,68.22l.25,1.75A5.09,5.09,0,0,1,114.73,72.5ZM137.5,76l-1,1.42a6.74,6.74,0,0,1-3.09,1.86l-1.74.25a5.14,5.14,0,0,1-2.54-.52,5.05,5.05,0,0,1-2.23-1.35c-.16-.15-.31-.3-.45-.46a6.74,6.74,0,0,1-1.86-3.09l-.25-1.74a5.14,5.14,0,0,1,.52-2.54,6.09,6.09,0,0,1,3.61-3.73,5.07,5.07,0,0,1,2.58-.61h.25c.18,0,1.58.16,1.76.2h0l1.64.64,0,0,1.43,1s1.13,1.4,1.15,1.44.71,1.6.74,1.69a6.35,6.35,0,0,1,.14,1,8,8,0,0,1,.14,1.16A6.85,6.85,0,0,1,137.5,76Z"/><path class="cls-11" d="M88.65,38.32c-4.35-1.21-8.66-2.58-13-3.91l-1.06,0-1.72.21c-.25,14.64.25,29.3-1.37,43.89-.54,4.87-1.24,9.79-1.88,14.74.12,3.15.27,6.31.46,9.46,0,.25,0,.49,0,.74l-.41,3.19h0a59.36,59.36,0,0,1,2,9.9c.12.13.24.27.35.41.46.54.91,1.1,1.33,1.67a15.28,15.28,0,0,1,4-3.78,2.13,2.13,0,0,1,2.09-1.11c1.28-.51,2.53.57,3,1.66l.34.83a57.28,57.28,0,0,0,5.12,4.47c1.72-10.24,1.66-20.79,2.1-31.15Q90.6,75.27,91.21,61a2,2,0,0,0,.05-1.34c0-.81.07-1.63.11-2.44.07-1.78.26-3.67.34-5.57.8-3,1.61-6.08,2.39-9.12a10,10,0,0,0,.32-2.16c-1.35-.42-2.7-.88-4-1.4Zm-12.09,17,0,.22c0-.69-.07-1.38-.09-2.08L77,54A3,3,0,0,0,76.56,55.3Z"/></g></svg>