<svg id="圖層_1" data-name="圖層 1" xmlns="http://www.w3.org/2000/svg" xmlns:xlink="http://www.w3.org/1999/xlink" viewBox="0 0 208.94 210.39"><defs><style>.cls-1{fill:none;}.cls-2{clip-path:url(#clip-path);}.cls-3{fill:#1b7775;}.cls-4{fill:#ee8b69;}.cls-5{clip-path:url(#clip-path-2);}.cls-6{fill:#fff;}.cls-7{fill:#f9aaf9;}.cls-8{fill:#c28331;}.cls-9{fill:#23221d;}.cls-10{fill:#e8d99e;}.cls-11{fill:#b7a970;}.cls-12{fill:#8e8355;}.cls-13{fill:#f951f9;}</style><clipPath id="clip-path"><circle class="cls-1" cx="104.83" cy="-141.49" r="104.11"/></clipPath><clipPath id="clip-path-2"><circle class="cls-1" cx="104.11" cy="106.29" r="104.11"/></clipPath></defs><title>members</title><g class="cls-2"><path class="cls-3" d="M175.38-69.22c-.09-3-.29-6.09-.63-9.12-.07-.65-.13-1.32-.22-2,0,0,0-.19-.1-.56s-.11-.71-.17-1.07c-.18-1.09-.38-2.18-.62-3.26A55.93,55.93,0,0,0,172-90.86c-.39-1.12-.81-2.22-1.26-3.32l-.25-.58c-.16-.36-.32-.72-.49-1.08a68.92,68.92,0,0,0-7.19-12l-.51-.67c-.27-.33-.55-.67-.83-1-.68-.79-1.39-1.56-2.11-2.3-.34-.35-.68-.68-1-1A23.23,23.23,0,0,0,148-115h0a125.34,125.34,0,0,0-32.31-4,131.38,131.38,0,0,0-17,1.4A23.45,23.45,0,0,0,89-121.28a23.58,23.58,0,0,0-7.34-1.85,21.38,21.38,0,0,0-15.3,4.64l-.63.51c-5,.06-9.3,4.24-12.17,8.53-4.71,2.36-6.1,8.1-7.13,13.37a57.34,57.34,0,0,0-3.74,11c-3.21,13.41-4.22,27.64-4.15,41.39a204.87,204.87,0,0,0,1.67,25,3.19,3.19,0,0,0,3.09,3.09,3,3,0,0,0,1.64-.49,3,3,0,0,0,.63,4.67c.77.5,1.56,1,2.36,1.44a10,10,0,0,1,1.84,1.89c.2.3.41.61.62.9A3.23,3.23,0,0,0,55-6.47a62.43,62.43,0,0,0,6,2.1c2.54.73,4.54-2.22,3.76-4.25.87.62,1.77,1.21,2.7,1.76a9.16,9.16,0,0,0,2.35,3.55A12.19,12.19,0,0,0,77.51-.13c10.69,1,21.28,2.8,32,3.72a120.76,120.76,0,0,0,19.67.18l2.64,0a28.12,28.12,0,0,0,3.46,1.52c1.49-.93,3-1.86,4.46-2.81q9.07-5.8,17.8-12.13,4.38-3.18,8.65-6.51l1.55-1.23c1.55-5.33,2.95-10.72,4.11-16.15q1-4.5,1.71-9c.25-1.57.49-3.15.7-4.74.1-.7.18-1.4.27-2.11v0c0-.38.08-.76.12-1.13A142.35,142.35,0,0,0,175.38-69.22ZM58.5-12.41A2.88,2.88,0,0,0,59-13.85a33.45,33.45,0,0,0,3.43,3.41C61.13-11.06,59.8-11.72,58.5-12.41Z"/></g><circle class="cls-4" cx="104.83" cy="104.11" r="104.11"/><g class="cls-5"><path class="cls-6" d="M122.24,107c-.38-.11-.83-.22-1.3-.34a5.09,5.09,0,0,0,.12-.75Z"/><path class="cls-7" d="M160.58,209.13A95.57,95.57,0,0,0,158,170.69a91.07,91.07,0,0,0-7.9-19.52,34.2,34.2,0,0,0-5.84-8,29.59,29.59,0,0,0-9-5.7c-3.21-1.39-6.45-2.72-9.69-4a29,29,0,0,1-1.92-2.53l-2.33-6.33,0-19.5-14.51.29c.17,3,.36,6,.39,9,.06,4.79.07,10.38-2.43,14.64l-2.34-.54a3.2,3.2,0,0,0-.85-.09,46.37,46.37,0,0,0-6.65-.76l-.12-.22c-3.15-2-6.72-3.17-10.49-1.94a11.45,11.45,0,0,0-5.22,3.6c-5.62,3.82-6,11.81-5.48,18.36a78,78,0,0,0,3.61,17.24A125.63,125.63,0,0,0,83.67,195,127.24,127.24,0,0,0,92,214a2.74,2.74,0,0,0,2.88,1.49l4.26,12.19c1.07,3.08,6.35,2.86,6.06-.82q-.22-3-.47-6.08a49.39,49.39,0,0,0,19.06,2.07,3.28,3.28,0,0,0,2.78-2,42.39,42.39,0,0,0,5.9-1.74,3.47,3.47,0,0,0,1.93-1.94h0a34.15,34.15,0,0,0,7,1.76,35.18,35.18,0,0,0,8.2.32c2.61-.23,5.66-.49,7.94-1.89,2.63-1.61,3.08-4.36,3-7.21Zm-55.82,4.65a3,3,0,0,0-.53,0v-.11a3.34,3.34,0,0,0,1.7-1.26c.28.46.56.91.86,1.36C106.11,213.79,105.43,213.78,104.76,213.78Zm14.82-3.58-.2,0a3.33,3.33,0,0,0,.5-.25l.18.37Zm2.8-52.84-.32.2c-.12-.44-.24-.88-.35-1.33a5.87,5.87,0,0,0,.73.33Zm12.81,50.51a2.61,2.61,0,0,0,.2-.74l.39.75Zm12.54-1.14a10.85,10.85,0,0,0-1.72-2.19,3,3,0,0,0-1.63-.82,3.17,3.17,0,0,0,1.46-1.07,2.69,2.69,0,0,0,2.73,1.35c.1.82.2,1.64.29,2.46Z"/><path class="cls-7" d="M141.75,91.91c-.62,10.23-9.12,24.52-26.33,24.79-19.83.31-31.06-15.11-31.54-34.65-.49-19.74,5.26-35.27,24.1-35.34C136.83,46.59,143.94,55.91,141.75,91.91Z"/><path class="cls-7" d="M90.75,85.64c2.13,4.72,2.27,8.37-.87,9.79s-10.17-.28-12.31-5-1.31-9.69,1.83-11.11S88.61,80.93,90.75,85.64Z"/><path class="cls-8" d="M78.34,49.16l-.59.77a2.12,2.12,0,0,0-.11.21c.26-.38.54-.75.83-1.12A.86.86,0,0,0,78.34,49.16Z"/><circle class="cls-9" cx="107.16" cy="72.15" r="1.7"/><circle class="cls-9" cx="130.17" cy="74.49" r="1.7"/><path class="cls-10" d="M135.37,37.74c-19.5-.19-39.4,2.29-58.86.46-.11.88-.23,1.75-.35,2.63q-.45,3.16-1,6.32A234.64,234.64,0,0,0,132,51.82c5.29-.21,10.56-.62,15.82-1.19C143.41,46.66,139.41,42.1,135.37,37.74Z"/><path class="cls-11" d="M130,48.41c-7-.52-14-.8-21-1.5a70.66,70.66,0,0,1-18.59-4.28L88.77,42h0a2.59,2.59,0,0,0-2.57,2.57L86.67,49a519.45,519.45,0,0,0-1.18,66.25h0c0,.43.07.86.11,1.28.37,1.78.73,3.55,1,5.34a2.65,2.65,0,0,0,1.67.65l1,0c1.08-1.77,2.28-3.49,3.53-5.17a.91.91,0,0,1,1.43.16,42,42,0,0,0,3.17,5.34l4.9.19a48.48,48.48,0,0,1,5.44-6.14.91.91,0,0,1,1.28,0,80.41,80.41,0,0,1,4.71,6.63l1.83.08a25.62,25.62,0,0,1,6-6.38c.53-.39,1.13,0,1.34.54.89,2.09,1.74,4.24,2.84,6.24l2.23.09a24.65,24.65,0,0,1,4.72-5.81.91.91,0,0,1,1.43.16c1.31,2.07,2.7,4.08,4.14,6.06l2.15.09a2.28,2.28,0,0,0,1-.21l1.5-1.8a469.35,469.35,0,0,0,4.86-52.81c.16-4.44.24-8.89.27-13.34a15.67,15.67,0,0,0-.76-5.92A143.11,143.11,0,0,0,130,48.41ZM114.73,76.14a5.22,5.22,0,0,1-1.36,2.23,7.62,7.62,0,0,1-4.84,2.11h-.45a6.82,6.82,0,0,1-3.34-.84l-1.43-1a6.92,6.92,0,0,1-1.86-3.09c-.08-.58-.16-1.16-.25-1.74a5.25,5.25,0,0,1,.52-2.54A5.17,5.17,0,0,1,103.08,69a7.62,7.62,0,0,1,4.84-2.11h.45a6.84,6.84,0,0,1,3.34.83l1.42,1a6.82,6.82,0,0,1,1.86,3.1l.25,1.74A5.15,5.15,0,0,1,114.73,76.14Zm22.77,3.52-1,1.42a6.74,6.74,0,0,1-3.09,1.86l-1.74.25a7.48,7.48,0,0,1-4.77-1.87,4.78,4.78,0,0,1-.45-.45,6.82,6.82,0,0,1-1.86-3.1L124.3,76a5.16,5.16,0,0,1,.52-2.54,5.11,5.11,0,0,1,1.35-2.23,5.29,5.29,0,0,1,2.26-1.5,5.07,5.07,0,0,1,2.58-.61h.25c.18,0,1.58.16,1.76.21h0c.05,0,1.59.61,1.64.64h0l1.43,1s1.13,1.4,1.15,1.44.71,1.6.74,1.7a6.18,6.18,0,0,1,.14.94,8.31,8.31,0,0,1,.14,1.16A6.85,6.85,0,0,1,137.5,79.66Z"/><path class="cls-12" d="M88.65,42C84.3,40.74,80,39.38,75.68,38l-1.06,0-1.72.21c-.25,14.64.25,29.31-1.37,43.9C71,87,70.29,91.89,69.65,96.83c.12,3.16.27,6.31.46,9.47,0,.24,0,.48,0,.73l-.41,3.19h0a59.36,59.36,0,0,1,2,9.9c.12.14.24.27.35.41.46.54.91,1.1,1.33,1.68a15,15,0,0,1,4-3.78,2.1,2.1,0,0,1,2.09-1.11c1.28-.52,2.53.57,3,1.65l.34.84a60.68,60.68,0,0,0,5.12,4.47c1.72-10.25,1.66-20.8,2.1-31.15q.58-14.23,1.19-28.47a2,2,0,0,0,.05-1.35c0-.81.07-1.63.11-2.44.07-1.78.26-3.67.34-5.57.8-3,1.61-6.07,2.39-9.12A9.91,9.91,0,0,0,94.42,44c-1.35-.42-2.7-.88-4-1.4Zm-12.09,17,0,.23c0-.7-.07-1.39-.09-2.08l.57.54A3,3,0,0,0,76.56,58.93Z"/><path class="cls-13" d="M149.61,226a348.15,348.15,0,0,0-21.78-39.58c-.42-1.89-.78-3.8-1.1-5.71a4.81,4.81,0,0,0,2.16-.94,6.61,6.61,0,0,0,3.44-.35,4.8,4.8,0,0,0,2.83-3.62,6,6,0,0,0,.47-.91,6.63,6.63,0,0,0-1.08-6.74,28.65,28.65,0,0,0-2-5.82,31.13,31.13,0,0,1,8.47-20.7,3.19,3.19,0,0,0,.4-4.35c-1-1.17-3.19-1.61-4.35-.4a38,38,0,0,0-10.25,20.89c-4.15-.06-7.86-1.67-11.52-3.5A86.16,86.16,0,0,0,103.48,149a31.86,31.86,0,0,0-3.93-2.76,3.58,3.58,0,0,0-1.91-.5c0-.45,0-.91,0-1.36.1-2.74.3-5.48.59-8.2.15-1.43.32-2.85.53-4.27.07-.49.11-1,.18-1.59a3.38,3.38,0,0,0,.94-.82,3.56,3.56,0,0,0-1.59-5.4c-2.28-.86-4.33.77-4.94,2.9-1.25,4.4-1.44,9.41-1.72,13.95-.11,1.78-.2,3.57-.24,5.37a5,5,0,0,0-1.8,3.06,4.34,4.34,0,0,0-.43.68,2.71,2.71,0,0,0-1.83,3.26c.08.36.18.72.28,1.07-.06.25-.11.5-.16.74a5,5,0,0,0-.25,2.16,14,14,0,0,0,3.94,10.52,11.57,11.57,0,0,0,3.44,2.35,34.22,34.22,0,0,0-1.35,3.73q-.78,2.43-1.41,4.91a289.31,289.31,0,0,0-15.7,47.77,3.19,3.19,0,0,0,1.79,4,3.14,3.14,0,0,0,4-1.8l.5-1.16a3,3,0,0,0,5,.1c0,.39,0,.77,0,1.16a3.11,3.11,0,0,0,2.39,3.27c1.33.28,3.23-.38,3.58-1.89.06-.27.11-.54.17-.81h0v0a1.89,1.89,0,0,0,0-.23A3.13,3.13,0,0,0,94,227.9c.07-.55.13-1.11.2-1.67a2.76,2.76,0,0,0,1.7-1.8l.87-2.49c0,.43.07.86.1,1.29a2.52,2.52,0,0,0,.88,1.78c0,.83-.1,1.65-.14,2.47-.16,4,5.73,4.55,6.15.57l.7-6.49.82.2c.08,1.51.15,3,.22,4.52a3.05,3.05,0,0,0,3.17,2.51A3.12,3.12,0,0,0,111.6,226c.14-.87.29-1.74.44-2.61,2.64.63,5.29,1.22,7.95,1.81a3.13,3.13,0,0,0,5.2,1.11q10.62,2.23,21.33,4C148.88,230.75,150.54,228,149.61,226Zm-20-5.51c0-.27,0-.55,0-.82h0c0-.32,0-.63,0-.95.34.83.69,1.66,1,2.49l-1-.21A2,2,0,0,0,129.64,220.47Z"/></g></svg>