<svg id="圖層_1" data-name="圖層 1" xmlns="http://www.w3.org/2000/svg" xmlns:xlink="http://www.w3.org/1999/xlink" viewBox="0 0 208.21 208.21"><defs><style>.cls-1,.cls-13{fill:none;}.cls-2{clip-path:url(#clip-path);}.cls-3{fill:#a6b7be;}.cls-4{fill:#fff;}.cls-5{fill:#dcd650;}.cls-6{clip-path:url(#clip-path-2);}.cls-7{fill:#383428;}.cls-8{fill:#864f22;}.cls-9{fill:#f9cc8a;}.cls-10{fill:#e09b42;}.cls-11{fill:#f6de9e;}.cls-12{fill:#533313;}.cls-13{stroke:#6e6267;stroke-linecap:round;stroke-miterlimit:10;stroke-width:3px;}.cls-14{fill:url(#未命名漸層_20);}.cls-15{fill:url(#未命名漸層_20-2);}.cls-16{fill:url(#未命名漸層_20-3);}</style><clipPath id="clip-path"><circle class="cls-1" cx="104.77" cy="-140.24" r="104.11"/></clipPath><clipPath id="clip-path-2"><circle class="cls-1" cx="105.6" cy="104.84" r="104.11"/></clipPath><linearGradient id="未命名漸層_20" x1="4220.74" y1="-1926.7" x2="4236.39" y2="-1926.7" gradientTransform="translate(2000.95 4318.88) rotate(-90)" gradientUnits="userSpaceOnUse"><stop offset="0" stop-color="#ff8148" stop-opacity="0"/><stop offset="1" stop-color="#ff8148"/></linearGradient><linearGradient id="未命名漸層_20-2" x1="4220.74" y1="-1892.62" x2="4236.39" y2="-1892.62" xlink:href="#未命名漸層_20"/><linearGradient id="未命名漸層_20-3" x1="89.9" y1="101.52" x2="99.71" y2="101.52" gradientTransform="matrix(1, 0, 0, 1, 0, 0)" xlink:href="#未命名漸層_20"/></defs><title>members</title><g class="cls-2"><path class="cls-3" d="M164.64-99.15s-38.66-19-59.5-18.26-65,16.66-67,24.06c-1.08,3.95,16.76,3.9,20.31,32.68C61-40,66,24.78,66,24.78s32.31-3,32.55-5.15c.13-1.21,1.57-10.19,1.57-10.19,7.6.8,14.38-1.93,20.83.34.6.21,1.81,11.65,1.81,11.65,5,.88,25.94,3.88,26.27,3.35,6.4-9.85,26.37.55,26.66-13.25C176.24-14.21,165.74-90.42,164.64-99.15Z"/><path class="cls-3" d="M37-93.36,18.31,2.37l11.3,8.9,25.45-.48L82.39-93.94S48.82-104.52,37-93.36Z"/><path class="cls-4" d="M68.23-109.27s25.83,32.87,29,63.52A548.61,548.61,0,0,1,99.82,13l21.93-.41s-3.75-43.7-2-59.74,19-67,19-67L101.8-119Z"/></g><circle class="cls-5" cx="104.11" cy="104.11" r="104.11"/><g class="cls-6"><path class="cls-7" d="M63.13,65.81s-3.81,51.46,29.11,63.52C166.76,156.62,115.68,34.77,63.13,65.81Z"/><path class="cls-4" d="M66.27,187.92a28.8,28.8,0,0,0,.66,4.82c19.9-.68,39.74,1.53,59.63,2.44.46-26.52,12.31-69,10.76-70.12-2.2-1.67-25.66-2.13-37.65-1.72S68,128.77,68,128.77C69.37,137.55,65.67,167.75,66.27,187.92Z"/><path class="cls-8" d="M92,82.51a5,5,0,0,1-2.15,2.71,45.94,45.94,0,0,0-8.47,7.32c-.39,1-.77,2-1.15,3a120.3,120.3,0,0,1,12.65-6C92.65,87.11,92.36,84.76,92,82.51Z"/><polygon class="cls-9" points="93.14 124.13 94.28 87.01 109.67 85.54 110.08 123.34 102.32 127.15 93.14 124.13"/><path class="cls-9" d="M63.13,65.81c-3,21.13,9.17,45.74,27.8,48.4,24.66,3.53,40.33-21.21,43.3-42.34s-12.59-38.53-33.58-41.53S66.11,44.68,63.13,65.81Z"/><path class="cls-9" d="M123.1,76.08c-1.08,5-.52,8.47,2.67,9.17s9.37-2.39,10.45-7.33-.64-9.54-3.81-10.24S124.17,71.13,123.1,76.08Z"/><path class="cls-10" d="M72.52,244.68S63.33,201.46,77.41,192s42.63.2,47.32,5.71,11.15,43,9.58,50.11S81.13,255.71,72.52,244.68Z"/><polygon class="cls-4" points="73.5 195.95 97.75 177.84 121.21 191.22 123.93 201.58 73.5 203.82 73.5 195.95"/><path class="cls-11" d="M98.24,244.47a1.4,1.4,0,0,1-.12-.34h0a4.1,4.1,0,0,1-.1-.48h0c-.06-.34-.11-.77-.18-1.32h0c-.13-1.09-.29-2.63-.47-4.48h0c-.35-3.69-.77-8.6-1.18-13.57h0c-.81-10-1.56-19.9-1.57-20.85H97c0,.75,1.59,21.81,2.65,33h0c0,.63.11,1.24.17,1.81h0c1.72-5.67,4.2-14.7,4.18-21.08h0a16.49,16.49,0,0,0-.31-3.44h0l2.27-.72a20.21,20.21,0,0,1,.39,4.16h0c0,10.21-5.39,25.13-5.89,27h0l0,.09,0,.08a3.12,3.12,0,0,1-.15.28h0a1.15,1.15,0,0,1-.93.56h0a1.18,1.18,0,0,1-1.05-.76Z"/><path class="cls-12" d="M83.67,125.06s-1.87,39.41-.78,49.62c2.34,22.06-9.56,101.29-8,107.22s-17.6-6.8-20-11.52,7.63-86.25,7.63-90.18S60.4,136.88,62,134.52,85.23,124.28,83.67,125.06Z"/><path class="cls-12" d="M117.05,127.43s.25,45.28-.53,55.52,15.33,95.66,13.79,101.58,16.46-10.61,18.8-15.33-10.94-82.7-10.94-86.64,0-48-1.57-50.41S115.48,126.64,117.05,127.43Z"/><path class="cls-12" d="M143.8,214a32.3,32.3,0,0,0,8.9,1.58,8.89,8.89,0,0,1,4.55-1.61,10.93,10.93,0,0,0,5.37-2.48,16,16,0,0,0,3.94-5.75c-4-24.17-15.36-76.47-18.95-81.9s-25.81,1.18-27,2.36c-7,7,13,63.62,18.59,84.75A31.79,31.79,0,0,0,143.8,214Z"/><path class="cls-8" d="M116.05,128.21s9.38-.78,12.51.79,7.82,10.24,7,11-13.3,7.87-13.3,7.87,17.21,5.52,18.77,9.46-21.91,53.06-21.91,53.06S110.57,156.57,116.05,128.21Z"/><path class="cls-7" d="M61.8,74.05c.41,3.12,14.84-25.63,21-28.36s7.81-17.16,7.81-17.16-15.17.78-18.53,3.67S57.83,44.5,61.8,74.05Z"/><path class="cls-7" d="M103.26,64a40.62,40.62,0,0,1,7.86-.9,43.65,43.65,0,0,1,6.3.84l-.85,1.73a23.93,23.93,0,0,1-4.81.24c-2.72-.13-7.69,1.21-7.69,1.21Z"/><path class="cls-7" d="M82.23,64.83a39.5,39.5,0,0,0-7.85.89,44,44,0,0,0-6,2.22l1.22,1.5a23.22,23.22,0,0,0,4.74-.85c2.62-.73,7.77-.54,7.77-.54Z"/><path class="cls-12" d="M63.69,213.38c1.8-5.83,3.75-12.86,5.54-18.9-.2-9.86-.36-19.72-.42-29.61-.08-12.34-2.92-19.8-5.86-31.7C52,133,47.91,180.7,44.14,207.85c-1.33,9.54,3,47,3,47s16.81-.77,21.83-3.24C70.09,251,61.5,220.49,63.69,213.38Z"/><path class="cls-8" d="M86,123.88s-11.53,2-14.66,3.55-8,8.66-7.23,9.45,13.29,7.87,13.29,7.87-17.21,5.52-18.77,9.46,22.68,53.95,22.68,53.95S90.41,150.76,86,123.88Z"/><path class="cls-7" d="M119.72,24.93c-11.85-5.73-18.51-.49-30.5,4.36-4.58,1.85-7.7,2.67-9.49,6V36c.89,2.3-1.87,5.8-2.24,8.72,7,4.35,25.8,5.7,34.41,11.62C122.77,63.8,122.07,68.65,122.07,81c0,6.4,1.48,8.94-.78,13.8-2.81,6-5,7.5-4.35,14.53.29,3,2.79,5.75,3,8.75.31,3.4-1,5-2,8.67-1.68,6.29-1.58,12.77,2,18.17,2.62,3.92,12.37,11.67,16.69,12.87-2.34-4.35-1.76-13.61-1.76-19.6,14.35-17.56,11.23-18.33,9.39-31.59-.88-6.34,9.7-21.54,10-27.77.32-7.11-12.14-24-12.32-25.6C140.25,36.91,123.86,26.93,119.72,24.93Z"/><circle class="cls-7" cx="103.13" cy="80.5" r="2.78"/><circle class="cls-7" cx="81.64" cy="80.5" r="2.78"/><path class="cls-13" d="M92.2,82.54S90,89.17,88.3,91.22s4.44,2.23,4.44,2.23"/><circle class="cls-14" cx="74.25" cy="90.32" r="7.83"/><circle class="cls-15" cx="108.32" cy="90.32" r="7.83"/><path class="cls-16" d="M89.9,100.05s1.46,5.81,9.81,1.09"/></g></svg>