<svg id="圖層_1" data-name="圖層 1" xmlns="http://www.w3.org/2000/svg" xmlns:xlink="http://www.w3.org/1999/xlink" viewBox="0 0 208.21 208.21"><defs><style>.cls-1,.cls-12{fill:none;}.cls-2{fill:#eadd92;}.cls-3{clip-path:url(#clip-path);}.cls-4{fill:#dd6e0a;}.cls-5{fill:#fff;}.cls-6{fill:#724f25;}.cls-11,.cls-7{fill:#23221d;}.cls-12,.cls-7{stroke:#23221d;stroke-miterlimit:10;}.cls-8{fill:#c28331;}.cls-9{fill:url(#未命名漸層_23);}.cls-10{fill:url(#未命名漸層_23-2);}.cls-12{stroke-linecap:round;stroke-width:3px;}</style><clipPath id="clip-path"><circle class="cls-1" cx="104.11" cy="104.11" r="104.11"/></clipPath><linearGradient id="未命名漸層_23" x1="4331.22" y1="-1062.16" x2="4346.63" y2="-1062.16" gradientTransform="translate(1586.89 4305.83) rotate(-95.84)" gradientUnits="userSpaceOnUse"><stop offset="0" stop-color="#ff8148" stop-opacity="0"/><stop offset="1" stop-color="#ffbc95"/></linearGradient><linearGradient id="未命名漸層_23-2" x1="4010.46" y1="-1172.43" x2="4025.87" y2="-1172.43" gradientTransform="translate(1303.35 4115.94) rotate(-90)" xlink:href="#未命名漸層_23"/></defs><title>members</title><circle class="cls-2" cx="104.11" cy="104.11" r="104.11"/><g class="cls-3"><path class="cls-4" d="M124.11,281l3,0a30.4,30.4,0,0,0,4,1.75q2.58-1.6,5.16-3.24,10.48-6.7,20.58-14,5.06-3.69,10-7.54l1.8-1.41c1.79-6.17,3.4-12.4,4.75-18.68q1.11-5.2,2-10.46.44-2.73.81-5.48c.11-.82.21-1.63.31-2.45v0c0-.43.09-.87.14-1.3a164.06,164.06,0,0,0,.87-21.49c-.11-3.52-.34-7-.73-10.54-.09-.82-.15-1.66-.28-2.49,0,.29.05.4-.09-.45-.06-.41-.13-.82-.2-1.23-.21-1.27-.44-2.52-.71-3.77a61.61,61.61,0,0,0-1.88-6.53c-.45-1.3-.93-2.58-1.45-3.85-.09-.22-.2-.45-.29-.67-.19-.42-.37-.83-.57-1.24a79.65,79.65,0,0,0-8.31-13.89c-.19-.26-.39-.51-.59-.77s-.64-.78-1-1.16c-.78-.91-1.59-1.8-2.44-2.66-.38-.39-.78-.78-1.18-1.17a26.81,26.81,0,0,0-12-2.53h0a144.87,144.87,0,0,0-37.36-4.68,151.1,151.1,0,0,0-19.7,1.62,27.4,27.4,0,0,0-11.16-4.18,27.52,27.52,0,0,0-8.49-2.13c-6.32-.75-12.74,1.54-17.69,5.37a39.25,39.25,0,0,0-11,13.82,120.36,120.36,0,0,0-6.82,16.74,76.89,76.89,0,0,0-3.09,35.1,158,158,0,0,0,1.14,24.89c1.13,8.9,2.92,17.84,7.76,25.58a38.89,38.89,0,0,0,13.37,12.94,10.68,10.68,0,0,0,2.72,4.11,14.21,14.21,0,0,0,8.87,3.68c12.36,1.11,24.6,3.23,37,4.3A139.27,139.27,0,0,0,124.11,281Z"/><path class="cls-5" d="M115.7,114.72c-.44-.13-1-.26-1.5-.39a6.52,6.52,0,0,0,.14-.87Z"/><path class="cls-6" d="M105.84,142.35a30.88,30.88,0,0,0,8.8-3.58l.06-26.34-29,.57.73,26.36C91.05,143,101.71,143.32,105.84,142.35Z"/><path class="cls-6" d="M138.27,97.24c-.72,11.82-10.56,28.35-30.46,28.66-22.93.36-35.91-17.47-36.47-40.06C70.78,63,77.43,45.05,99.21,45,132.57,44.84,140.79,55.61,138.27,97.24Z"/><path class="cls-6" d="M79.29,90c2.46,5.45,2.63,9.67-1,11.32S66.52,101,64.05,95.53s-1.52-11.2,2.12-12.85S76.82,84.54,79.29,90Z"/><path class="cls-7" d="M109.86,74.48a31.55,31.55,0,0,0-8.48-.86,35.42,35.42,0,0,0-6.72,1.61l1.49,3.69s2.92-.2,5.85-.57a23.2,23.2,0,0,1,7.15.83Z"/><path class="cls-7" d="M116.52,74.36A31.4,31.4,0,0,1,125,74a35.33,35.33,0,0,1,6.62,2L130,79.56s-2.91-.37-5.81-.89a22.75,22.75,0,0,0-7.19.42Z"/><path class="cls-8" d="M64.94,47.8c-.23.3-.45.6-.68.89,0,.09-.09.17-.13.25.31-.44.63-.88,1-1.3Z"/><path class="cls-7" d="M137.83,48.38a5.15,5.15,0,0,0-.16-1,5,5,0,0,0-4.48-3.91,1.22,1.22,0,0,0-.33,0c-11-4.33-23-4.95-34.66-4.23A110.92,110.92,0,0,0,81.93,41a18.25,18.25,0,0,0-8,3.57c-1,.55-1.93,1.12-2.88,1.72a38.53,38.53,0,0,0-3.28,3.83c-.91,4.8-2,9.57-2.6,14.42,0,.32-.08.64-.11,1a61.14,61.14,0,0,0-.09,7l.14.53c.34,1.28.74,2.57,1.2,3.83,1.6,2,3.25,3.94,5,5.81q2.34.35,4.68.78c1.7.05,3.4.15,5.1.29.13-1,.24-2,.38-3s.56-4.42,1.28-8.29A25.55,25.55,0,0,1,83,61.42c.64-2.43,1.86-4.85,4.12-6.14,2.56-1.47,5.54-1,8.19-.06a.73.73,0,0,1,.49.49,30.62,30.62,0,0,1,5.5,1.25l4.08.87c.51,0,1,0,1.53,0l5.32-.9a33,33,0,0,0,8.71.11c2.92-.38,6-1.63,8.92-1.25,1.54.19,2.92,1.66,4.4,2.2a6.73,6.73,0,0,1,.53.75.74.74,0,0,1,.55.54,5.73,5.73,0,0,1,.17,1,7.24,7.24,0,0,1,.24,1,.77.77,0,0,1-.27.7,1.14,1.14,0,0,0,.94-1c0-.13,0-.26,0-.38h0a7.89,7.89,0,0,0,.05-.84,9.24,9.24,0,0,0,1.9-4.89A18.91,18.91,0,0,0,137.83,48.38Z"/><circle class="cls-9" cx="88.79" cy="97.48" r="7.7"/><circle class="cls-10" cx="130.92" cy="97.77" r="7.7"/><circle class="cls-11" cx="102.26" cy="88.46" r="1.97"/><circle class="cls-11" cx="122.14" cy="87.39" r="1.97"/><path class="cls-12" d="M112.65,86.31s22.93,21.85-3.22,12.9"/><path class="cls-11" d="M140.52,45.85a4.61,4.61,0,0,0-5.16-3,4.57,4.57,0,0,0-1.73-1.15,4.62,4.62,0,0,0-1.4-.3,5.13,5.13,0,0,0-3.6-3.15,4.72,4.72,0,0,0-2.63.14,6.07,6.07,0,0,0-7-1.39,6,6,0,0,0-.9-.64,6,6,0,0,0-6.12.3,3.82,3.82,0,0,0-2.19-.11,2.44,2.44,0,0,0-2.22-1.35,51,51,0,0,0-8.9,2,1.08,1.08,0,0,0-.18,0l-1.35,0h0a2.13,2.13,0,0,1-.83-.69A2.1,2.1,0,0,0,93.64,36c-2.08-.64-4.91-.72-6,1.28l-.89.24a4.58,4.58,0,0,1-1.55.25L85,37.74a5.29,5.29,0,0,0-.52-.54A2.51,2.51,0,0,0,81.61,36a4.79,4.79,0,0,0-4.51,2.05v0a5.34,5.34,0,0,0-2.36,1.57,2.56,2.56,0,0,0-2.07,1.64A3.73,3.73,0,0,0,71,42.74a3.5,3.5,0,0,0-.48,2.42,2.72,2.72,0,0,0,0,.9,2.51,2.51,0,0,0-2.32-.43c-.54-.21-1.1-.4-1.65-.56a2.45,2.45,0,0,0-2.44.64,4.81,4.81,0,0,0,.48,6.67,4.48,4.48,0,0,0,0,.73,3.17,3.17,0,0,0,.2.72,5.14,5.14,0,0,0-1.76.45A2.51,2.51,0,0,0,62,55.78a2.61,2.61,0,0,0,.23,1.88,6.58,6.58,0,0,0-.46.92,1.9,1.9,0,0,0,0,1.29l-.33.16a4.33,4.33,0,0,0-2.06,2.53,5.24,5.24,0,0,0-1.48,4.62,4.42,4.42,0,0,0,3.54,3.58,2.7,2.7,0,0,0,.21,3.33,5.86,5.86,0,0,0,1.2,1.14,4,4,0,0,0,.8,1.91,2.57,2.57,0,0,0,3.94.51,4.3,4.3,0,0,0,1.2-1.55h0v0a6,6,0,0,0-.48,1.21,3.36,3.36,0,0,0,.88,3.22c1,.94,2.07.81,3.26,1.16a3.78,3.78,0,0,1,2.34,2.17,2,2,0,0,0,.26.38,2.62,2.62,0,0,0,1,1,2.61,2.61,0,0,0,4.26,1.19,2,2,0,0,0,2.21-.14,3.89,3.89,0,0,0-.42-6.62l0,0a2.65,2.65,0,0,0-3-1.7,2.46,2.46,0,0,0-2.65.26,8.46,8.46,0,0,0-1.81-1A5,5,0,0,0,77,74.09,5.4,5.4,0,0,0,76.22,70a6.43,6.43,0,0,0-1.61-1.68,3.78,3.78,0,0,0-.86-.57,2.57,2.57,0,0,0-2.36-2.58,2.67,2.67,0,0,0-.08-.48,5.31,5.31,0,0,0,1.23-5.19,6.28,6.28,0,0,0,1-5.64c0-.17-.12-.35-.18-.53a13.35,13.35,0,0,0,4-7.23A2.77,2.77,0,0,0,77.69,45a5.29,5.29,0,0,1,.16-1,4.77,4.77,0,0,0,3.72,1.54,2.58,2.58,0,0,0,2.51-2.5c0-.13,0-.25,0-.37a5.83,5.83,0,0,0,1.33.12,14.58,14.58,0,0,0,3.35-.63l.1.09a2.43,2.43,0,0,0,1.07,3A4,4,0,0,0,95.09,44l1.15-.52c.1.12.21.24.3.36a2.6,2.6,0,0,0,3.43.9,2.64,2.64,0,0,0,1.13-3,42,42,0,0,1,4.59-1.11c0,.11,0,.23.08.35a2.49,2.49,0,0,0,3.85,1.35,2.42,2.42,0,0,0,3.94.7,3.43,3.43,0,0,0,1-1.9.88.88,0,0,1,1-.2,7.12,7.12,0,0,0-.33,3.81,2.52,2.52,0,0,0,4.19,1.11A6.57,6.57,0,0,0,121,41.65a1.16,1.16,0,0,1,.81-.13,1.32,1.32,0,0,1,.94.82,5.37,5.37,0,0,0,.35,3.29c.77,1.67,2.93,1.49,4,.34a2.53,2.53,0,0,0,4.52.88,2.28,2.28,0,0,0,0,.26,2.66,2.66,0,0,0,.51,1.31l-1.12-.17c-3.15-.55-4.51,4.29-1.33,4.83,2.76.48,5.77.87,8.23-.79A6,6,0,0,0,140.52,45.85Z"/><path class="cls-11" d="M112.24,51.27a17.86,17.86,0,0,0-6,.23,28.24,28.24,0,0,0-5-.1,5.45,5.45,0,0,0-3.12-.76c-2.5.15-4.69,1.67-6.76,2.93l-1.11.67a2.44,2.44,0,0,0-1,.32l-.41.23c.1-.15.2-.29.31-.43a11.58,11.58,0,0,0,2.58-2.1c1.85-2-.56-5.56-3-3.94a16.57,16.57,0,0,0-2.58,2.08,2.3,2.3,0,0,1-.59.13c-.23,0-.67,0-.84-.19s.11-.12,0-.05c2.82-1.57.3-5.91-2.53-4.33A5.07,5.07,0,0,0,82,54.58a6.6,6.6,0,0,0,1.51.7A5.26,5.26,0,0,0,84,58l-.4.29c-2.48,1.9-.31,6.06,2.53,4.34l3.06-1.86a4.34,4.34,0,0,0,3.14-1.9l.93-.57c.1-.06.25-.15.42-.27,1.09,3.34,6.43,4.35,8.94,1.61a6.4,6.4,0,0,0,.41-.5,2.49,2.49,0,0,0,1.82-.26,8.4,8.4,0,0,0,2.89-2.53c.25-.05.5-.09.76-.12a15.19,15.19,0,0,1,3.75.09c1.35.18,2.49-1.27,2.51-2.51A2.57,2.57,0,0,0,112.24,51.27Z"/><path class="cls-11" d="M126.51,106a29.78,29.78,0,0,1-31,.66.54.54,0,0,0-.54.93,30.89,30.89,0,0,0,32.07-.66C127.63,106.52,127.1,105.59,126.51,106Z"/></g></svg>