<svg xmlns="http://www.w3.org/2000/svg" xmlns:xlink="http://www.w3.org/1999/xlink" viewBox="0 0 1366 768"><defs><style>.cls-1{mask:url(#mask);filter:url(#luminosity-noclip-4);}.cls-2,.cls-32,.cls-35,.cls-37,.cls-4,.cls-43,.cls-44,.cls-47,.cls-50,.cls-51,.cls-58,.cls-6,.cls-61,.cls-62,.cls-69,.cls-70{mix-blend-mode:multiply;}.cls-2{fill:url(#linear-gradient);}.cls-3{mask:url(#mask-2);}.cls-4{fill:url(#radial-gradient);}.cls-5{mask:url(#mask-3);}.cls-6{fill:url(#radial-gradient-2);}.cls-7{isolation:isolate;}.cls-8{fill:#f2f2f2;opacity:0.91;}.cls-9{fill:#99d1db;}.cls-10{mask:url(#mask-4);}.cls-11{opacity:0.73;fill:url(#linear-gradient-2);}.cls-12,.cls-71{fill:#f6e87f;}.cls-13{mask:url(#mask-5);}.cls-14{fill:url(#radial-gradient-3);}.cls-15{fill:url(#linear-gradient-3);}.cls-16{fill:#f6f9d3;}.cls-17{fill:#fff;}.cls-18{fill:#3f4a5f;}.cls-19{fill:#f7f1e1;}.cls-20{fill:#32686c;}.cls-21{fill:#29575a;}.cls-22{fill:#2f5f62;}.cls-23{fill:#f6ee7e;}.cls-24{fill:#f6ee92;}.cls-25{fill:#2a5358;}.cls-26{fill:#254c51;}.cls-27{fill:#7994a4;}.cls-28{fill:#8e7a79;}.cls-29{fill:#c8aba6;}.cls-30{fill:#667d8a;}.cls-31{fill:#4f616b;}.cls-32{fill:#bcc8c6;}.cls-32,.cls-47{opacity:0.44;}.cls-33{fill:#6a8391;}.cls-34{fill:#675056;}.cls-35{fill:#dda298;}.cls-35,.cls-43{opacity:0.77;}.cls-36{fill:#bb8381;}.cls-37{fill:#949e9e;opacity:0.76;}.cls-38{fill:#c6ddd4;}.cls-39{fill:#e2e7da;}.cls-40{fill:#77beca;}.cls-41{fill:#61acae;}.cls-42{fill:#559597;}.cls-43{fill:#ce978e;}.cls-44{fill:#bd9996;opacity:0.8;}.cls-45{fill:#c08d6c;}.cls-46{fill:#b5b6be;}.cls-48{fill:#b5b1b9;}.cls-49{fill:#c3c3c8;}.cls-50{fill:#b3bbc9;opacity:0.36;}.cls-51{fill:#b3afc4;opacity:0.68;}.cls-52{fill:#d3d7d7;}.cls-53{fill:#b5b9bc;}.cls-54{fill:#86888d;}.cls-55{fill:#87cadb;}.cls-56{fill:#79bbcb;}.cls-57{fill:#8b8e93;}.cls-58{fill:#b4a8a2;opacity:0.53;}.cls-59{fill:#a4383c;}.cls-60{fill:#f5f8bc;opacity:0.33;}.cls-61{fill:#b5857d;}.cls-62{fill:#d69d93;}.cls-63{mask:url(#mask-6);}.cls-64{opacity:0.83;fill:url(#radial-gradient-4);}.cls-65{fill:#a3d9e0;}.cls-66{fill:#3d3038;}.cls-67{fill:#65515e;}.cls-68{fill:#f9a61f;}.cls-69{fill:#edd5b8;}.cls-70{fill:#aeacb6;}.cls-71{opacity:0.96;}.cls-72{fill:#67b5cc;}.cls-73{fill:#9d8999;}.cls-74{fill:#838498;opacity:0.25;}.cls-75{filter:url(#luminosity-noclip-3);}.cls-76{filter:url(#luminosity-noclip-2);}.cls-77{filter:url(#luminosity-noclip);}</style><filter id="luminosity-noclip" x="519.69" y="-4172" width="436.66" height="32766" filterUnits="userSpaceOnUse" color-interpolation-filters="sRGB"><feFlood flood-color="#fff" result="bg"/><feBlend in="SourceGraphic" in2="bg"/></filter><mask id="mask" x="519.69" y="-4172" width="436.66" height="32766" maskUnits="userSpaceOnUse"><g class="cls-77"/></mask><linearGradient id="linear-gradient" x1="738.03" y1="767.43" x2="738.03" y2="614.1" gradientUnits="userSpaceOnUse"><stop offset="0"/><stop offset="0.58" stop-color="#979797"/><stop offset="1" stop-color="#fff"/></linearGradient><filter id="luminosity-noclip-2" x="610.59" y="-4172" width="248.69" height="32766" filterUnits="userSpaceOnUse" color-interpolation-filters="sRGB"><feFlood flood-color="#fff" result="bg"/><feBlend in="SourceGraphic" in2="bg"/></filter><mask id="mask-2" x="610.59" y="-4172" width="248.69" height="32766" maskUnits="userSpaceOnUse"><g class="cls-76"/></mask><radialGradient id="radial-gradient" cx="734.94" cy="582.47" r="124.35" gradientTransform="translate(1267.33 -189.51) rotate(86.19)" gradientUnits="userSpaceOnUse"><stop offset="0" stop-color="#fff"/><stop offset="0.02" stop-color="#f1f1f1"/><stop offset="0.09" stop-color="#bfbfbf"/><stop offset="0.17" stop-color="#919191"/><stop offset="0.25" stop-color="#6a6a6a"/><stop offset="0.34" stop-color="#494949"/><stop offset="0.43" stop-color="#2e2e2e"/><stop offset="0.53" stop-color="#1a1a1a"/><stop offset="0.65" stop-color="#0b0b0b"/><stop offset="0.78" stop-color="#030303"/><stop offset="1"/></radialGradient><filter id="luminosity-noclip-3" x="780.01" y="-4172" width="49.75" height="32766" filterUnits="userSpaceOnUse" color-interpolation-filters="sRGB"><feFlood flood-color="#fff" result="bg"/><feBlend in="SourceGraphic" in2="bg"/></filter><mask id="mask-3" x="780.01" y="-4172" width="49.75" height="32766" maskUnits="userSpaceOnUse"><g class="cls-75"/></mask><radialGradient id="radial-gradient-2" cx="210.6" cy="22925.34" r="35.06" gradientTransform="matrix(-0.71, 0, 0, 0.17, 954.29, -3321.1)" gradientUnits="userSpaceOnUse"><stop offset="0" stop-color="#fff"/><stop offset="0.17" stop-color="#bebebe"/><stop offset="0.33" stop-color="#848484"/><stop offset="0.49" stop-color="#555"/><stop offset="0.64" stop-color="#303030"/><stop offset="0.78" stop-color="#161616"/><stop offset="0.9" stop-color="#060606"/><stop offset="1"/></radialGradient><filter id="luminosity-noclip-4" x="519.69" y="614.1" width="436.66" height="153.34" filterUnits="userSpaceOnUse" color-interpolation-filters="sRGB"><feFlood flood-color="#fff" result="bg"/><feBlend in="SourceGraphic" in2="bg"/></filter><mask id="mask-4" x="519.69" y="614.1" width="436.66" height="153.34" maskUnits="userSpaceOnUse"><g class="cls-1"><path class="cls-2" d="M942.47,701c-7.05,1.18-17.63,3-19.39,11.76-2.94,15.86,35.25,25.85,10,34.67-11.74,4.1-27,1.76-39.36,1.76-17,0-34.67,0-51.69,3.52-6.89,1.45-29.4,6-42.48,14.68H592.18c.21-1.37.46-2.74.72-4.1,3-13.52,4.71-18.23-2.92-31.14-8.23-12.92-18.81-21.15-29.38-31.73-7.63-7.05-14.68-14.1-7.63-22.91,7-8.23,16.44-9.39,6.45-20.57-8.82-9.39-35.83-15.86-39.36-30-1.6-6.17,2.22-10.2,8-12.87C571.38,613,613,630,656.37,626.54c37-1.76,70.5-12.33,105.75-5.28,37,7,67,19.38,105.74,19.38a151.49,151.49,0,0,1,24,1.85,15.61,15.61,0,0,0-7.58,3.34c-8.82,8.81.58,18.8,8.81,23.49,17,10.57,45.82,5.89,59.92,20.57C961.85,699.28,951.28,699.28,942.47,701Z"/></g></mask><linearGradient id="linear-gradient-2" x1="738.03" y1="767.43" x2="738.03" y2="614.1" gradientUnits="userSpaceOnUse"><stop offset="0" stop-color="#fafafa"/><stop offset="1" stop-color="#f6efa1"/></linearGradient><mask id="mask-5" x="610.59" y="458.12" width="248.69" height="248.69" maskUnits="userSpaceOnUse"><g class="cls-3"><circle class="cls-4" cx="734.94" cy="582.47" r="124.34" transform="translate(104.96 1277.12) rotate(-86.19)"/></g></mask><radialGradient id="radial-gradient-3" cx="734.94" cy="582.47" r="124.35" gradientTransform="translate(1267.33 -189.51) rotate(86.19)" gradientUnits="userSpaceOnUse"><stop offset="0" stop-color="#f6f8af"/><stop offset="0.27" stop-color="#fafbcf"/><stop offset="0.55" stop-color="#fdfde9"/><stop offset="0.8" stop-color="#fefff9"/><stop offset="1" stop-color="#fff"/></radialGradient><linearGradient id="linear-gradient-3" x1="734.81" y1="611.37" x2="734.81" y2="543.91" gradientUnits="userSpaceOnUse"><stop offset="0.19" stop-color="#fdcf21"/><stop offset="0.35" stop-color="#fdcb20"/><stop offset="0.53" stop-color="#fcbe1e"/><stop offset="0.71" stop-color="#faa91a"/><stop offset="0.88" stop-color="#f98c15"/><stop offset="1" stop-color="#f77511"/></linearGradient><mask id="mask-6" x="780.01" y="657.23" width="49.75" height="12.19" maskUnits="userSpaceOnUse"><g class="cls-5"><path class="cls-6" d="M780,663.33c0,3.36,11.14,6.09,24.88,6.09s24.87-2.73,24.87-6.09-11.13-6.1-24.87-6.1S780,660,780,663.33Z"/></g></mask><radialGradient id="radial-gradient-4" cx="210.6" cy="22925.34" r="35.06" gradientTransform="matrix(-0.71, 0, 0, 0.17, 954.29, -3321.1)" gradientUnits="userSpaceOnUse"><stop offset="0" stop-color="#fff"/><stop offset="1" stop-color="#fff"/></radialGradient></defs><title>page1-bg-img</title><g class="cls-7"><g id="圖層_1" data-name="圖層 1"><circle class="cls-8" cx="795.23" cy="442.35" r="2.36"/><path class="cls-9" d="M1405.51,740.33c-20.59-1.38-40.54,6.06-63.45,2.54-21.15-3.53-44.06-1.77-65.21-5.29-45.82-8.81-88.12-33.49-133.94-42.3-49.35-8.81-96.94,5.29-146.29-12.34s-75.78-42.3-128.66-42.3c-38.77,0-68.73-12.33-105.75-19.38-35.24-7-68.73,3.52-105.74,5.28-44.06,3.53-86.36-14.1-130.42-12.33-29.29,2.17-105.42,15.27-156.85,21a23.22,23.22,0,0,0-3.85-.24c-23.61.5-47.21,1.07-70.81,1.49s-46.5-2.63-69.92-5a908,908,0,0,0-139.33-3.63c-28.05,1.43-55.94,4.34-83.76,8.14-5.62.77-11.93,6.63-14.65,11.26-3.07,5.25-4.37,13-2.46,18.88S-10,677.76-4.33,680.75A25.51,25.51,0,0,0,0,682.57v84.86H1467.2V740.5C1449.47,743.06,1430.19,742,1405.51,740.33Z"/><g class="cls-10"><path class="cls-11" d="M942.47,701c-7.05,1.18-17.63,3-19.39,11.76-2.94,15.86,35.25,25.85,10,34.67-11.74,4.1-27,1.76-39.36,1.76-17,0-34.67,0-51.69,3.52-6.89,1.45-29.4,6-42.48,14.68H592.18c.21-1.37.46-2.74.72-4.1,3-13.52,4.71-18.23-2.92-31.14-8.23-12.92-18.81-21.15-29.38-31.73-7.63-7.05-14.68-14.1-7.63-22.91,7-8.23,16.44-9.39,6.45-20.57-8.82-9.39-35.83-15.86-39.36-30-1.6-6.17,2.22-10.2,8-12.87C571.38,613,613,630,656.37,626.54c37-1.76,70.5-12.33,105.75-5.28,37,7,67,19.38,105.74,19.38a151.49,151.49,0,0,1,24,1.85,15.61,15.61,0,0,0-7.58,3.34c-8.82,8.81.58,18.8,8.81,23.49,17,10.57,45.82,5.89,59.92,20.57C961.85,699.28,951.28,699.28,942.47,701Z"/></g><path class="cls-12" d="M891.9,642.48a22.58,22.58,0,0,0-3.19.84c-6.38-.6-13.41-.37-20.46-.37-38.77,0-69.1-9.94-106.12-17-35.24-7.05-68.73,3.53-105.74,5.29-42.23,3.38-82.84-17.15-124.94-17.15,42.08-.25,82.71,15.81,124.94,12.43,37-1.77,70.5-12.34,105.74-5.29,37,7,67,19.39,105.75,19.39A150.1,150.1,0,0,1,891.9,642.48Z"/><g class="cls-13"><circle class="cls-14" cx="734.94" cy="582.47" r="124.34" transform="translate(104.96 1277.12) rotate(-86.19)"/></g><ellipse class="cls-15" cx="734.81" cy="577.64" rx="21.07" ry="33.73"/><path class="cls-16" d="M743.31,583.88a14.36,14.36,0,0,1-2.18,6.08c-1.36,2.09-3.35,4.08-7.81,3.63h0c-5.91-.77-8.46-8.66-6-14.07,2-4.55,7.63-8.17,5.7-14.81C738.93,568.22,744.62,576.56,743.31,583.88Z"/><path class="cls-17" d="M739.73,584.07c-.38,2-2,3.13-3.14,4.7a4.33,4.33,0,0,0-1,3.69,9.61,9.61,0,0,1-2.34,0h0a6.93,6.93,0,0,1-1.46-.36,5.49,5.49,0,0,1-1.61-2.23,4.65,4.65,0,0,1,1.19-4.36c1.26-1.37,3.07-2.25,4.26-3.63,1.56-1.85,1.1-3.69,1-5.78A7.77,7.77,0,0,1,739.73,584.07Z"/><path class="cls-18" d="M750.82,533.22a5.32,5.32,0,0,1-.28,1.7h0a.49.49,0,0,1,0,.11l-.11.29-4.27,10.85-2.65-1,2.64-6.72.62-1.56,1.06-2.71.09-.22a2.32,2.32,0,0,0,.1-.7,2.69,2.69,0,0,0-.08-.65l-.56-1-1.21-2.13L745.3,528l-6.2-11-.82-1.46-1.18-2.08-.61-1.09h0a2.34,2.34,0,0,0-3.36,0h0l-.61,1.09-1.18,2.08-.82,1.46-6.2,11-.82,1.44-1.2,2.13-.56,1a2.27,2.27,0,0,0-.09.65,2.69,2.69,0,0,0,.1.7l.09.22,1.06,2.71.62,1.56,2.64,6.72-2.65,1-4.26-10.85-.12-.29a.49.49,0,0,1,0-.11h0a5.25,5.25,0,0,1,.87-5l10-17.61a5.22,5.22,0,0,1,9.84,0L749.67,530A5.28,5.28,0,0,1,750.82,533.22Z"/><path class="cls-19" d="M734.8,543.89c-11.64,0-21.07,15.11-21.07,33.74s9.43,33.73,21.07,33.73,21.08-15.11,21.08-33.73S746.44,543.89,734.8,543.89Zm0,64.12c-9.61,0-17.63-17.08-17.63-33.55s8-29.14,17.64-29.14,18.63,18.89,18.63,35.37S744.41,608,734.8,608Z"/><rect class="cls-20" x="717.69" y="543.89" width="34.21" height="9.65"/><path class="cls-20" d="M760.5,621.32H709.1a12.82,12.82,0,0,1,12.81-12.81h25.78A12.81,12.81,0,0,1,760.5,621.32Z"/><rect class="cls-20" x="717.69" y="601.39" width="34.21" height="7.82"/><rect class="cls-21" x="715.05" y="596.41" width="39.5" height="5.22"/><rect class="cls-21" x="715.05" y="553.54" width="39.5" height="5.22"/><rect class="cls-22" x="707.56" y="621.32" width="54.75" height="5.16"/><rect class="cls-23" x="715.05" y="596.17" width="39.5" height="1.57"/><rect class="cls-24" x="715.05" y="557.26" width="39.5" height="1.74"/><rect class="cls-25" x="736.88" y="601.51" width="11.38" height="7.59"/><rect class="cls-25" x="736.88" y="543.89" width="11.38" height="9.65"/><path class="cls-25" d="M736.88,609.14l.13.12a6.58,6.58,0,0,1,1,1.28v0a23.8,23.8,0,0,1,3,10.8H757.6a13.5,13.5,0,0,0-9-12.1,2.06,2.06,0,0,0-.35-.12h-7.37l-.19.12h0l.19-.12Z"/><path class="cls-23" d="M719.83,532.11V534l3.85,9.91h-1.09l-3.37-8.58-.11-.28s0-.08-.05-.11h0a5.07,5.07,0,0,1-.29-1.71,5.33,5.33,0,0,1,1.15-3.27l10-17.6a4.87,4.87,0,0,1,.44-.92l-.32,2-9.62,17.22Z"/><path class="cls-23" d="M748.75,533.1v1.06l-.41.91L745,543.89h-1.07l2.15-5.48.62-1.57,1.06-2.71.09-.21a2.34,2.34,0,0,0,.1-.71,2.61,2.61,0,0,0-.08-.64l-.56-1-1.21-2.13-.82-1.45-6.19-11-.83-1.46-1.18-2.08-.61-1.09h0l-.18-.17.69.21,11.59,20Z"/><rect class="cls-26" x="740.44" y="597.73" width="11.98" height="3.9"/><polygon class="cls-23" points="721.13 553.54 717.7 553.54 717.7 543.89 720.05 543.89 721.13 553.54"/><polygon class="cls-23" points="718.19 559 715.05 559 715.05 553.54 717.23 553.54 718.19 559"/><path class="cls-23" d="M719.5,601.63v7.58c-2.48,1.16-8.31,4.13-8.31,12.11h-2.13a12.81,12.81,0,0,1,8.62-12.11h0v-7.58Z"/><polygon class="cls-23" points="716.61 601.77 714.92 601.77 714.92 596.17 717.2 596.17 716.61 601.77"/><path class="cls-27" d="M661.87,561.24,673.4,675.52a27.1,27.1,0,0,1-12,25.32,27.18,27.18,0,0,1-12.31,4.41l-68,6.86a27.15,27.15,0,0,1-29.74-24.28L539.87,573.55a27.15,27.15,0,0,1,24.28-29.74l68-6.85a27.14,27.14,0,0,1,29.73,24.28Z"/><path class="cls-28" d="M648.9,536.84l5.19,51.42a31.35,31.35,0,0,1-28,34.31l-38.86,3.92a31.32,31.32,0,0,1-34.31-28L547.71,547a27,27,0,0,1,16-7.38l68-6.86A27,27,0,0,1,648.9,536.84Z"/><path class="cls-29" d="M648.9,536.84l5.19,51.42a31.35,31.35,0,0,1-28,34.31l-38.86,3.92a31.32,31.32,0,0,1-34.31-28L547.71,547a27.43,27.43,0,0,1,9.89-6l5.69,56.41a20.91,20.91,0,0,0,22.87,18.68L625,612.18a20.92,20.92,0,0,0,18.68-22.87L638,532.9A27.38,27.38,0,0,1,648.9,536.84Z"/><path class="cls-30" d="M553.21,695.22c-.35.06-.71.1-1.06.13a27.81,27.81,0,0,1-30.44-24.87l-4.19-41.56a26.08,26.08,0,0,1-.1-4.23l.12-1.39a26.49,26.49,0,0,1,1.51-6.64c.17-.42.31-.83.51-1.25a20.37,20.37,0,0,1,1.35-2.78c.14-.27.3-.53.47-.8a8.34,8.34,0,0,1,.48-.79,6.14,6.14,0,0,1,.53-.8l0,0,2.17-1.42,1.2,1.33,1.74,1.93,2.34-2.86,1.52-1.86,2.3.55.16.4,1.73,4,1.41-4.71.25-.83,2.21-.22.17.44,1.25,3.22,2.28-4,8.23,81.68A27.13,27.13,0,0,0,553.21,695.22Z"/><path class="cls-31" d="M542.38,598.48l.78,7.67-2.28,4L539.63,607l-.17-.44-2.21.22-.25.83-1.41,4.71-1.73-4-.16-.4-2.3-.55-1.52,1.86-2.34,2.86-1.74-1.93-1.2-1.33-2.17,1.42A27.56,27.56,0,0,1,542.38,598.48Z"/><path class="cls-29" d="M542,594.32l.42,4.16a27.56,27.56,0,0,0-20,11.73c-.2.28-.39.55-.57.83a8.34,8.34,0,0,0-.48.79c-.17.27-.33.53-.47.8a20.37,20.37,0,0,0-1.35,2.78c-.2.42-.34.83-.51,1.25a27.87,27.87,0,0,0-1.51,6.64l-.12,1.39a28.63,28.63,0,0,0,.12,4.23l1.07,10.62a.74.74,0,0,1,0,.21,2.09,2.09,0,0,1-4.16.21l-1.07-10.62A32,32,0,0,1,542,594.32Z"/><path class="cls-32" d="M527.17,611.64l-3.28,7-2.82,11.14v.11l.22,12.63-2.3,1.14-.39-3.89a.74.74,0,0,0,0-.21l-1.07-10.62a28.63,28.63,0,0,1-.12-4.23l.12-1.39c.05-.58.14-1.14.22-1.71a28.07,28.07,0,0,1,.76-3.32c.18-.54.35-1.09.53-1.61s.31-.83.51-1.25a20.37,20.37,0,0,1,1.35-2.78c.14-.27.3-.53.47-.8a8.34,8.34,0,0,1,.48-.79c.18-.28.37-.55.57-.83l2.17-1.42,1.2,1.33Z"/><path class="cls-32" d="M553.21,695.26c-.35.06-.7.09-1.06.13a27.83,27.83,0,0,1-30.44-24.87l-.26-2.64,8.22,14.1,12.81,2.94,2.63-59.39,6.29,62.34A27.49,27.49,0,0,0,553.21,695.26Z"/><path class="cls-33" d="M673.09,683.13c.35,0,.71,0,1.06-.09A27.82,27.82,0,0,0,699,652.59L694.82,611a24.8,24.8,0,0,0-.75-4.16l-.39-1.35a26.14,26.14,0,0,0-2.81-6.2c-.25-.38-.47-.76-.74-1.13a21.37,21.37,0,0,0-1.88-2.44c-.2-.24-.41-.47-.62-.7a5.73,5.73,0,0,0-.64-.67,4.81,4.81,0,0,0-.67-.69l-.05,0-2.4-.95-.91,1.54-1.33,2.24-2.86-2.34-1.86-1.51-2.14,1-.09.43-.89,4.27L671.47,594l-.41-.75-2.21.22-.08.47-.57,3.4-3-3.5,8.23,81.68A26.8,26.8,0,0,1,673.09,683.13Z"/><path class="cls-34" d="M664.38,586.17l.78,7.67,3,3.5.57-3.4.08-.47,2.21-.22.41.75,2.32,4.35.89-4.27.09-.43,2.14-1,1.86,1.51,2.86,2.34,1.33-2.24.91-1.54,2.4.95A27.59,27.59,0,0,0,664.38,586.17Z"/><path class="cls-29" d="M664,582l.42,4.15a27.59,27.59,0,0,1,21.89,7.51,9.66,9.66,0,0,1,.72.71,5.73,5.73,0,0,1,.64.67c.21.23.42.46.62.7a21.37,21.37,0,0,1,1.88,2.44c.27.37.49.75.74,1.13a28,28,0,0,1,2.81,6.2l.39,1.35a27,27,0,0,1,.73,4.16l1.07,10.62a.72.72,0,0,0,0,.21,2.08,2.08,0,0,0,4.11-.63L699,610.62A32,32,0,0,0,664,582Z"/><path class="cls-35" d="M681.91,596l6.37,6.62L689.33,613h0l4.5,12.06,2.48.65-.39-3.88a.72.72,0,0,1,0-.21L694.8,611a27,27,0,0,0-.73-4.16l-.39-1.35c-.16-.55-.36-1.09-.56-1.62a25,25,0,0,0-1.41-3.11c-.28-.5-.56-1-.84-1.47s-.47-.76-.74-1.13a21.37,21.37,0,0,0-1.88-2.44c-.2-.24-.41-.47-.62-.7a5.73,5.73,0,0,0-.64-.67,9.66,9.66,0,0,0-.72-.71l-2.4-.95-.91,1.54Z"/><path class="cls-35" d="M673.09,683.17c.36,0,.71,0,1.07-.09A27.8,27.8,0,0,0,699,652.64l-.26-2.64-7.93,11-12.31,1.07-11.41-48.83,6.29,62.33A27.17,27.17,0,0,1,673.09,683.17Z"/><polygon class="cls-36" points="604.31 541.34 612.91 626.65 607.81 635.79 600.99 627.85 592.38 542.54 604.31 541.34"/><path class="cls-37" d="M607.7,619.47a1.52,1.52,0,1,1-1.66-1.36A1.51,1.51,0,0,1,607.7,619.47Z"/><path class="cls-37" d="M606.87,611.29a1.52,1.52,0,1,1-1.66-1.36A1.5,1.5,0,0,1,606.87,611.29Z"/><path class="cls-37" d="M606.05,603.1a1.52,1.52,0,1,1-1.66-1.35A1.52,1.52,0,0,1,606.05,603.1Z"/><path class="cls-37" d="M605.22,594.92a1.52,1.52,0,1,1-1.66-1.36A1.52,1.52,0,0,1,605.22,594.92Z"/><path class="cls-37" d="M604.4,586.74A1.53,1.53,0,0,1,603,588.4a1.51,1.51,0,0,1-1.66-1.35,1.52,1.52,0,1,1,3-.31Z"/><path class="cls-38" d="M609.72,594.89l-11.93,1.2a2,2,0,0,0-1.79,2.2l1.24,12.34a2,2,0,0,0,2.2,1.8l11.93-1.2a2,2,0,0,0,1.8-2.21l-1.25-12.34A2,2,0,0,0,609.72,594.89Zm1.45,14.33-11.94,1.21L598,598.09l11.93-1.21Z"/><path class="cls-39" d="M606.26,609.22a1.11,1.11,0,0,1-1,1.22h0a1.12,1.12,0,0,1-1.22-1l-.6-6a1.12,1.12,0,0,1,1-1.22h0a1.12,1.12,0,0,1,1.22,1Z"/><polygon class="cls-40" points="683.01 545.81 645.87 546.52 641.87 546.61 631.39 546.81 573.71 549.27 571.47 549.37 569.75 549.77 514.06 562.85 507.57 498.43 515.74 496.23 563.81 494.17 564.14 494.13 568.09 493.61 623.89 486.37 635.59 484.4 639.54 483.76 671.66 478.39 673.01 486.46 682.06 540.12 683.01 545.81"/><polygon class="cls-41" points="508.28 505.54 504.11 559.66 513.64 558.69 508.28 505.54"/><polygon class="cls-42" points="507.69 513.15 502.42 513.68 505.12 546.61 507.69 513.15"/><polygon class="cls-41" points="673.01 486.47 675.81 488.64 687.14 538.57 682.06 540.12 673.01 486.47"/><path class="cls-42" d="M677,493.69c0-.08,5,.28,5,.28l4.1,34.09-1.15.79Z"/><polygon class="cls-32" points="514.52 504.91 519.49 554.17 567.92 542.73 639.27 539.99 675.32 538.46 666.84 488.15 658.21 524.96 651.48 517.95 643.83 530.61 584.76 532.9 543.94 539.11 534.34 529.76 529.99 541.31 514.52 504.91"/><path class="cls-43" d="M661.87,561.23l.16,1.58-10.55-.37-.43-4.28-10.65-1.55-6.92-1-25.78,3.9-17,2.59-8.9,1.34-22-.41-10.07,4.21-10,4.17a26.92,26.92,0,0,1,4.54-15.69l4.19-1,10.25-2.42,12.73-3,17.85-.78,17.2-.72,24.87-1.06,8-.16,10.48-.19,5.63-.13A27,27,0,0,1,661.87,561.23Z"/><polygon class="cls-36" points="635.33 482.06 657.92 706.07 644.88 707.38 636.25 621.9 636.29 621.9 622.32 483.37 635.33 482.06"/><path class="cls-37" d="M650,676.57a1.66,1.66,0,1,1-1.82-1.49A1.67,1.67,0,0,1,650,676.57Z"/><path class="cls-37" d="M649.12,667.62a1.65,1.65,0,0,1-1.48,1.82,1.66,1.66,0,1,1,1.48-1.82Z"/><path class="cls-37" d="M647.32,649.72a1.66,1.66,0,1,1-3.3.33,1.66,1.66,0,0,1,3.3-.33Z"/><path class="cls-37" d="M646.42,640.77a1.66,1.66,0,1,1-3.3.33,1.64,1.64,0,0,1,1.48-1.81A1.67,1.67,0,0,1,646.42,640.77Z"/><path class="cls-38" d="M652.24,649.69l-13,1.32a2.19,2.19,0,0,0-2,2.39l1.36,13.51a2.2,2.2,0,0,0,2.4,2l13-1.31a2.21,2.21,0,0,0,2-2.41l-1.36-13.52A2.21,2.21,0,0,0,652.24,649.69Zm1.58,15.69-13.05,1.32-1.36-13.52,13.05-1.31Z"/><path class="cls-39" d="M648.45,665.37a1.22,1.22,0,0,1-1.08,1.33h0a1.22,1.22,0,0,1-1.34-1.09l-.66-6.53a1.21,1.21,0,0,1,1.09-1.33h0a1.2,1.2,0,0,1,1.33,1.09Z"/><polygon class="cls-36" points="563.64 489.29 586.24 713.29 573.19 714.61 564.57 629.13 564.61 629.13 550.63 490.6 563.64 489.29"/><path class="cls-37" d="M578.34,683.8a1.66,1.66,0,1,1-1.82-1.48A1.66,1.66,0,0,1,578.34,683.8Z"/><path class="cls-37" d="M577.44,674.85a1.66,1.66,0,1,1-1.82-1.48A1.66,1.66,0,0,1,577.44,674.85Z"/><path class="cls-37" d="M575.63,657a1.66,1.66,0,1,1-1.81-1.48A1.66,1.66,0,0,1,575.63,657Z"/><path class="cls-37" d="M574.73,648a1.66,1.66,0,1,1-1.82-1.48A1.66,1.66,0,0,1,574.73,648Z"/><path class="cls-38" d="M580.55,656.92l-13,1.31a2.22,2.22,0,0,0-2,2.4l1.37,13.51a2.2,2.2,0,0,0,2.4,2l13-1.31a2.23,2.23,0,0,0,2-2.41L583,658.87A2.21,2.21,0,0,0,580.55,656.92Zm1.58,15.69-13,1.31-1.37-13.51,13-1.31Z"/><path class="cls-39" d="M576.77,672.6a1.2,1.2,0,0,1-1.09,1.32h0a1.2,1.2,0,0,1-1.33-1.08l-.66-6.53a1.21,1.21,0,0,1,1.09-1.33h0a1.21,1.21,0,0,1,1.33,1.09Z"/><path class="cls-12" d="M698.16,623.53c0-37.87-27.2-39.39-34-39.45h0l.22,2.09.76,7.67,2,19.39h0l6.29,62.33a2.83,2.83,0,0,1,0,.29,2.4,2.4,0,0,1,0,.28l0,.47v.14s0,.1,0,.15,0,0,0,0h0c0,.13,0,.26,0,.39s0,.29,0,.44a.25.25,0,0,1,0,.09s0,0,0,0a11.61,11.61,0,0,1,0,1.18v.25a26.73,26.73,0,0,1-.42,3.82h0a27.11,27.11,0,0,1-9.25,15.9l-.19-11.87,1.49-3.2V666.13L663.23,661l-.1-6,2-5.08L663,646.1l-1-1.68-4.11-81.76,2.51-7.83c0,.1.07.19.1.28.11.31.21.63.3.95s.13.42.19.63l.22.85c0,.17.09.35.12.51a1.29,1.29,0,0,1,0,.19c.06.25.11.49.16.74v0c.13.72.24,1.47.32,2.21l.15,1.58L664,582a32,32,0,0,1,35,28.6L700,621.24A2.09,2.09,0,0,1,698.16,623.53Z"/><path class="cls-12" d="M682.06,540.12l1,5.69-17.86.34,4.1-7.13-.76-2.2,2.4-1.48,2.12-5.45-2.37-38.76-1.26-9.07,2.27-3.67,1.36,8.07h0l2.79,2.17,1.15,5.05c0-.08,5,.28,5,.28l4.1,34.09-1.15.79,2.21,9.72-5.08,1.54Z"/><path class="cls-44" d="M655.77,520.69c0,.55-.11,1.08-.18,1.62a52.73,52.73,0,0,1-5.85,17.24l-.63,0,.08,1a2.38,2.38,0,0,1-.17.31c-.3.55-.6,1.06-.9,1.57a36,36,0,0,1-3,4.11l-3.36.05-2.44.06h0l-1.77,0v0c0,1.2,0,2.39,0,3.59q0,3,.16,6c.54,15.44,2.24,30.51,3,45.91.21,4.53.35,9.1.35,13.72v1c0,9.18-.09,18.36-2.54,27.55h0a1.19,1.19,0,0,1-.07.23l.63,6.35a1.67,1.67,0,0,0-.68.23,2.11,2.11,0,0,0-1.27,2.16l1.37,13.5a2.18,2.18,0,0,0,1,1.61.46.46,0,0,0,.23.14,1.69,1.69,0,0,0,.28.12,1.21,1.21,0,0,0,.34.09,1.74,1.74,0,0,0,.56,0l3.7,36.82L590,711.21l-4,.39-.11,0,.18,1.67-13,1.32-.3-2.92v0a27.13,27.13,0,0,1-19.6-16.44,2.67,2.67,0,0,0-.14-.34,2.3,2.3,0,0,1,.12.34h-.07c-.35,0-.7.09-1.06.12a27.21,27.21,0,0,1-5.18,0c-.7-.07-1.41-.16-2.09-.27-.36,0-.71-.12-1-.19l-1-.23-.13,0c-.46-.12-.91-.24-1.37-.38a27.63,27.63,0,0,1-9.5-5.06,31.79,31.79,0,0,1-3-2.81h0a28,28,0,0,1-4-5.64,26.75,26.75,0,0,1-2-4.73,28.18,28.18,0,0,1-1.12-5.51l-.27-2.63.11.18,0-.18L519,643.64v0l-.39-3.85a1,1,0,0,1-.05.34l0-.36a2.09,2.09,0,0,1-1.86,2.09,2.79,2.79,0,0,1-.51,0,2.1,2.1,0,0,1-1.78-1.85l-1.06-10.61a32,32,0,0,1,28.57-35H542l-2.1-20.78c-.07-.72-.13-1.43-.13-2.15l-.07,0c0-.3,0-.6,0-.88s0-.58,0-.88a26.58,26.58,0,0,1,.73-5.22c.08-.38.19-.75.3-1.12s.21-.73.33-1.08.3-.9.48-1.34a27.1,27.1,0,0,1,1.53-3.22,21,21,0,0,1,1.16-1.93l-30.13,7.09v0l-.43-4.14h-.09l-9.44.95,1-13.06,0-.42V546l0,.54-2.71-32.83h.09l5.19-.51v0h.09l.55-7.1V506l0-.42-.73-7.12,8.18-2.2L551,494.71h.09l-.42-4.1,12.92-1.33v0l.49,4.83.09,0,3.87-.51,54.55-7.08-.31-3.14,13-1.32.23,2.34h0l3.93-.65,2.85-.48C652.93,490.62,656.77,509,655.77,520.69Z"/><path class="cls-45" d="M532.13,725.48a6.31,6.31,0,0,0,5.08,7.53h0a6.74,6.74,0,0,0,8.09-4.66l28.47-115.54a6.32,6.32,0,0,0-5.08-7.54h0a6.76,6.76,0,0,0-8.1,4.66Z"/><path class="cls-46" d="M578.58,602.28l-2.72,11.06c17.84-.2,35.12,7,49.31,16.92a15.27,15.27,0,0,1,2.51-1.4C616.3,614.35,597.75,605.29,578.58,602.28Z"/><path class="cls-46" d="M561.24,598.51l-2.73,11c-15.93-7.58-34.82-8.26-52.18-5.24a14.73,14.73,0,0,0-1.6-2.29C521.73,593.72,542.63,593.26,561.24,598.51Z"/><g class="cls-47"><path class="cls-48" d="M578.58,602.28l-2.72,11.06c1.48,0,3,0,4.44.11l1.88-10.53C581,602.69,579.78,602.47,578.58,602.28Z"/></g><g class="cls-47"><path class="cls-48" d="M551.81,606.83a64.85,64.85,0,0,1,6.7,2.73l2.73-11c-2.16-.61-4.36-1.15-6.57-1.6Z"/></g><polygon class="cls-49" points="561.51 597.4 557.92 611.98 575.26 615.76 578.86 601.19 561.51 597.4"/><path class="cls-24" d="M627.68,628.86a13.33,13.33,0,0,0-1.91,1C616,617.22,601.11,608.24,585,603.52,601.8,607.38,617.57,616,627.68,628.86Z"/><polygon class="cls-24" points="573.16 615.3 545.87 726.05 544.01 728.45 571.27 614.89 573.16 615.3"/><path class="cls-50" d="M545.56,596.91l-5.33,5.4a44.34,44.34,0,0,0-9.81-.67l5.39-5.39A86.14,86.14,0,0,1,545.56,596.91Z"/><path class="cls-50" d="M528.11,596.33l-5.42,5.42c-1.82.06-3.61.15-5.42.3l5.06-5C524.27,596.66,526.13,596.51,528.11,596.33Z"/><polygon class="cls-24" points="578.86 601.19 578.59 602.28 575.86 613.34 575.26 615.76 573.53 615.38 577.08 600.8 578.86 601.19"/><path class="cls-51" d="M569,600.8l-1,4.36-3.39,8.29-.14,7.44v.05l-17.4,59.78-9,42.65,2.08,5.37,3.1.67.74-1-.74,3.12h0a4.93,4.93,0,0,1-.8.58l-.4.23a5.37,5.37,0,0,1-.65.29l-.42.16-.53.15a7.87,7.87,0,0,1-1.68.19h-.42c-.23,0-.46,0-.7-.08l-.45-.08a6.31,6.31,0,0,1-5.07-7.53L560,612.43h0l3-13.19Z"/><path class="cls-52" d="M786.94,667.79v6.32h34.71v-6.32a4.63,4.63,0,0,0-1.36-3.28,4.58,4.58,0,0,0-3.28-1.37H791.6A4.66,4.66,0,0,0,786.94,667.79Z"/><rect class="cls-53" x="797.98" y="674.11" width="12.64" height="18.15"/><polygon class="cls-54" points="796.52 658.24 784.41 658.24 781.4 669.55 792.1 688.99 782.64 695.8 772.65 669.55 778.75 655.84 796.25 655.84 796.52 658.24"/><polygon class="cls-54" points="811.77 658.24 823.87 658.24 826.88 669.55 816.19 688.99 825.64 695.8 835.64 669.55 829.53 655.84 812.03 655.84 811.77 658.24"/><path class="cls-55" d="M776.42,712.3v14.11a27.74,27.74,0,0,0,1.32,8.5h52.79a27.75,27.75,0,0,0,1.33-8.5V712.3a27.72,27.72,0,1,0-55.44,0Z"/><rect class="cls-56" x="773.01" y="722.78" width="62.58" height="12.13"/><path class="cls-57" d="M816.45,668.33a1.92,1.92,0,1,0,1.91-1.91A1.92,1.92,0,0,0,816.45,668.33Z"/><path class="cls-57" d="M788.27,668.33a1.91,1.91,0,1,0,1.91-1.91A1.92,1.92,0,0,0,788.27,668.33Z"/><path class="cls-57" d="M811.22,668.33a1.91,1.91,0,1,0,1.91-1.91A1.92,1.92,0,0,0,811.22,668.33Z"/><path class="cls-57" d="M793.56,668.33a1.91,1.91,0,1,0,1.92-1.91A1.92,1.92,0,0,0,793.56,668.33Z"/><path class="cls-57" d="M805.43,668.33a1.91,1.91,0,1,0,1.91-1.91A1.92,1.92,0,0,0,805.43,668.33Z"/><path class="cls-57" d="M799.3,668.33a1.91,1.91,0,1,0,1.91-1.91A1.91,1.91,0,0,0,799.3,668.33Z"/><polygon class="cls-58" points="780.7 657.88 777.69 669.46 785.82 688.51 783.17 692.26 774.06 669.37 779.37 657.88 780.7 657.88"/><path class="cls-59" d="M775.44,630.13l0,5a10.93,10.93,0,0,0,10.82,11l-.05,9.5,35.67.22.25-39.4,1.59,0,0-4-38.86-.25,0,4h1.59v3.09A10.88,10.88,0,0,0,775.44,630.13Zm3,0a7.9,7.9,0,0,1,8-7.86l-.13,20.84a7.94,7.94,0,0,1-7.86-8Z"/><path class="cls-60" d="M801.45,603a13.86,13.86,0,0,0,3.62,5.95,20.45,20.45,0,0,1,3.58-14.74c4-5.76,8.62-9.81,10.2-18.93,1.25-8-1.72-13.41-5.74-16.22-.33,9.32-9.31,19.83-11.44,27.37A27.37,27.37,0,0,0,801.45,603Z"/><path class="cls-60" d="M797.15,603.94a26,26,0,0,1,1.66-16.44c1.73-3.48,4.94-7.25,3.89-13.82-.5-3.3-2.19-4.92-3.73-5.38.58,8.45-5.48,14.48-6.31,21.92C791.86,597.12,794.46,601.42,797.15,603.94Z"/><path class="cls-24" d="M775.27,635.1a11,11,0,0,0,6.37,10C778,643,776.4,640,776.4,631.44s6.1-10.66,13.06-12.12l-1.32-3.52v-3.6h-.52l-2.87-.11-.08,4.19,1.62-.06v3.09A11,11,0,0,0,775.1,630.1Z"/><polygon class="cls-24" points="786.01 655.72 790.09 655.64 789.02 647.48 786.15 646.12 786.01 655.72"/><path class="cls-24" d="M781.73,695.84a27.58,27.58,0,0,0-5.41,16.45v10.49h2.37c-.93-6.62-1-12.71-.24-17a23.76,23.76,0,0,1,2.95-6.93l.1-.17c.93-1.53,1.69-2.55,1.69-2.55l-.07-.78-.09-1.17-.87-2.34-8.27-22.33,6.2-12.59,5-1.12-6.48-.07-6.1,13.78,9.42,24.58.37,1C782.1,695.35,781.91,695.59,781.73,695.84Z"/><path class="cls-24" d="M816.82,687.69c.56.29,1.11.59,1.64.91l10-19.05-3.77-11.07-.89-.24,3,11.31Z"/><polygon class="cls-24" points="824.66 658.47 823.78 658.24 824.66 658.48 824.66 658.47"/><polygon class="cls-24" points="786.09 643.13 789.02 644.48 789.02 623.05 788.43 622.89 786.3 622.29 786.25 630.06 786.25 630.07 786.09 643.13"/><path class="cls-61" d="M772.92,722.78v12.13H835.5V722.78h-3.74V712.29a27.64,27.64,0,0,0-6-17.17l9.73-25.57-6.11-13.71H811.94l-.27,2.4h12.11l.88.24,3.78,11.07-10,19.06c-.54-.33-1.08-.63-1.65-.92s-1-.49-1.48-.71a26.62,26.62,0,0,0-4.8-1.64V674.11h11v-6.32a4.7,4.7,0,0,0-4.65-4.66H793.56a4.67,4.67,0,0,0-4.54,3.61,5.2,5.2,0,0,0-.12,1v6.32h9v3h3.23v7.61l-3.23.54a27.45,27.45,0,0,0-6.6,2.42L784,674.51l-2.74-5,3-11.31h12.12l-.27-2.4H785.07l-5,1.12-6.2,12.59,8.27,22.33.87,2.34.1,1.17.06.78s-.82,1.1-1.78,2.72a23,23,0,0,0-3,6.93c-.82,4.38-.64,10.12.37,17Z"/><rect class="cls-24" x="772.7" y="722.78" width="3.28" height="11.48"/><polygon class="cls-62" points="803.35 616.09 803.35 655.67 818.65 655.67 820.45 616.09 822.91 616.09 822.91 612.44 804.88 612.36 804.88 615.97 803.35 616.09"/><polygon class="cls-24" points="801.11 677.12 797.88 677.12 797.88 685.27 801.11 684.74 801.11 677.12"/><g class="cls-63"><path class="cls-64" d="M780,663.33c0,3.36,11.14,6.09,24.88,6.09s24.87-2.73,24.87-6.09-11.13-6.1-24.87-6.1S780,660,780,663.33Z"/></g><polygon class="cls-65" points="821.1 667.06 818.59 669.85 816.09 666.83 818.36 662.11 821.1 667.06"/><polygon class="cls-65" points="809.89 667.06 807.38 669.85 804.89 666.83 807.16 662.11 809.89 667.06"/><polygon class="cls-65" points="787.73 667.06 790.23 669.85 792.73 666.83 790.46 662.11 787.73 667.06"/><polygon class="cls-65" points="815.4 667.06 813.16 669.62 810.96 667.06 813.18 662.33 815.4 667.06"/><polygon class="cls-65" points="797.74 667.06 795.5 669.62 793.3 667.06 795.52 662.33 797.74 667.06"/><polygon class="cls-65" points="803.48 667.06 801.24 669.62 799.04 667.06 801.25 662.33 803.48 667.06"/><polygon class="cls-17" points="819.89 667.78 818.59 669.23 817.29 667.66 818.47 665.2 819.89 667.78"/><polygon class="cls-17" points="808.69 667.78 807.38 669.23 806.08 667.66 807.27 665.2 808.69 667.78"/><polygon class="cls-17" points="788.93 667.66 790.23 669.1 791.53 667.54 790.35 665.08 788.93 667.66"/><polygon class="cls-17" points="814.33 667.78 813.17 669.1 812.03 667.78 813.18 665.32 814.33 667.78"/><polygon class="cls-17" points="796.67 667.66 795.51 668.99 794.37 667.66 795.52 665.2 796.67 667.66"/><polygon class="cls-17" points="802.41 667.66 801.25 668.99 800.1 667.66 801.25 665.2 802.41 667.66"/><path class="cls-66" d="M713.63,717.52c-6.61-1.14-12.39-3.64-18.41-6.23-3-1.28-6-2.61-9.29-3.8-6.35-2.15-12.64-2.25-19.3-2.35-3,0-6.09-.1-9.24-.34l-.47,0c-11.94-1.06-34.16-3-39.93-15.08-4-8.64-2-16.82,5.48-21.92,7.85-5.38,21-2.92,30.22-.6,6.41,1.59,11.86,4.35,17.14,7,3,1.53,6,3,9.06,4.26l.12-.37c5.42,1.76,13.83,1.06,22.75.32,17.77-1.47,37.92-3.14,42.83,14.06v.06c1.22,5.16-.08,12.23-3.23,17.6-2.65,4.71-8.32,7.32-17.32,8A44.06,44.06,0,0,1,713.63,717.52Zm-32.94-14.24a42.22,42.22,0,0,1,6.24,1.57c3.37,1.24,6.49,2.58,9.49,3.88,9,3.87,16.73,7.21,27.35,6.53,7.91-.57,12.8-2.7,15-6.53,2.79-4.75,4-11.17,2.95-15.63-2.27-7.93-8.48-11.19-16.41-12.29a24.9,24.9,0,0,1,9,3.9,15.68,15.68,0,0,1,6.48,11.43c.63,6.57-1.26,11.35-5.6,14.23-10.11,6.7-30.88.78-40.46-3.29-17.15-6.78-27-8.55-50.3-9-5.42-.1-15.34-1.08-20.72-6.51a12.27,12.27,0,0,1-3.58-9.64c.25-4.78,2.09-8.65,5.33-11.2,3.43-2.71,8.33-3.77,14.17-3.08,9,1,17.4,5,25.5,8.88,9.1,4.37,18.52,8.9,28.7,8.85a82.76,82.76,0,0,0,10.95-.87c9.05-1.09,19.31-2.33,26.3,2.17a14,14,0,0,1,6,13.61,11.08,11.08,0,0,1-8.17,9.38c-7.31,2-16.08-.39-24.26-3.54-6.78-1.4-15.27-4.28-25.8-9.61a142.8,142.8,0,0,0-29.43-3.62c-6.21-.13-17.72-2-21.45-7.91-1.76-2.79-1.61-6,.45-9.64,1.61-3,4.37-4.57,7.82-5.09a13.84,13.84,0,0,0-8.79,2.66c-2.6,2-4.08,5.22-4.28,9.2a9.48,9.48,0,0,0,2.74,7.55c3.38,3.39,10.14,5.43,18.56,5.59,23.46.44,34,2.33,51.45,9.22,10.53,4.47,29.19,9.09,37.54,3.55,3.44-2.28,4.91-6.21,4.38-11.7a12.7,12.7,0,0,0-5.29-9.42c-6.38-4.66-18.23-5.76-35.22-3.26-11.55,1.73-19.94-2.51-28.83-7-5.12-2.59-10.41-5.27-16.47-6.78-8.62-2.17-20.88-4.5-27.72.18-9,6.16-6.17,15-4.54,18.52,5,10.5,26.1,12.36,37.42,13.37l.45,0c3,.24,6.08.28,9,.32A91.25,91.25,0,0,1,680.69,703.28Zm37,3.83a23.81,23.81,0,0,0,10.25-.12,8.38,8.38,0,0,0,6.12-7.12A11.3,11.3,0,0,0,729.41,689c-3.82-2.45-9.11-2.88-14.64-2.6a22,22,0,0,1,4.75.71c3.82,1,10.94,2.78,11.42,11.2.12,2.16-1.6,4.57-4.49,6.26A20.87,20.87,0,0,1,717.69,707.11Zm-12-3.57c10.89,2.17,16.64.11,19.12-1.36s3.17-3,3.12-3.78c-.35-6.31-5.23-7.55-9.15-8.55-4.09-1.11-8.67-.58-13.1-.06-2.22.25-4.52.52-6.71.57-8.28.42-14.74-2-22.21-4.8l-1.51-.56c-1.48-.57-3.5-1.48-5.83-2.54-11.71-5.27-33.5-15.07-38.38-5.77l0,0c-1.56,2.72-1.74,5-.54,6.89,2.83,4.51,12.85,6.34,18.89,6.48,10.42.25,25.76,1.59,39.67,6.55,2.48.92,5.18,2.08,8,3.31S702.72,702.39,705.7,703.54Z"/><path class="cls-67" d="M633.64,707.34a45.7,45.7,0,0,1-11-3.37c-9.1-4.15-14-9.22-14.93-15.48-1.21-7.14.15-15.48,3.38-20.73l0-.06c11.66-17.2,31.91-7.65,49.77.78,9,4.22,17.42,8.22,23.7,8.33v.46c3.64-.19,7.29-.72,11-1.26,6.49-.94,13.2-1.91,20.45-1.24,10.44,1,25,3.26,31.1,12.23,5.76,8.5,4.76,18.36-2.69,26.39-10.6,11.18-34.39,4.86-47.17,1.47l-.48-.13c-3.38-.94-6.61-2.06-9.73-3.16-6.94-2.43-13.5-4.72-21-4.77-3.79.08-7.47.38-11,.66C647.87,708,640.92,708.6,633.64,707.34ZM613.9,669.52c-2.8,4.56-4,12.13-2.92,18.44.77,5.1,5,9.34,13,13,10.74,4.82,20,4.08,30.83,3.21,3.62-.29,7.36-.58,11.28-.67,8,0,15.18,2.55,22.07,5,3.07,1.07,6.25,2.18,9.5,3.09l.47.12c12.12,3.22,34.68,9.2,43.91-.53,3-3.26,9.33-12,2.36-22.27-5.3-7.8-18.9-9.9-28.67-10.79-6.86-.64-13.37.31-19.66,1.22-10.93,1.59-21.25,3.08-32.56-3.25-16.66-9.27-29.36-12.59-37.75-9.84a14.73,14.73,0,0,0-9.1,8.43c-2.64,5.87-2.62,10.8.07,14.64,6.54,9.34,27.64,11.35,40.23,10.42,20.73-1,32.42,1,56.9,9.44,8.79,3,16.58,3.37,21.37.89a11.29,11.29,0,0,0,5.74-7.31c1.3-4.5,1-8.6-.92-11.86a15,15,0,0,0-8.1-6.3,11.18,11.18,0,0,1,6.15,8.63c.76,4.79-.32,8.44-3.21,10.87-6.14,5.17-18.77,2.79-25.26.57a147.07,147.07,0,0,0-31.89-7.23c-13,1.88-22.86,1.83-30.42.79-9.68.37-19.68-.32-26.48-5.33A13.15,13.15,0,0,1,616,679.3c1.22-6.18,5.8-11.34,11.38-12.81,9-2.32,19.12,3,28.09,7.64a86.14,86.14,0,0,0,11,5.14c10.57,4,22.07,2.54,33.18,1.16,9.88-1.22,20.1-2.48,29.84-.08,6.3,1.46,11,4.51,13.49,8.83,2.38,4.06,2.81,9.06,1.24,14.45a14.57,14.57,0,0,1-7.39,9.33c-7.66,3.95-18.3,1.25-24-.71-24.29-8.41-35.2-10.23-55.62-9.26-11.44.85-35.23-.53-43.14-11.82-3.41-4.86-3.53-10.88-.37-17.91a18.17,18.17,0,0,1,11.08-10.21,25.86,25.86,0,0,1,10.86-.88C627,660.35,619.28,661.59,613.9,669.52Zm21.56,0a17.27,17.27,0,0,0-7.28.13c-4.31,1.14-8,5.36-9,10.26a10,10,0,0,0,3.63,10.25,24.55,24.55,0,0,0,10.58,4,22.65,22.65,0,0,1-8.13-6.15c-2.34-3-3.21-6.32-2.25-8.67,3.71-9.14,11.78-8.43,16.12-8a23.39,23.39,0,0,1,5.19,1A40.43,40.43,0,0,0,635.46,669.56Zm5.16,5.32c-.56-.09-1.13-.17-1.7-.21-4.5-.39-10-.88-12.81,6-.34.82-.14,2.93,1.79,5.38s7.19,7.07,19.3,8.83c3.53-.13,7-.42,10.31-.68s6.66-.53,9.56-.61c16.33-.18,32.75,4.2,43.65,7.9,6.31,2.17,17.4,4,22.06,0,2-1.66,2.65-4.22,2.07-7.85v-.06c-1.5-12.17-27.84-9.62-42-8.26-2.83.27-5.26.52-7,.58l-1.8.05c-8.82.25-16.44.47-24.91-3.18-2.2-.88-4.49-2-6.69-3.19C648.62,677.63,644.65,675.58,640.62,674.88Z"/><polygon class="cls-68" points="668.54 669.72 660.84 708.89 674.41 709.19 688.02 713.59 691.4 674.6 679.03 673.78 668.54 669.72"/><polygon class="cls-69" points="689.05 676.86 682.59 702.9 682.19 679.31 678.08 680.36 675.75 678.07 672.33 703.78 675.71 703.81 685.92 710.34 675.13 707.14 664.58 706.65 670.41 672.94 678.42 676 689.05 676.86"/><path class="cls-70" d="M694.68,679.5c-1.26.18-2.5.36-3.74.51l.29-3.38c1.23-.15,2.46-.34,3.7-.51Z"/><path class="cls-70" d="M694.27,685.22l-1.4.14-2.41.23.36-4.16q1.88-.16,3.75-.39Z"/><path class="cls-70" d="M692.77,706.06c-1.37-.34-2.7-.65-4-.94l.29-3.3c1.29.28,2.61.58,4,.92Z"/><path class="cls-70" d="M692.25,713.34c-1.39-.45-2.74-.92-4.07-1.38l.29-3.42c1.32.47,2.66,1,4,1.4Z"/><path class="cls-70" d="M661.87,703.67l-.65,3.35c-1.23.07-2.45.16-3.65.26l.67-3.38C659.44,703.82,660.65,703.73,661.87,703.67Z"/><path class="cls-70" d="M666.66,679.37l-1.1,5.54c-1.09-.26-2.19-.56-3.31-.94l1.18-5.88c1,.46,2,.86,3,1.19Z"/><path class="cls-70" d="M668.14,671.83,667,677.75c-1.05-.46-2.11-1-3.17-1.56l1.17-5.8C666,670.89,667.1,671.37,668.14,671.83Z"/><path class="cls-70" d="M693.21,700c-1.29-.29-2.59-.56-3.93-.82l.29-3.32c1.31.25,2.61.52,3.88.8Z"/><path class="cls-70" d="M663.83,693.73l-1,5.09c-1.24,0-2.43.07-3.58.08l1-4.91C661.47,693.89,662.67,693.8,663.83,693.73Z"/><path class="cls-70" d="M662.69,699.5l-.65,3.32-3.6.12.67-3.34C660.33,699.56,661.53,699.52,662.69,699.5Z"/><path class="cls-71" d="M748.18,688.41c-6.76-8.19-20.78-10.61-31-11.74-7.56-.82-14.56.06-21.36.94l-.7.09c-.53.07-1.06.14-1.61.19l-2.27.27.18-1.78,2-.27,1.53-.21.67-.11c6.5-.95,13.2-1.92,20.46-1.25,10.44,1,25,3.26,31.09,12.23C747.53,687.32,747.87,687.87,748.18,688.41Z"/><polygon class="cls-71" points="691.4 674.6 691.26 676.26 678.59 675.19 668.29 670.99 668.54 669.72 679.04 673.78 691.4 674.6"/><path class="cls-71" d="M667.55,671.55l-.3,1.4c-.23-.11-.44-.2-.65-.32-.86-.39-1.73-.81-2.61-1.23l-4.21-2.08c-9.92-4.89-20.52-10.12-30.16-11.19,9.8.21,20.94,5.46,31.29,10.34l4.07,1.92,2.52,1.15Z"/><path class="cls-72" d="M1346.76,767.43h-937L408,721c44.24,8.74,84.47-10.23,128.62-13.38,40.54-3.53,84.6-1.77,125.13-3.53,44.07-3.52,77.55,12.34,119.85,22.91,38.78,7,73.44-8,110.45-8,40.54,0,78.13,22.13,118.67,15.08,35.25-5.28,74-8.66,111,.15,33.48,8.82,68.73,3.38,104,15.72C1243.7,756.17,1330.42,762.41,1346.76,767.43Z"/><path class="cls-72" d="M995,767H0V720.28c44.24,8.74,140.75-9.94,184.9-13.1,40.53-3.52,84.59-1.76,125.13-3.52,44.06-3.53,77.55,12.33,119.85,22.91,38.77,7,73.43-8,110.45-8,40.53,0,78.13,22.14,118.67,15.09,35.25-5.29,74-8.66,111,.15,33.49,8.81,68.74,3.37,104,15.71C892,755.74,978.7,762,995,767Z"/><g class="cls-47"><path class="cls-73" d="M1183.3,767.43H0V747.29c30.7,11.44,320.11,8.52,349,3.71,35.25-5.29,228.16-6,263.41-.7,31.72,7.05,52.87,0,84.59,0,18.88,0,101.79,18.39,73.6-26.2q5.4,1.5,11,2.9c19.49,3.55,37.95,1.5,56.19-1.42,20.74,28.74,61.83,18,91.86,23,35.25,3.53,67,5.29,104,7.05,31.73,1.76,61.69,3.53,93.41,3.53C1147.65,758.32,1165.76,762.17,1183.3,767.43Z"/></g><path class="cls-24" d="M771.17,629.22H701.26c5.15-1.76,11.31-4.4,16.45-5.87s9.26-.58,14.54-.58c2.79,0,5.59.14,8.23,0,2.21-.16,3.67-.88,5.57-1.32,4.13-.74,7.21,1.6,10.88,2.79a33.86,33.86,0,0,0,7.79,1.32C767.8,625.7,768.82,627.32,771.17,629.22Z"/><path class="cls-12" d="M742.56,719.26c8.89,3.46,18.07,4.19,27.39,6.24,8.35,1.84,4.86,0,.42-1.76-8.9-3.46-17.24-4.48-26.06-8.1-2.8-1.15-6.7,2.15-1.75,3.62Z"/><path class="cls-12" d="M841.08,725.87c19.45.49,34.83-1.27,54.15-2.8,22.4-1.78,43.56,5.48,65.28,9.77,18.24,3.6,37.2,5.59,55.73,3.1,21.34-2.86,44.34-8.33,65.64-6.18,3.28.34,9-.12,3.45-1.61-16.71-4.48-34.09-1.7-51,.54-10.94,1.44-21.71,3.44-32.78,3.77-12.3.36-24.68-1.47-36.74-3.73-20.18-3.78-39.67-10.38-60.36-10.56-21.72-.18-43,3.8-64.75,5.32-1.63.11-4.53,2.23,1.42,2.38Z"/><circle class="cls-8" cx="834.41" cy="762.67" r="3.67"/><path class="cls-74" d="M553.53,696.26c-.35.06-.72.09-1.07.13A27.84,27.84,0,0,1,523.15,677a28.19,28.19,0,0,1-1.13-5.51l-.26-2.65-1.54-15.26c-5,4.07-8.24,5.71-18.57,6.93-8.81.88-22.91,10.57-31.73,7.05-9.69-4.41-5.28-14.1-11.45-21.15-6.79-7.35-16.85-7.81-22.7-13.26-6.88,1-21.93,7.63-28.77,7.82-.94-.16-18,2.08-19,2-18.55-1.44-30,3-37,8s-11,11-12.92,22.38c-2.35,13.88,9.79,24.84,20.77,32.58C363,708.9,382,713,412,722c44,7,89-14,124.9-13.38,8.1.14,16.28-1.2,24.58-1.54A27.26,27.26,0,0,1,553.53,696.26Z"/><circle class="cls-8" cx="69.43" cy="411.8" r="2.36"/><circle class="cls-8" cx="347.43" cy="527.8" r="2.36"/></g></g></svg>