<svg xmlns="http://www.w3.org/2000/svg" viewBox="0 0 515 416"><defs><style>.cls-1{isolation:isolate;}.cls-2{fill:#8eb2c2;}.cls-3{fill:#e0dbdf;}.cls-4{fill:#728e9b;}.cls-5{fill:#91cbcd;}.cls-6{fill:#e4dfe3;}.cls-7{fill:#7bafb0;}.cls-8{fill:#afb2be;opacity:0.64;}.cls-17,.cls-23,.cls-24,.cls-27,.cls-30,.cls-31,.cls-32,.cls-33,.cls-34,.cls-8{mix-blend-mode:multiply;}.cls-9{fill:#45363f;}.cls-10{fill:#806677;}.cls-11{fill:#f9a61f;}.cls-12{fill:#f3f7f7;}.cls-13{fill:#a1d6ca;}.cls-14{fill:#b3be41;}.cls-15{fill:#f4ea25;}.cls-16{fill:#ced242;}.cls-17{fill:#bcc8c8;}.cls-18{fill:#775f6f;}.cls-19{fill:#bbd5d8;}.cls-20{fill:#f6761e;}.cls-21{fill:#5f6795;}.cls-22{fill:#fff;}.cls-23{fill:#9f9f9f;opacity:0.62;}.cls-24,.cls-31,.cls-34{fill:#d0b6aa;}.cls-24{opacity:0.81;}.cls-25{fill:#fabf66;}.cls-26{fill:#b5b6c0;}.cls-27,.cls-30{opacity:0.44;}.cls-28{fill:#b5b1bb;}.cls-29{fill:#c3c3cc;}.cls-30{fill:#c7a97c;}.cls-32{fill:#ce978c;}.cls-33{fill:#b6a095;}.cls-34{opacity:0.86;}</style></defs><title>maptool</title><g class="cls-1"><g id="圖層_1" data-name="圖層 1"><path class="cls-2" d="M511.79,158.62a19.55,19.55,0,0,1-.72,3.53l-.07.27-.6,1.74L502,188.5l-.14.41a18.38,18.38,0,0,1-35.7-7.66l6.17.69A12.18,12.18,0,0,0,496,186.86l9.13-26.45a13.4,13.4,0,0,0,.51-2.49A15.21,15.21,0,0,0,475.49,154l-6.15-.71a21.39,21.39,0,0,1,42.45,5.36Z"/><rect class="cls-3" x="468.45" y="151.51" width="7.35" height="8.42" transform="translate(264.16 607.28) rotate(-83.53)"/><rect class="cls-4" x="462.29" y="168.4" width="16.17" height="5.33" transform="translate(247.66 619.29) rotate(-83.56)"/><polygon class="cls-3" points="474.06 175.92 473.23 183.21 464.86 182.27 465.7 174.96 474.06 175.92"/><path class="cls-5" d="M486.43,157.07a21.45,21.45,0,0,1,.84,3.48l.05.31.18,1.81,2.66,25.62,0,.44a18.38,18.38,0,0,1-35.59,8.13l5.87-2a12.19,12.19,0,0,0,23.56-5.56l-2.89-27.83a15.21,15.21,0,1,0-29.6,6.68l-5.87,2a21.4,21.4,0,0,1,40.74-13.08Z"/><polygon class="cls-6" points="452.09 166.38 454.41 173.35 446.43 176.02 444.09 169.05 452.09 166.38"/><rect class="cls-7" x="451.48" y="177.76" width="5.33" height="16.17" transform="translate(-35.47 153.25) rotate(-18.45)"/><rect class="cls-6" x="452.5" y="189.82" width="8.42" height="7.36" transform="translate(-37.79 154.79) rotate(-18.48)"/><path class="cls-8" d="M482.58,143.25a14.35,14.35,0,0,0-3.82,3.34,21.38,21.38,0,0,0-5.57-2.94,21.89,21.89,0,0,1,3.14-3.45A19.47,19.47,0,0,1,482.58,143.25Z"/><path class="cls-8" d="M476.68,152.91l-.47,4c-2-2.08-5.12-2.91-8.08-3.39l.23-1.91,1.25.15a18.4,18.4,0,0,1,.69-2.5,15.43,15.43,0,0,1,5.56,2.94.88.88,0,0,0-.06.28l.45.06Z"/><path class="cls-8" d="M483.27,195.13a12.44,12.44,0,0,1-4.2,5.45,18,18,0,0,1-4.57-2.13,15,15,0,0,0,2.39-2.09,13.59,13.59,0,0,0,1.89-2.58,11.67,11.67,0,0,0,4.26,1.33Z"/><path class="cls-8" d="M493.84,190.69a14.69,14.69,0,0,1,.5,7.77,17.69,17.69,0,0,1-7.3,2.72,18.47,18.47,0,0,0,3-7.41A12.25,12.25,0,0,0,493.84,190.69Z"/><path class="cls-9" d="M21.6,178.3c2.64-16,9.06-29.9,19-41a77.43,77.43,0,0,1,7.6-7.33c18.61-19.87,45.88-29.85,76-27.49a93,93,0,0,1,53.7,22.92,66.18,66.18,0,0,1,10.89,11.4c.4.49.82,1,1.22,1.54,18.28,23.59,25.81,55.07,20.68,86.33l-6.35-1c-6.51,29.19-24.59,52.51-51.27,63.92-25.7,11.51-51,12.43-73.07,2.62C59.38,281,42.84,262.7,32.8,238.08a70.35,70.35,0,0,1-12.35-35.91A110.37,110.37,0,0,1,21.6,178.3ZM53,135.11c-1.44,1.54-2.8,3.16-4.12,4.85-18.24,23.25-23,55.75-12.74,86.93.86,2.67,1.81,5.29,2.83,7.82,10.62,15.16,27.41,26,45.71,32.44C67.92,258.33,53,242.45,41,220.05c-13.56-25.27,7.74-72.61,27.82-87.79,18.2-13.62,46.05-15.2,70.45-9.12,15.74,2.35,28.06,7.91,36.77,16.67a48.73,48.73,0,0,1,4.6,5.33c21.66,22.9,21.41,60.38,6.79,86.59-14.86,27.2-36,54.23-80.48,47.94-19.85-2.82-40.1-10.43-56-22.7,8.63,12.15,19.49,21.37,31.94,26.91,20.23,9,43.57,8.05,67.47-2.64,36.17-15.47,55.16-54.87,48.46-100.46-2.78-16.27-7.78-29.35-15.22-39.43a90.46,90.46,0,0,0-9.48-10.13c-14.53-12.2-35.26-17.31-63.21-16.07C87.15,116.28,67.35,123.13,53,135.11Zm53.76-8.19C94,127.63,82,131,73,137.79c-17.83,13.48-37.35,57.62-25.89,79,23.74,44.22,57.6,60.86,95.36,46.78,23.19-8.62,39.7-41.09,42.24-67.48,1.68-19.55-1.35-35-9-45.92a48.38,48.38,0,0,0-10.56-8.72,92.44,92.44,0,0,0-28-11.63,140.92,140.92,0,0,0-30.17-.41Z"/><path class="cls-10" d="M91.33,310.53c-18.67-3-34.91-10.56-47.83-22.19a88.57,88.57,0,0,1-8.57-8.86C11.73,257.75.1,225.94,2.83,190.79A108.51,108.51,0,0,1,29.55,128.1a76.23,76.23,0,0,1,13.29-12.69l1.8-1.45C72.15,92.62,108.89,83.82,145.39,89.8l-1.21,7.43c34.07,7.56,61.3,28.65,74.63,59.79,13.45,30,14.53,59.5,3.09,85.26-10.68,24.11-32.07,43.43-60.82,55.17a82.38,82.38,0,0,1-41.91,14.42A127.54,127.54,0,0,1,91.33,310.53ZM40.89,274c1.81,1.68,3.7,3.26,5.67,4.81,27.15,21.28,65.08,26.81,101.47,14.83q4.68-1.53,9.11-3.3c17.72-12.41,30.4-32,37.85-53.38-10.28,19.52-28.81,36.93-55,51-29.49,15.83-84.73-9-102.49-32.44C21.66,234.24,19.8,201.73,26.9,173.25c2.72-18.38,9.22-32.74,19.43-42.92A56.1,56.1,0,0,1,52.56,125c26.7-25.3,70.44-25,101.05-8,31.77,17.32,63.3,42,56,93.89-3.3,23.2-12.18,46.81-26.48,65.41,14.19-10.08,24.95-22.75,31.39-37.29,10.48-23.62,9.4-50.86-3.12-78.76-18.06-42.19-64-64.35-117.25-56.5-19,3.27-34.27,9.09-46,17.79a103.49,103.49,0,0,0-11.8,11c-14.25,17-20.21,41.17-18.75,73.78C18.9,234.08,26.91,257.18,40.89,274ZM31.3,211.24c.86,14.85,4.82,28.82,12.7,39.37,15.77,20.79,67.29,43.55,92.22,30.17,51.61-27.72,71-67.25,54.57-111.3-10.1-27.09-48-46.33-78.79-49.28-22.82-2-40.81,1.58-53.61,10.54a58.92,58.92,0,0,0-10.16,12.33c-5.92,9.14-10.58,20.53-13.53,32.72a162.69,162.69,0,0,0-.48,35.2Z"/><polygon class="cls-11" points="107.86 85.36 110.16 133.9 76.94 142.81 58.59 100.51 71.25 92 93.01 86.35 107.86 85.36"/><path class="cls-12" d="M477.42,125.12,380.53,375l-68.27-56.51-88.4-4.26a1.15,1.15,0,0,1,0-.19.83.83,0,0,0-.11.15l-68.19-56.45-88.51-4.28L164,3.58l88.52,4.25,68.21,56.53,88.48,4.21Z"/><polygon class="cls-13" points="458.63 135.86 377.17 345.96 319.98 298.63 231.51 294.34 163.28 237.87 89.13 234.28 170.59 24.19 244.75 27.73 312.97 84.26 401.45 88.48 458.63 135.86"/><path class="cls-14" d="M458.65,135.82,377.2,345.92,320,298.59l-24.19-1.18c2.48-11.39,4.91-23.84,16.52-25.59,9.11-.86,29.16,6.91,38.49,8.33,25.12,3.15,38.11,9.29,40.9-14.89,2.09-16.74,26.91-60.91-1.23-61.94-24-.51-11,34.14-40.51,33.69-17.49-.19-26.36-11.31-39.75-2.24-6,4.25-.47,9.71-12.23,11.74-10.8,2.38-12-.27-16.44-8.58-3.29-5.67-5.33-37.19-2.74-43.87,8.35-18.72,27-1.62,39.84-6.51,9.85-2.77,16.89-20.91,22.12-28.75,7.68-11.29,21.88-16.77,29.17-27.11,7.06-10.46,3.31-29.35,5.49-44.49l26,1.25Z"/><path class="cls-14" d="M354.92,94c-6.93,9.38-16.11,4.73-21.19,9.35-10.54,10.18-.39,35-13.79,44.05-16.42,11.2-39.56-19.73-59-6.4-6.4,5.19-4.75,17.91-10.2,23.48-6.42,5.2-15,1.88-23.16,3.09-7.21,1.6-11.92,5.27-17.79,6.28-2.66,1.17-13.52-1.95-16.18-.77-14.56,6.42-8.13,21-30.77,19.9-9.69-.47-15.36,2.82-16.64-10.85-.07-5.51.83-10.65,5.54-14.31,6-4.25,14.84,1.36,20.14-1,7-3.88,6.56-8.44,9.9-17,4.28-8.22,11.68-27.3,17.5-33.83,9.21-9.6,20.67-5.16,24.09-22.49,2.85-18.67-19.53-31.73-18-49.8,1.75-8.81,9.61-14.4,18.79-17l20.63,1L313,84.22l45.27,2.16A24.41,24.41,0,0,1,354.92,94Z"/><path class="cls-14" d="M227.31,247.63c-19-6.27-4.31-45.46,18.8-31.59C252.27,230.81,246.28,254.29,227.31,247.63Z"/><path class="cls-14" d="M196.53,265.35l-33.22-27.51-57-2.75c10.95-7.59,17.42-9.15,33.06-4,8.58,3.33,10.34,7.29,19.82,5.48,6.25-2,8.25-10,14.72-9.66C194.42,226,196.06,245.83,196.53,265.35Z"/><path class="cls-15" d="M305.18,77.82c-7.3,12.88-14.9,27-24.33,11.64-3.88-7-13.69-18.48-11.21-26.3,1.07-3.39,4-6.26,7.53-8.56Z"/><path class="cls-16" d="M275.5,113.18C259.87,118.1,248.27,153.67,227,135c-10.56-9.58,7.71-25.55,14.57-33.32,15.88-16.89-.64-23.85-4.82-41.38-2.28-9.68-.43-14.44,8.76-16.92a78.84,78.84,0,0,0,12.26-4.86l19.43,16.1c-3.52,2.3-6.46,5.17-7.53,8.56C267.16,71,277,82.47,280.85,89.46c9.43,15.38,17,1.24,24.33-11.64L313,84.26l8.19.39c-2.42,7,4.2,11.79,2.9,19.37C318.63,129.35,289.8,108.84,275.5,113.18Z"/><path class="cls-16" d="M458.63,135.86l-6,15.48c-4.31-1.8-8.74-2.51-12.71-.76-10.41,4.2-4.66,16.31-9.91,24.15-5.52,7.19-13.85,1.77-22.61,1.67-18.14.1-26.58,10.54-37.75,23.78-6.38,7.95-11.51,16.94-21.84,19.52-7.39,2.08-22.34-.42-27.72-6.36-8.47-9.31,5.61-8.8,11.57-11.42,8.13-4,10.9-11.15,13.86-18.78,2.59-6.69,4.33-12.59,9.89-17,10.75-7.9,20.76-13.9,28.62-25.67,6.64-10.06,4.28-18.11,2.73-29.68a38,38,0,0,1,2.69-22.84l12,.56,9,7.48c-5.54,8.09-1.46,23.57-3.46,32-2.19,8.49-16.77,22-8.82,28.42,13.9,10.88,21-8.87,26.61-17.69,4-5.7,13.6-9.4,19-15.14Z"/><path class="cls-16" d="M396.13,297.06l-19,48.9-43.06-35.65c1.33-3.17,2.69-6.26,4.11-9.24,5-10.13,12.37-7.83,22.28-5.09C374.61,299.65,386,302.27,396.13,297.06Z"/><path class="cls-15" d="M443.74,123.52c-5.36,5.74-15,9.44-19,15.14-5.61,8.82-12.71,28.57-26.61,17.69-7.95-6.38,6.63-19.93,8.82-28.42,2-8.4-2.08-23.88,3.46-32Z"/><polygon class="cls-17" points="252.49 7.83 155.59 257.77 67.08 253.49 163.97 3.59 252.49 7.83"/><path class="cls-17" d="M409.19,68.59,312.28,318.52l-88.4-4.26a1.15,1.15,0,0,1,0-.19L320.7,64.36Z"/><path class="cls-18" d="M232.58,241.09a36.35,36.35,0,1,0,49.79-12.81A36.35,36.35,0,0,0,232.58,241.09Zm54.35,32.1a26.77,26.77,0,1,1-9.44-36.66A26.78,26.78,0,0,1,286.93,273.19Z"/><path class="cls-19" d="M277.49,236.53A26.77,26.77,0,1,1,240.83,246,26.76,26.76,0,0,1,277.49,236.53Z"/><polygon class="cls-20" points="260.07 262.62 268.97 256.12 275.64 274.61 260.07 262.62"/><polygon class="cls-21" points="260.07 262.62 268.97 256.12 253.42 244.12 260.07 262.62"/><path class="cls-22" d="M250.27,258.31a6.32,6.32,0,1,1-8.67,2.23A6.33,6.33,0,0,1,250.27,258.31Z"/><path class="cls-23" d="M254.8,224.38l2.39,9.27h0a26.77,26.77,0,0,0,13.34,51.85l2.39,9.27a36.35,36.35,0,1,1-18.11-70.4Z"/><path class="cls-24" d="M272.91,294.8l-44.6,19.68h0l-4.41-.2a.64.64,0,0,0,0-.2s-.06.09-.11.15l-60-49.67,80.11-35.35a30.85,30.85,0,0,0-2.77,2,29.64,29.64,0,0,0-3.55,3.26,9.86,9.86,0,0,0-1.1,1.23c-.38.39-.7.8-1,1.22,0,0,0,0,0,.06-.32.41-.63.83-1,1.28a32.28,32.28,0,0,0-1.85,2.8,35.37,35.37,0,0,0-3.25,7.14,36,36,0,0,0-1.81,11.18c0,1.22.07,2.47.18,3.71a35.17,35.17,0,0,0,.83,4.89v0c.25,1.06.57,2.11.93,3.17a28.63,28.63,0,0,0,1.19,3.07,36.07,36.07,0,0,0,14.74,16.59c.87.51,1.77,1,2.67,1.44a36.8,36.8,0,0,0,7.36,2.62c.6.15,1.23.28,1.84.4s1,.13,1.51.22l0,0,.38.05a1.16,1.16,0,0,0,.4.07l.55.05c.55,0,1.07.11,1.59.13s1.05,0,1.54.06c0,0,0,0,0,0a12.75,12.75,0,0,0,1.38,0h0c.58,0,1.15-.06,1.75-.11a27.17,27.17,0,0,0,3.11-.36c1-.16,2.05-.37,3.09-.62Z"/><path class="cls-25" d="M193.35,385.71a13,13,0,0,1-16.46-8.29h0a13,13,0,0,1,8-16.6l232-78.63a13,13,0,0,1,16.47,8.29h0a13.05,13.05,0,0,1-8,16.61Z"/><path class="cls-26" d="M437.63,270.73l-22.2,7.52c-3-34.56-21.16-66.52-44.24-91.93a28.63,28.63,0,0,0,2.38-5.14C405.58,200.24,427.77,234.27,437.63,270.73Z"/><path class="cls-26" d="M448.72,303.51,426.53,311c18.62,29.28,23.66,65.68,20.79,99.88a30.37,30.37,0,0,1,5,2.63C466.15,379,463.08,338.44,448.72,303.51Z"/><g class="cls-27"><path class="cls-28" d="M437.63,270.73l-22.2,7.52c-.25-2.86-.61-5.73-1.08-8.56l21.27-5.78Q436.68,267.3,437.63,270.73Z"/></g><g class="cls-27"><path class="cls-28" d="M433.43,323.43a124.4,124.4,0,0,0-6.9-12.4l22.19-7.52c1.67,4.06,3.2,8.2,4.53,12.37Z"/></g><polygon class="cls-29" points="450.93 302.75 421.68 312.68 410.56 279.89 439.81 269.97 450.93 302.75"/><path class="cls-30" d="M420.35,308.77l-227,76.94a13.19,13.19,0,0,1-15.86-18.31,12.83,12.83,0,0,1,7.44-6.58l4.61-1.57L183.12,365l2,5.85,11.44,2.93,85.93-26.13,133.67-51.3Z"/><path class="cls-31" d="M469.69,159.16l-2.15-.24.6-5.41.22-1.91,1.25.14a19.7,19.7,0,0,1,.63-2.28.22.22,0,0,1,0-.14l.05-.06v0a15.1,15.1,0,0,0-2.08-.44l2.28-5.9a21.23,21.23,0,0,1,2.66.78,1.61,1.61,0,0,1,.29.09l-.28-.11c.32-.43.65-.87,1-1.27.05-.06.09-.09.1-.14l.81-.85.38-.39c.26-.27.57-.54.86-.8.06,0,.16,0,.23.06l-1.5,4.14-.33-.14a1.91,1.91,0,0,1,.32.16l-2.13,5.85-.63,1.77-.54,1.5-.27.71Z"/><path class="cls-31" d="M455.35,198.62c-.11-.22-.21-.44-.32-.67l-1.15.39-2.24-6.7.11-.34,1.27-.41-.5-1.51v0l3-7.79,2.54,7.62.8-.27-.46,1.27-1.15,3.13v0l-1.08,3-.5,1.37v0Z"/><path class="cls-32" d="M186.78,283.62a132.92,132.92,0,0,1-25.68,13.84c-1,.67-1.95,1.3-2.94,1.93l-4.82-7.63c1.28-.46,2.56-.95,3.8-1.45a87.27,87.27,0,0,0,16.49-15.14,85.44,85.44,0,0,1-20.54,12.43c-.63.28-1.25.55-1.88.8l-3.18-5-.54-.88-3.75-5.93,1.21-.74c-.43.19-.88.36-1.34.54l-6.86-10.87c1.88-.56,3.79-1.17,5.69-1.9a41.71,41.71,0,0,0,10.64-5.89v0h0l2.48.12,6.87,5.69.85.69.46.39,5,4.1a151,151,0,0,1-14.46,10.78,77.64,77.64,0,0,0,15.37-10l5.19,4.26.26.24Z"/><path class="cls-32" d="M109.94,129.19l.22,4.72-8.08,2.17.58-8.82.46-7.06,0-.47.27-4,.69-10.72.15-2.21v-.18l.88-13.49.25-3.61,2.46-.17.17,3.45a132.88,132.88,0,0,1,23.12-.57l-5.58,14.37,0,0-1.5,3.9-3.3,8.43-1.91,5-.43,1.08-3,7.85C113.61,129,111.79,129.06,109.94,129.19Z"/><polygon class="cls-33" points="400.58 323.29 384.07 328.18 363.24 334.37 363.2 334.39 339.84 341.33 335.34 337.61 357.86 329.97 357.88 329.98 357.91 329.97 387.23 320.03 387.25 320.04 387.26 320.01 404.06 314.31 400.58 323.29"/><path class="cls-34" d="M415.43,278.26l-4.87,1.63,1.36,4-8.18,2.75-4.11,1.41-29.95,10.17h0l-35.53,12-.06,0-21.39,7.24,2.73-7.09,11.93-5.73h.05l12.07-5.82,10.82-5.17,22.08-10.6,17.14-8.23v0l12.85-6.15a166.63,166.63,0,0,0-5-23.07,234.4,234.4,0,0,0-16.05-40c-2.17-4.35-4.28-8.31-6.18-11.88-1.45-2.7-2.8-5.16-4-7.39,1.78,2,3.52,3.94,5.24,6q4.72,5.56,9,11.54a177.13,177.13,0,0,1,16.41,27.09,145.29,145.29,0,0,1,9.8,26.06l0,0a129.1,129.1,0,0,1,2.7,12.64v0h0c.07.41.13.82.19,1.25.16,1,.3,2,.44,3,.19,1.43.34,2.85.46,4.27Z"/></g></g></svg>